<?xml version="1.0" standalone="no"?>
<!DOCTYPE svg PUBLIC "-//W3C//DTD SVG 1.1//EN" "http://www.w3.org/Graphics/SVG/1.1/DTD/svg11.dtd" >
<!--
2013-12-13: Created.
-->
<svg xmlns="http://www.w3.org/2000/svg">
<metadata>
Created by FontForge 20120731 at Fri Dec 13 15:13:33 2013
 By root
Created by root with FontForge 2.0 (http://fontforge.sf.net)
</metadata>
<defs>
<font id="fontcustom" horiz-adv-x="512" >
  <font-face 
    font-family="fontcustom"
    font-weight="500"
    font-stretch="normal"
    units-per-em="512"
    panose-1="2 0 6 9 0 0 0 0 0 0"
    ascent="448"
    descent="-64"
    bbox="-1.38092 -75.2002 512.438 448.079"
    underline-thickness="25.6"
    underline-position="-51.2"
    unicode-range="U+F100-F200"
  />
    <missing-glyph />
    <glyph glyph-name="uniF100" unicode="&#xf100;" 
d="M464 256c8.7998 0 16 -7.2002 16 -16v-32c0 -8.7998 -7.2002 -16 -16 -16h-71.8398c14.8799 -19.2959 23.8398 -45.5361 23.8398 -82.5596c0 -106.816 -80.5117 -141.44 -170.016 -141.44c-35.0088 0 -98.6562 5.69629 -135.04 20.5439
c-16.0645 6.33594 -16.0645 12.7041 -13.9844 21.8877l6.30371 29.0244c2.78418 12 6.97656 12 18.8799 10.5596c36.3848 -4.25586 91.6484 -9.8877 123.841 -9.8877c59.4561 0 89.5039 21.9199 89.5039 62.208c0 50.8799 -20.2559 63.6162 -83.2324 74.9443
c-21.4082 4.22363 -42.1123 8.73535 -61.1836 14.7197h-143.072c-8.7998 0 -16 7.2002 -16 16v32c0 8.7998 7.2002 16 16 16h59.2002c-6.75195 14.8477 -10.9443 32.3203 -10.9443 54.1758c0 89.0566 60.1602 137.824 158.848 137.824
c26.5605 0 88.1602 -2.08008 128.704 -19.0723c15.3926 -6.39941 15.3926 -12.7041 13.9844 -21.9199l-6.97559 -28.96c-2.81641 -11.3281 -7.00879 -12 -20.3203 -11.3281c-31.4561 4.25586 -70.624 9.21582 -111.937 9.21582
c-59.4238 0 -80.4473 -23.3594 -80.4473 -62.9111c0 -37.4727 16.1602 -47.9365 57.4072 -57.0244h228.48z" />
    <glyph glyph-name="uniF101" unicode="&#xf101;" 
d="M219.776 373.28l128.896 -364.192c1.85645 -6.36816 0.639648 -10.4961 -6.27148 -10.4961h-55.2646c-10.208 0 -12.6719 4.12793 -15.8721 12.2559l-26.3672 84h-140.385l-26.3359 -84c-3.2002 -8.12793 -5.69531 -12.2559 -15.8076 -12.2559h-55.2959
c-6.97656 0 -8.16016 4.12793 -6.33594 10.4961l128.96 364.192c2.14355 5.40723 4.47949 8.86328 9.08789 10.6553c0.479492 0.192383 0.799805 0.480469 1.34375 0.640625c1.95215 0.543945 4.32031 0.832031 7.23242 0.832031h54.7197v0
c2.91211 0 5.24805 -0.288086 7.23145 -0.832031c0.512695 -0.12793 0.800781 -0.416016 1.24805 -0.576172c4.7041 -1.79199 7.04004 -5.28027 9.2168 -10.7197zM121.6 149.76h106.24l-52.2236 166.816h-1.85645zM498.56 41.376
c7.4248 0 13.4404 -4.86426 13.5049 -12.3838v-17.0566c0 -7.42383 -6.04883 -13.4395 -13.4404 -13.4395h-112.672c-7.42383 0 -13.4404 6.1123 -13.4404 13.4395v19.168c0 3.39258 1.3125 6.68848 3.55273 9.15234c10.1758 9.82422 68.5117 51.2637 77.1836 74.4961
c7.93555 21.4404 -15.1035 29.7285 -27.7441 24.1924c-11.0078 -4.7041 -15.8721 -16.2559 -26.8154 -15.4561c-3.61621 0.191406 -7.00879 1.95215 -9.37598 4.7041l-14.0488 16.6074c-4.7041 5.56836 -4.19141 13.8242 1.18457 18.6885
c3.67969 3.3916 7.61621 6.62402 11.6797 9.75977c4.44824 3.3916 9.24805 6.40039 14.624 9.02441s11.3281 4.73535 17.6318 6.30371c14.3682 3.58398 33.4727 3.23145 47.4883 -1.66406c8.06348 -2.78418 15.168 -6.87988 20.9922 -12.1602
c6.08008 -5.44043 10.6875 -12.1279 13.8242 -19.7441c12.7676 -31.0078 -2.75293 -60.3193 -26.4326 -81.1836c-18.8154 -16.6406 -43.2002 -32.4482 -43.2002 -32.4482h44.4482h21.0557z" />
    <glyph glyph-name="uniF102" unicode="&#xf102;" 
d="M219.776 373.28l128.896 -364.192c1.85645 -6.36816 0.639648 -10.4961 -6.27148 -10.4961h-55.2646c-10.208 0 -12.6719 4.12793 -15.8721 12.2559l-26.3672 84h-140.385l-26.3359 -84c-3.2002 -8.12793 -5.69531 -12.2559 -15.8076 -12.2559h-55.2959
c-6.97656 0 -8.16016 4.12793 -6.33594 10.4961l128.96 364.192c2.14355 5.40723 4.47949 8.86328 9.08789 10.6553c0.479492 0.192383 0.799805 0.480469 1.34375 0.640625c1.95215 0.543945 4.32031 0.832031 7.23242 0.832031h54.7197v0
c2.91211 0 5.24805 -0.288086 7.23145 -0.832031c0.512695 -0.12793 0.800781 -0.416016 1.24805 -0.576172c4.7041 -1.79199 7.04004 -5.28027 9.2168 -10.7197zM121.6 149.76h106.24l-52.2236 166.816h-1.85645zM498.56 235.84
c7.4248 0 13.4404 -4.89551 13.5049 -12.3203v-17.0557c0 -7.3916 -6.04883 -13.4395 -13.4404 -13.4395h-112.672c-7.42383 0 -13.4404 6.0791 -13.4404 13.4395v19.1357c0 3.4248 1.3125 6.68848 3.55273 9.18457c10.1758 9.82422 68.5117 51.2959 77.1836 74.4961
c7.93555 21.4072 -15.1035 29.6953 -27.7441 24.1914c-11.0078 -4.76758 -15.8721 -16.3193 -26.8154 -15.4873c-3.61621 0.223633 -7.00879 1.95117 -9.37598 4.73535l-14.0488 16.5762c-4.7041 5.56836 -4.19141 13.8242 1.18457 18.6885
c3.67969 3.3916 7.61621 6.62402 11.6797 9.75977c4.44824 3.35938 9.24805 6.36816 14.624 8.99219s11.3281 4.73535 17.6318 6.30371c14.3682 3.58398 33.4727 3.23242 47.4883 -1.66406c8.06348 -2.78418 15.168 -6.91211 20.9922 -12.1924
c6.08008 -5.43945 10.6875 -12.0957 13.8242 -19.7119c12.7676 -31.0078 -2.75293 -60.3193 -26.4326 -81.1836c-18.8154 -16.6396 -43.2002 -32.4482 -43.2002 -32.4482h44.4482h21.0557z" />
    <glyph glyph-name="uniF103" unicode="&#xf103;" 
d="M366.528 237.504v196.608c0 9.02344 4.22363 13.8877 14.0801 13.8877h52.8633c9.91992 0 12.7041 -5.59961 12.7041 -13.8877l-0.671875 -196.641c0 -27.6475 -2.14355 -54.624 -12.7363 -81.5674c-27.4551 -65.6963 -90.9111 -91.9043 -161.472 -91.9043
c-74.7842 0 -125.568 26.208 -152.352 76.7041c-14.8164 27.6797 -21.1523 60.8955 -21.1523 96.7998v196.608c0 9.02344 3.51953 13.8877 13.376 13.8877h52.8965c9.8877 0 13.4072 -5.59961 13.4072 -13.8877v-196.641c0 -67.7441 31.7441 -104.384 93.792 -104.384
c61.4082 0.0322266 95.2646 33.1846 95.2646 104.416zM448 -16v-32c0 -8.7998 -7.2002 -16 -16 -16h-320c-8.7998 0 -16 7.2002 -16 16v32c0 8.7998 7.2002 16 16 16h320c8.7998 0 16 -7.2002 16 -16z" />
    <glyph glyph-name="uniF104" unicode="&#xf104;" 
d="M224 306.88l142.752 -114.848l-142.752 -114.912v229.76z" />
    <glyph glyph-name="uniF105" unicode="&#xf105;" 
d="M141.12 160l114.848 142.752l114.912 -142.752h-229.76z" />
    <glyph glyph-name="uniF106" unicode="&#xf106;" 
d="M163.68 272.96l187.744 14.1436l-14.0801 -187.775z" />
    <glyph glyph-name="uniF107" unicode="&#xf107;" 
d="M175.04 99.6797l-14.1758 187.744l187.775 -14.0801z" />
    <glyph glyph-name="uniF108" unicode="&#xf108;" 
d="M370.88 224l-114.848 -142.752l-114.912 142.752h229.76z" />
    <glyph glyph-name="uniF109" unicode="&#xf109;" 
d="M336.96 284.32l14.1436 -187.744l-187.775 14.0801z" />
    <glyph glyph-name="uniF10A" unicode="&#xf10a;" 
d="M348.32 111.04l-187.744 -14.1436l14.0801 187.775z" />
    <glyph glyph-name="uniF10B" unicode="&#xf10b;" 
d="M288 77.1201l-142.752 114.848l142.752 114.912v-229.76z" />
    <glyph glyph-name="uniF10C" unicode="&#xf10c;" 
d="M481.28 192l-124.832 -111.456v222.912zM30.6562 191.968l124.832 111.456l0.03125 -222.88z" />
    <glyph glyph-name="uniF10D" unicode="&#xf10d;" 
d="M255.968 417.312l111.456 -124.832h-222.943zM256 -33.3125l-111.456 124.832l222.88 0.0322266z" />
    <glyph glyph-name="uniF10E" unicode="&#xf10e;" 
d="M260.8 352c236.353 0 251.072 -347.104 251.2 -350.624c0.223633 -6.27246 -4.0957 -11.7441 -10.2402 -12.9922c-0.799805 -0.160156 -1.69531 -0.255859 -2.55957 -0.255859c-5.28027 0 -10.0479 3.32812 -11.9365 8.25586
c-23.3281 61.5361 -103.008 221.216 -190.144 221.216c-52.3838 0 -84.3525 -31.2959 -96.6084 -46.2393l44.1924 -44.1924c3.45605 -3.45605 4.63965 -8.44824 3.10352 -13.0879c-1.53516 -4.63965 -5.50391 -7.96777 -10.3359 -8.63965l-222.88 -31.6807
c-0.639648 -0.0634766 -1.21582 -0.12793 -1.79199 -0.12793c-3.42383 0 -6.65625 1.34375 -9.05566 3.74414c-2.81641 2.81641 -4.19238 6.87988 -3.61621 10.8477l31.6484 222.88c0.735352 4.83203 4 8.80078 8.63965 10.3369
c1.31152 0.447266 2.6875 0.671875 4.06445 0.671875c3.42383 0 6.65527 -1.34473 9.05566 -3.74414l40.7676 -40.832c21.4082 22.6562 79.8398 74.4639 166.496 74.4639z" />
    <glyph glyph-name="uniF10F" unicode="&#xf10f;" 
d="M275.808 109.184c10.752 -35.8076 5.24805 -79.4873 -22.9434 -107.615l-34.9443 -35.0088c-40.7363 -40.7354 -107.456 -40.7354 -148.224 0l-39.1367 39.2002c-40.7354 40.7363 -40.7354 107.488 0 148.256l34.9766 34.9443
c28.1602 28.1602 71.9043 33.5996 107.712 22.8477l-0.0957031 -0.0957031c12 -3.64746 19.2637 -12.832 19.2959 -23.7119l0.0322266 -5.79199c-0.0644531 -14.0156 -12 -25.4717 -30.9766 -25.4717l-45.8555 -0.0644531
c-16.3848 -15.6797 -30.4326 -29.1523 -32.5127 -31.2637c-28.0957 -28.0645 -15.7754 -67.1357 11.7119 -94.5605c27.4561 -27.4873 66.5283 -39.8076 94.624 -11.7441c2.04785 2.04883 15.3281 15.9043 30.8486 32.0967l-0.0322266 46.6562
c-0.0322266 18.9434 11.5195 31.04 25.5684 31.0078h5.75977c11.1035 -0.0644531 20.2559 -7.68066 23.7754 -20.1279c0.12793 0.12793 0.416016 0.447266 0.416016 0.447266zM481.44 378.24c40.7354 -40.7363 40.7354 -107.456 -0.0644531 -148.192l-34.8164 -34.7842
c-28.1914 -28.1914 -71.8711 -33.6953 -107.68 -22.9434c0 0 0.320312 0.319336 0.511719 0.479492c-12.3838 3.52051 -19.9678 12.7363 -20.0312 23.8086l-0.0644531 5.82324c0.0644531 14.0166 12 25.4404 31.0078 25.4404l46.6885 0.0322266
c16.0957 15.4238 29.792 28.5762 31.8076 30.624c28.1279 28.0957 15.8086 67.168 -11.6797 94.624c-27.4883 27.4873 -66.5605 39.8076 -94.624 11.7119c-2.08008 -2.08008 -15.4561 -16 -31.0723 -32.2881l0.0644531 -45.8564
c0.0634766 -18.9121 -11.4883 -31.0078 -25.5361 -30.9756h-5.75977c-10.9121 0.0322266 -20.0322 7.35938 -23.6807 19.3916c-0.03125 -0.0322266 -0.223633 -0.223633 -0.223633 -0.223633c-10.752 35.8076 -5.24805 79.5518 22.9443 107.712l34.752 34.8164
c40.7676 40.7354 107.52 40.7354 148.256 0z" />
    <glyph glyph-name="uniF110" unicode="&#xf110;" 
d="M432 192c8.7998 0 16 -7.2002 16 -16v-224c0 -8.7998 -7.2002 -16 -16 -16h-320c-8.7998 0 -16 7.2002 -16 16v224c0 8.7998 7.2002 16 16 16h48h175.552c13.248 26.4961 44.9922 89.9199 45.0566 90.1123c16.8955 34.9434 -6.1123 74.5596 -43.3604 92.9277
c-37.1201 18.3359 -85.4404 6.94434 -102.88 -27.7441c-0.0957031 -0.0957031 -9.72852 -19.6475 -19.4883 -39.4561c-2.43164 -4.95996 -29.5996 4.67188 -31.9043 0c-2.11133 -4.25586 20.5762 -22.8799 18.8486 -26.4316
c-4.25586 -8.6084 -7.2002 -14.5605 -7.2002 -14.5605l-57.376 28.3203l39.9043 80.832c0.15918 0.288086 0.351562 0.576172 0.479492 0.799805c33.4404 65.3125 117.536 90.2402 187.872 55.5205c70.4004 -34.752 101.729 -116.641 70.2402 -182.912
c-0.0644531 -0.255859 -0.192383 -0.543945 -0.320312 -0.832031l-27.9355 -56.5762h8.51172h16zM295.776 9.53613l-14.1445 41.2803c11.3926 4.12793 19.0078 14.9434 19.0078 27.0078c0 15.8721 -12.8633 28.7676 -28.6396 28.7676
c-15.8076 0 -28.6719 -12.8955 -28.6719 -28.7676c0 -12.0645 7.64746 -22.8799 19.0078 -27.0078l-14.0479 -41.2803c-0.799805 -2.17578 -0.448242 -4.6084 0.927734 -6.52832c1.34375 -1.8877 3.52051 -3.00781 5.82422 -3.00781h33.9199
c2.33594 0 4.51172 1.12012 5.85645 3.00781c1.34375 1.88867 1.69531 4.35254 0.959961 6.52832z" />
    <glyph glyph-name="uniF111" unicode="&#xf111;" 
d="M64 416c17.5996 0 32 -14.4004 32 -32v-32c0 -17.5996 -14.4004 -32 -32 -32h-32c-17.5996 0 -32 14.4004 -32 32v32c0 17.5996 14.4004 32 32 32h32zM64 224c17.5996 0 32 -14.4004 32 -32v-32c0 -17.5996 -14.4004 -32 -32 -32h-32c-17.5996 0 -32 14.4004 -32 32v32
c0 17.5996 14.4004 32 32 32h32zM64 32c17.5996 0 32 -14.4004 32 -32v-32c0 -17.5996 -14.4004 -32 -32 -32h-32c-17.5996 0 -32 14.4004 -32 32v32c0 17.5996 14.4004 32 32 32h32zM480 416c17.5996 0 32 -14.4004 32 -32v-32c0 -17.5996 -14.4004 -32 -32 -32h-288
c-17.5996 0 -32 14.4004 -32 32v32c0 17.5996 14.4004 32 32 32h288zM480 224c17.5996 0 32 -14.4004 32 -32v-32c0 -17.5996 -14.4004 -32 -32 -32h-288c-17.5996 0 -32 14.4004 -32 32v32c0 17.5996 14.4004 32 32 32h288zM480 32c17.5996 0 32 -14.4004 32 -32v-32
c0 -17.5996 -14.4004 -32 -32 -32h-288c-17.5996 0 -32 14.4004 -32 32v32c0 17.5996 14.4004 32 32 32h288z" />
    <glyph glyph-name="uniF112" unicode="&#xf112;" 
d="M475.648 116.736c-20.2246 -102.849 -110.977 -180.736 -219.648 -180.736c-61.4082 0 -116.64 25.2803 -157.056 65.5039l-53.792 -37.248c-7.23242 -4.99219 -13.1523 -1.91992 -13.1523 6.91211v172.832c0 8.7998 6.75195 13.4717 15.0078 10.3682l161.984 -60.6719
c8.25586 -3.10449 9.08789 -9.72852 1.85547 -14.7207l-57.9834 -40.1592c27.9355 -23.8086 63.6475 -38.8164 103.136 -38.8164c77.8242 0 142.624 55.8721 156.928 129.568l0.12793 -0.0322266c3.36035 17.376 20.1924 28.6719 37.5039 25.3438
c17.376 -3.36035 28.6729 -20.1602 25.3447 -37.5361c-0.0322266 -0.223633 -0.192383 -0.383789 -0.255859 -0.607422zM36.0957 266.656c0.0322266 0.223633 0.192383 0.383789 0.255859 0.607422c20.2246 102.849 110.977 180.736 219.648 180.736
c61.4082 0 116.64 -25.2803 157.056 -65.5039l53.792 37.248c7.23242 4.99219 13.1523 1.8877 13.1523 -6.91211v-172.832c0 -8.7998 -6.75195 -13.4717 -15.0078 -10.4004l-161.984 60.6729c-8.25586 3.10352 -9.12012 9.72754 -1.85547 14.7197l57.9834 40.1602
c-27.9355 23.8398 -63.6475 38.8477 -103.136 38.8477c-77.792 0 -142.656 -55.8721 -156.928 -129.568l-0.160156 0.0322266c-3.36035 -17.376 -20.1602 -28.6719 -37.5039 -25.3438c-17.3438 3.3916 -28.6719 20.1602 -25.3125 37.5361z" />
    <glyph glyph-name="uniF113" unicode="&#xf113;" 
d="M353.12 223.584c52.0635 -0.0644531 126.88 -82.1123 126.88 -190.624c0 -104.256 -118.432 -97.376 -224 -96.6084c-105.568 -0.767578 -224 -7.64746 -224 96.6084c0 108.512 74.8164 190.56 126.88 190.56c1.3125 0 36.6719 -0.223633 37.8242 -0.287109
c-25.376 5.69531 -59.2002 57.2793 -63.2002 99.7754c-0.767578 7.9043 -3.45605 0.416016 -3.00781 10.4961c1.28027 30.2725 6.46387 72.8643 44.0957 99.0723c47.4238 32.9922 116.96 2.97559 116.96 2.97559s67.3604 -18.4961 76.4805 -80.8955
c11.2959 -77.3438 -23.04 -118.656 -52.0322 -131.104c0.0957031 0 36.9922 0.0322266 37.1201 0.0322266zM153.504 328.992c0.992188 -62.4961 51.9043 -113.12 102.496 -113.057c23.0078 0.0322266 95.3281 13.4082 96.6719 93.3447
c0.255859 14.624 -0.959961 26.6553 -2.97559 36.8633c-15.168 11.7764 -45.248 35.7441 -58.7207 50.4961c-0.12793 -0.03125 -0.383789 -0.0634766 -0.383789 -0.0634766c-3.96777 -48 -135.552 -67.1357 -137.088 -67.584zM215.168 223.008l-19.8398 -35.5195
l15.2637 -22.1445l45.4082 -22.3359l45.4082 22.3359l15.2314 22.1445l-19.8076 35.4873l-4.7998 -36.9912l-36.0322 16l-36.0322 -15.9688zM256 -57.3438l61.6641 71.5195s-27.1045 111.809 -49.0879 120.8h-25.1846c-21.9512 -8.99121 -49.0879 -120.8 -49.0879 -120.8z
" />
    <glyph glyph-name="uniF114" unicode="&#xf114;" 
d="M353.12 223.488c52.0635 0 126.88 -82.0801 126.88 -190.561c0 -104.256 -118.432 -97.376 -224 -96.6074c-105.568 -0.768555 -224 -7.64844 -224 96.6074c0 108.48 74.8164 190.561 126.88 190.561c33.1201 0 48.7998 -29.5039 97.1201 -29.5039
s64 29.5039 97.1201 29.5039zM255.808 -38.0156c33.1846 0 38.208 3.77539 38.1768 22.0156c0 14.4316 -9.98438 19.7119 -38.1768 19.7119c-30.8154 0 -37.8877 -4.86426 -37.8877 -19.7119c0 -17.4717 5.08789 -22.0156 37.8877 -22.0156zM296.992 54.0156
c24.5117 11.9688 38.0156 30.4961 38.0156 54.2402c0 37.792 -24.3203 70.752 -80.5117 70.752c-41.0244 0 -55.5205 -17.0557 -68.5117 -39.0078c-1.18457 -1.98438 -1.18457 -3.26367 -0.224609 -4.6084l23.04 -25.9834
c1.05664 -1.3125 3.2002 -0.671875 4.7041 0.0322266c3.87207 1.85547 10.3682 9.08789 13.6318 12.2871c4.86426 4.80078 10.4961 8.64062 16.832 11.2646c21.3438 8.7998 48.2246 -2.97656 45.792 -28.8965c-1.43945 -15.4238 -13.8242 -21.7598 -25.792 -28.7676
c-6.20801 -3.64844 -17.792 -8.73633 -22.4639 -14.3359c-7.67969 -9.08789 -11.0078 -18.4961 -11.0078 -30.3047c0.0634766 -1.63184 1.37598 -2.97559 3.00781 -2.97559h39.4883c1.63184 0 2.94336 1.34375 2.94336 2.97559c0 12.3203 8.80078 17.3125 21.0566 23.3281z
M160 320c0 53.0244 42.9756 96 96 96c52.9922 0 96 -42.9756 96 -96s-43.0078 -96 -96 -96c-53.0244 0 -96 42.9756 -96 96z" />
    <glyph glyph-name="uniF115" unicode="&#xf115;" 
d="M377.152 193.216c42.5596 -22.752 87.0713 -86.9756 87.0713 -167.616c0 -96.9277 -110.111 -90.5273 -208.224 -89.8232c-98.1436 -0.704102 -208.224 -7.07227 -208.224 89.8232c0 80.1279 43.9033 144.032 86.2393 167.168v115.137
c-2.33594 17.2158 -9.56738 89.1836 40.5762 124.096c47.4238 32.9922 116.992 3.00781 116.992 3.00781s89.5039 6.49609 88.5117 -76.9922c-0.992188 -83.4873 -3.00781 -162.496 -2.94336 -164.8zM160.608 302.016
c-1.79199 -0.671875 -2.78418 -0.575195 -4.32031 -1.02344c7.55176 -48.4482 49.1201 -85.6006 99.7119 -85.6006c41.3438 0 76.7676 24.8643 92.5439 60.3848c5.72852 25.7598 6.97559 47.5518 -2.94434 77.248c-12 36 -55.0078 43.0078 -55.0078 43.0078
c-3.96777 -48 -104 -86.0166 -129.983 -94.0166zM337.408 139.488c14.1113 -8.54395 45.1514 -26.8486 74.6875 -26.1445c0 0 -44.6396 84.7686 -101.056 87.168c-1.18359 -30.8154 -23.5205 -80.6074 -55.04 -97.8555c-31.5518 17.248 -53.8564 67.04 -55.04 97.8555
c-56 -2.39941 -100.768 -87.1357 -100.672 -87.1357c29.3438 -0.608398 65.9844 14.0801 80.0322 22.624l75.6797 -80z" />
    <glyph glyph-name="uniF116" unicode="&#xf116;" 
d="M256 224c-53.0244 0 -96 42.9756 -96 96s42.9756 96 96 96c52.9922 0 96 -42.9756 96 -96s-43.0078 -96 -96 -96zM353.12 223.488c52.0635 0 126.88 -82.0801 126.88 -190.561c0 -104.256 -118.432 -97.376 -224 -96.6074c-105.568 -0.768555 -224 -7.64844 -224 96.6074
c0 108.48 74.8164 190.561 126.88 190.561c33.1201 0 48.7998 -63.4883 97.1201 -63.4883s64 63.4883 97.1201 63.4883z" />
    <glyph glyph-name="uniF117" unicode="&#xf117;" 
d="M212.992 51.6162c6.04785 -6.40039 5.47168 -16.2559 -1.3125 -21.8887l-23.3594 -19.4873c-6.75195 -5.63184 -17.1523 -4.92871 -23.1045 1.53613l-154.368 168.416c-5.95117 6.49512 -5.95117 17.1191 0 23.584l154.368 168.416
c5.95215 6.49512 16.3203 7.19922 23.1045 1.56738l23.3916 -19.5195c6.75195 -5.63184 7.32812 -15.4883 1.3125 -21.8564l-122.017 -128.768c-6.04785 -6.36816 -6.04785 -16.832 0 -23.2324zM299.008 51.6162l121.984 128.768c6.04785 6.40039 6.04785 16.8643 0 23.2324
l-121.984 128.768c-6.04785 6.36816 -5.47168 16.2246 1.28027 21.8564l23.4238 19.4873c6.75195 5.66406 17.1523 4.95996 23.1045 -1.53516l154.336 -168.416c5.95117 -6.46484 5.95117 -17.0889 0 -23.584l-154.336 -168.416
c-5.95215 -6.46484 -16.3525 -7.2002 -23.1045 -1.53613l-23.4238 19.4873c-6.75195 5.66406 -7.32812 15.4883 -1.28027 21.8887z" />
    <glyph glyph-name="uniF118" unicode="&#xf118;" 
d="M175.808 151.008l47.4248 -52.416c5.79199 -6.39941 5.31152 -16.3838 -1.12012 -22.1436l-148.513 -136.384c-6.36719 -5.82422 -16.3516 -5.3125 -22.1758 1.08789l-47.3916 52.3838c-5.79199 6.43164 -5.3125 16.3838 1.08789 22.208l148.512 136.352
c6.40039 5.85645 16.3525 5.3125 22.1758 -1.08789zM393.536 438.272c91.8398 -31.7764 140.512 -132 108.704 -223.809c-25.1523 -72.7676 -93.3125 -118.464 -166.24 -118.464c-19.0723 0 -38.4961 3.13574 -57.5361 9.75977
c-91.8398 31.7441 -140.512 131.937 -108.704 223.776c25.1523 72.7676 93.3125 118.464 166.24 118.464c19.0723 0 38.4961 -3.13574 57.5361 -9.72754zM457.216 230.048c11.2324 32.3838 9.08789 67.2002 -5.82422 98.0166
c-15.0078 30.7832 -41.0234 53.9199 -73.4395 65.1191v0c-13.6318 4.73633 -27.7764 7.10449 -41.9521 7.10449c-54.624 0 -103.296 -34.6885 -121.216 -86.3359c-11.2324 -32.3838 -9.12012 -67.2002 5.85547 -98.0166c14.9766 -30.8154 41.0566 -53.9512 73.4082 -65.1514
c13.6318 -4.73633 27.7764 -7.10449 41.9521 -7.10449c54.624 0 103.328 34.7207 121.216 86.3682z" />
    <glyph glyph-name="uniF119" unicode="&#xf119;" 
d="M496.128 -4.22363c8.73633 -15.2646 1.47168 -27.7764 -16.1279 -27.7764h-448c-17.5996 0 -24.8643 12.5117 -16.1279 27.7764l224.256 392.447c8.73633 15.2959 23.0078 15.2959 31.7441 0zM233.152 288c-6.84863 0 -9.60059 -2.04785 -9.15234 -8.6084
l6.40039 -174.815c0 -6.14453 1.82324 -8.57617 8.22363 -8.57617h34.7197c6.43262 0 8.22461 2.43164 8.25586 8.54395l6.40039 174.848c0.448242 6.56055 -2.33594 8.6084 -9.18359 8.6084h-45.6641zM256 0c29.6963 0 35.2002 16.4805 35.2002 33.376
c0 19.168 -5.95215 32.8643 -35.2002 32.8643c-28.3203 0 -35.2002 -14.1445 -35.2002 -32.8643c0 -16.4795 3.68066 -33.376 35.2002 -33.376z" />
    <glyph glyph-name="uniF11A" unicode="&#xf11a;" 
d="M502.688 97.8877c7.87207 -7.90332 11.4883 -23.5195 7.9043 -34.1436l-9.4082 -27.4883c-1.53516 -4.51172 -4.0957 -7.3916 -7.23145 -8.12793s-6.71973 0.736328 -10.0801 4.06445l-29.3438 29.4717c-5.05664 5.08789 -11.8086 7.83984 -19.0088 7.83984
c-7.13574 0 -13.8232 -2.75195 -18.8799 -7.77637l-31.5518 -31.6797c-10.3994 -10.4639 -10.4316 -27.4883 -0.0634766 -37.9521l29.5039 -29.5039c3.35938 -3.32812 4.76758 -6.87988 4.03125 -10.0801c-0.767578 -3.16797 -3.58398 -5.72754 -8.0957 -7.26367
l-27.4238 -9.44043c-10.5283 -3.55176 -26.0801 0.0644531 -33.9844 8l-45.7598 45.9209c-7.87207 7.90332 -11.4883 23.4873 -7.93555 34.0791l21.9199 64.2568c-12.3525 -4.25684 -26.5605 -1.56836 -36.3838 8.25586l-1.2168 1.24805v-0.0644531l-47.6797 46.2402
l-69.4082 69.6318v0l-1.21582 1.21582c-9.79199 9.82422 -12.4482 24.0957 -8.22363 36.4805l-64.1279 -21.9521c-10.5283 -3.55176 -26.0488 0.0634766 -33.9209 7.96777l-45.792 45.9199c-7.90332 7.87207 -11.5195 23.4883 -7.93555 34.1123l9.4082 27.5195
c1.53613 4.48047 4.0957 7.36035 7.23145 8.12793c3.13672 0.736328 6.68848 -0.735352 10.0801 -4.0957l29.376 -29.4395c5.02441 -5.08887 11.7764 -7.87207 18.9766 -7.87207c7.10352 0 13.8242 2.7832 18.8154 7.80762l31.6162 31.6797
c10.4004 10.4326 10.4316 27.4561 0.0322266 37.9199l-29.4717 29.5049c-3.36035 3.35938 -4.76855 6.94336 -4.03223 10.1113c0.735352 3.16797 3.58398 5.72852 8.06348 7.26465l27.4561 9.40723c10.5283 3.58398 26.1123 -0.03125 33.9844 -8l45.7598 -45.9199
c7.9043 -7.87207 11.5205 -23.4873 7.93652 -34.0801l-21.8564 -64.2236c12.3516 4.22363 26.5918 1.56836 36.3838 -8.28809l1.21582 -1.18359v0l69.4082 -69.6328l47.6484 -46.208h-0.0322266l1.21582 -1.21582c9.82422 -9.82324 12.4482 -24.0957 8.25586 -36.4795
l64.1279 21.9521c10.5283 3.55176 26.0166 -0.0644531 33.8887 -7.96875z" />
    <glyph glyph-name="uniF11B" unicode="&#xf11b;" 
d="M307.424 256c-29.3115 0 -38.5596 3.2002 -43.3281 7.96777c-9.63184 9.66406 -10.6875 67.8721 -3.10352 135.968c0.639648 5.44043 -0.416016 -0.0957031 0.639648 5.44043c1.8877 10.1123 18.8799 8.63965 20.1279 0.255859l0.736328 -5.34375
c4.7998 -33.8877 12.0635 -68.1279 12.0635 -68.1279c3.61621 -17.2158 20.7041 -34.4961 37.8887 -38.3682c0 0 29.248 -6.62402 67.6797 -11.4238c5.44043 -0.671875 9.56836 -5.37598 9.50391 -10.8799c-0.12793 -5.50391 -4.31934 -10.0801 -9.75977 -10.6562
c-2.01562 -0.160156 -57.0244 -4.83203 -92.4482 -4.83203zM425.376 342.624c12.4482 -12.4482 22.624 -37.0244 22.624 -54.624v-320c0 -17.5996 -14.4316 -32 -32 -32h-320c-17.5996 0 -32 14.4004 -32 32v448c0 17.5996 14.4004 32 32 32h192
c17.5684 0 42.1758 -10.1758 54.624 -22.624zM164.256 32h32.416l-31.4883 79.6484l31.4561 79.7119h-32.3838l-20.2559 -71.4883l-20.2559 71.4883h-32.416l31.5195 -79.7119l-31.4873 -79.6484h32.3838l20.2559 71.3604zM295.328 32l6.6875 33.9844l-46.0156 -0.992188
l3.00781 127.008h-35.0078v-160h32h39.3281zM264.096 263.968c4.76855 -4.76758 14.0166 -7.96777 43.3281 -7.96777c35.4561 0 90.4639 4.67188 92.4482 4.83203c5.43945 0.576172 9.63184 5.15234 9.75977 10.6562c0.0644531 5.50391 -4.06348 10.208 -9.50391 10.8799
c-38.4316 4.7998 -67.6797 11.4238 -67.6797 11.4238c-17.2158 3.87207 -34.2725 21.1523 -37.8887 38.3682c0 0 -7.23145 34.2402 -12.0635 68.1279l-0.736328 5.34375c-1.24805 8.38379 -18.2402 9.85645 -20.1279 -0.255859c-1.08789 -5.53613 0 0 -0.639648 -5.44043
c-7.58398 -68.0957 -6.52832 -126.304 3.10352 -135.968zM360.768 28.2236c40.8965 0 59.584 23.7764 59.6162 51.6807c0 22.5918 -11.2002 35.6797 -36.3838 42.5273c-17.5996 4.89648 -31.3281 13.8242 -31.3281 25.248c0 11.0723 12.4805 15.8398 23.9365 15.8398
c13.792 0 24.2236 -8.44727 30.3359 -11.584l7.83984 34.9121c-9.08789 4.54395 -21.1846 8.16016 -37.792 8.16016c-35.3281 0 -56.2559 -22.0801 -56.2559 -50.7197c0 -24 15.7754 -36.6396 39.4238 -42.9121c15.7754 -3.93555 28.6719 -13.7598 28.6719 -24.3838
c0 -11.8721 -12.9277 -16.9922 -25.792 -16.9922c-14.1436 0 -27.7764 8.86426 -36.3203 13.9199l-7.10352 -35.8076c7.87207 -4.7998 24.3516 -9.88867 41.1514 -9.88867z" />
    <glyph glyph-name="uniF11C" unicode="&#xf11c;" 
d="M512 -16c0 -26.4004 -21.5996 -48 -48 -48h-416c-26.4004 0 -48 21.5996 -48 48v160c0 26.4004 21.5996 48 48 48h416c26.4004 0 48 -21.5996 48 -48v-160zM83.4238 416l19.8721 -49.4404c3.80762 -9.31152 6.81641 -18.8154 8.32031 -28.8633h0.511719
c2.49609 14.5596 7.2959 25.0879 11.5518 35.6475l16.8965 42.6562h38.4961l-51.0723 -108.16v-83.8398h-32v83.8398l-51.0723 108.16h38.4961zM240.512 224c-41.6641 -0.736328 -48.7676 20.3838 -48.5117 69.5039c0.255859 48.4805 0.736328 79.584 48.5117 79.584
c46.9766 0 47.2002 -31.1035 47.4883 -79.584c0.223633 -49.1201 -6.55957 -70.2402 -47.4883 -69.5039zM223.648 321.12v-47.168c0 -17.3125 1.47168 -24.832 16.832 -24.832c14.5918 0 15.8076 7.51953 15.8076 24.832v47.168c0 13.3115 0 26.8799 -15.8076 26.8799
c-16.832 0 -16.832 -13.5684 -16.832 -26.8799zM384.48 224v24.8643h-0.480469c-5.02441 -16.7998 -16.4482 -24.6084 -32.3203 -24.8643c-25.8877 0 -31.6797 13.3115 -31.6797 36.8965v108.416h32v-96.8643c0 -6.27246 0.480469 -13.2803 4 -18.8164
c2.71973 -3.00781 5.75977 -4.51172 10.0479 -4.51172c15.3604 0 17.9521 17.3115 17.9521 28.3516v91.8408h32v-145.312h-31.5195zM32 132.384h32v-164.384h32v164.384h32v27.6162h-96v-27.6162zM193.984 -32h30.0156v145.312h-31.3916v-91.8721
c0 -16.4482 -1.85645 -28.3525 -16.6084 -28.3525c-15.4883 0 -16 17.0557 -16 23.3281v96.8643h-31.4238v-108.448c0 -23.5195 6.52734 -36.832 31.4238 -36.832c15.2637 0.255859 28.7041 8.06445 33.5361 24.832h0.479492v-24.832h-0.03125zM256 -32h32l2.08008 18.8164
h0.479492c7.04004 -14.0488 15.7129 -18.0801 28.8008 -18.8164c26.5596 0 31.9033 25.0879 32.6396 47.6797v51.2002c-0.704102 38.9121 -12.3516 49.7285 -32.6396 50.1758c-13.3447 0.256836 -21.792 -4.51172 -28.0645 -18.0479h-3.2959
c0.255859 6.78418 0 11.3281 0 15.8086v45.1836h-32v-192zM291.552 60.6396c-0.511719 11.2959 0 31.3604 14.7207 31.3604c14.752 0 13.3115 -13.3125 14.2393 -27.3604v-47.1992c-0.671875 -13.5684 -4.0957 -24.3525 -13.792 -24.3525
c-10.1436 0 -15.2002 8.76855 -15.2002 25.0879v42.4639h0.0322266zM384 27.4883c-0.704102 -41.6641 15.7119 -59.4883 51.9678 -59.4883c32.1924 0 45.248 20.0645 44.0322 51.6797h-31.9355c0.511719 -17.8232 -2.88086 -26.5918 -14.4648 -26.5918
c-9.47168 0 -16.2236 3.52051 -16.4795 22.0801v20.5762h62.8799v19.1035c0 38.6562 -4.63965 62.208 -48.3838 62.208c-30.9766 0 -49.0566 -19.0713 -47.6162 -52.4473v-37.1201zM417.12 60.8643v5.75977c0 12.7998 -0.704102 25.376 15.0078 25.376
c12.6084 0 16.1924 -4.54395 16.4482 -18.8477l-0.576172 -12.2881h-30.8799z" />
    <glyph glyph-name="uniF11D" unicode="&#xf11d;" 
d="M223.264 98.5918c5.79199 -6.39941 5.3125 -16.416 -1.12012 -22.1436l-148.512 -136.384c-6.36816 -5.82422 -16.3838 -5.3125 -22.1758 1.08789l-47.3916 52.3838c-5.79199 6.43164 -5.3125 16.416 1.08789 22.208l148.512 136.352
c6.40039 5.85645 16.3838 5.3125 22.1758 -1.08789zM502.24 214.464c-25.1523 -72.7676 -93.3125 -118.464 -166.24 -118.464c-19.0723 0 -38.4961 3.13574 -57.5361 9.75977c-91.8398 31.7441 -140.544 131.937 -108.704 223.776
c25.1523 72.7676 93.3125 118.464 166.24 118.464c19.0723 0 38.4961 -3.13574 57.5361 -9.72754c91.8398 -31.7764 140.512 -132 108.704 -223.809zM451.36 328.064c-15.0088 30.7832 -41.0244 53.9199 -73.4404 65.1191
c-13.6318 4.73633 -27.7441 7.10449 -41.9521 7.10449c-54.624 0 -103.328 -34.6885 -121.216 -86.3359c-11.2324 -32.3838 -9.12012 -67.2002 5.85645 -98.0166c15.0078 -30.8154 41.0557 -53.9512 73.4395 -65.1514c13.6318 -4.73633 27.7764 -7.10449 41.9521 -7.10449
c54.624 0 103.328 34.7207 121.216 86.3682c11.2324 32.3838 9.08789 67.2002 -5.85547 98.0166zM352 352v-64h64v-32h-64v-64h-32v64h-64v32h64v64h32z" />
    <glyph glyph-name="uniF11E" unicode="&#xf11e;" 
d="M223.264 98.5918c5.79199 -6.39941 5.3125 -16.416 -1.12012 -22.1436l-148.512 -136.384c-6.36816 -5.82422 -16.3838 -5.3125 -22.1758 1.08789l-47.3916 52.3838c-5.79199 6.43164 -5.3125 16.416 1.08789 22.208l148.512 136.352
c6.40039 5.85645 16.3838 5.3125 22.1758 -1.08789zM502.24 214.464c-25.1523 -72.7676 -93.3125 -118.464 -166.24 -118.464c-19.0723 0 -38.4961 3.13574 -57.5361 9.75977c-91.8398 31.7441 -140.544 131.937 -108.704 223.776
c25.1523 72.7676 93.3125 118.464 166.24 118.464c19.0723 0 38.4961 -3.13574 57.5361 -9.72754c91.8398 -31.7764 140.512 -132 108.704 -223.809zM451.36 328.064c-15.0088 30.7832 -41.0244 53.9199 -73.4404 65.1191
c-13.6318 4.73633 -27.7441 7.10449 -41.9521 7.10449c-54.624 0 -103.328 -34.6885 -121.216 -86.3359c-11.2324 -32.3838 -9.12012 -67.2002 5.85645 -98.0166c15.0078 -30.8154 41.0557 -53.9512 73.4395 -65.1514c13.6318 -4.73633 27.7764 -7.10449 41.9521 -7.10449
c54.624 0 103.328 34.7207 121.216 86.3682c11.2324 32.3838 9.08789 67.2002 -5.85547 98.0166zM268 248.992v46.0156h136v-46.0156h-136z" />
    <glyph glyph-name="uniF11F" unicode="&#xf11f;" 
d="M416 448c52.7998 0 96 -43.2002 96 -96v-192c0 -52.7998 -43.2002 -96 -96 -96h-160l-128 -128v128h-32c-52.7998 0 -96 43.2002 -96 96v192c0 52.7998 43.2002 96 96 96h320zM448 128v256h-384v-256h384zM144 288c-8.7998 0 -16 7.2002 -16 16s7.2002 16 16 16h224
c8.7998 0 16 -7.2002 16 -16s-7.2002 -16 -16 -16h-224zM144 192c-8.7998 0 -16 7.2002 -16 16s7.2002 16 16 16h224c8.7998 0 16 -7.2002 16 -16s-7.2002 -16 -16 -16h-224z" />
    <glyph glyph-name="uniF120" unicode="&#xf120;" 
d="M507.968 327.936l-268.256 -355.871c-2.6875 -2.68848 -6.17578 -4.06445 -9.69629 -4.06445c-3.51953 0 -7.07129 1.37598 -9.72754 4.06445l-184.256 186.495c-5.37598 5.44043 -5.37598 14.2402 -0.0322266 19.6807l88.2559 89.376
c2.5918 2.62402 6.08008 4.06348 9.75977 4.06348h0.288086c3.71191 -0.0634766 7.26465 -1.69531 9.79199 -4.47949l88.1924 -96.96l241.855 242.56c2.52832 2.14453 5.63281 3.2002 8.7041 3.2002c3.58398 0 7.16797 -1.37598 9.82422 -4.12793l16.1279 -61.1846
c1.44043 -7.4873 4.5127 -17.375 -0.832031 -22.752z" />
    <glyph glyph-name="uniF121" unicode="&#xf121;" 
d="M272 416c132.32 0 240 -107.68 240 -240s-107.68 -240 -240 -240s-240 107.68 -240 240s107.68 240 240 240zM405.696 210.272c12.416 12.4473 24.8955 27.3916 24.0957 29.5674s-10.7197 13.376 -22.0479 24.8965c-11.3604 11.5195 -22.1758 21.9834 -24.1279 23.2637
h-2.0166h-1.75977c-1.79199 -0.992188 -14.2715 -10.9756 -27.8398 -22.208l-83.04 -68.8955c-13.5684 -11.2646 -34.3682 -9.85645 -46.3037 3.10352l-2.87988 3.13574c-11.9365 12.9287 -23.2324 24.6406 -25.1201 25.9844l-2.08008 0.0634766h-0.192383h-2.01562
c-1.8877 -1.24805 -13.6318 -12.4473 -26.0801 -24.8955l-33.9844 -33.9844l-3.04004 -3.04004c1.66406 -4.35156 13.2168 -18.1113 25.6963 -30.5273l61.4717 -61.4404c12.416 -12.416 24.1279 -23.6475 26.0166 -24.8955h2.04785h2.04785
c1.8877 1.24805 13.6318 12.4473 26.0801 24.8955z" />
    <glyph glyph-name="uniF122" unicode="&#xf122;" 
d="M448 384c35.2002 0 64 -28.7998 64 -64v-256c0 -35.2002 -28.7998 -64 -64 -64h-384c-35.2002 0 -64 28.7998 -64 64v256c0 35.2002 28.7998 64 64 64h384zM176 320c-26.5283 0 -48 -21.5039 -48 -48s21.4717 -48 48 -48s48 21.5039 48 48s-21.4717 48 -48 48z
M176 64.1924c52.7676 -0.448242 112 -3.74414 112 47.2314c0 53.1523 -37.4082 93.3125 -63.4238 93.3125c-25.4082 0 -24.4482 -49.8887 -48.5762 -49.8887c-24.1924 0 -23.2002 49.8887 -48.5762 49.8887c-26.0479 0 -63.4238 -40.1924 -63.4238 -93.3125
c0 -50.9756 59.2002 -47.6797 112 -47.2314zM432 256c8.7998 0 16 7.2002 16 16s-7.2002 16 -16 16h-96c-8.7998 0 -16 -7.2002 -16 -16s7.2002 -16 16 -16h96z" />
    <glyph glyph-name="uniF123" unicode="&#xf123;" 
d="M489.376 214.624c12.4482 -12.4482 22.624 -37.0244 22.624 -54.624v-192c0 -17.5996 -14.4004 -32 -32 -32h-224c-17.5996 0 -32 14.4004 -32 32v288c0 17.5996 14.4004 32 32 32h128c17.5996 0 42.1758 -10.1758 54.624 -22.624zM485.504 157.248
c4.0957 0.416016 7.23242 3.83984 7.2959 8c0.0322266 4.16016 -3.04004 7.64844 -7.13574 8.19238c-28.7998 3.61523 -69.1201 10.0156 -74.1758 13.8555c-3.9043 4.67188 -10.4004 49.1523 -14.0166 74.5605c-0.607422 4.03125 -4 7.00781 -8.06348 7.00781h-0.12793
c-4.06445 -0.0966797 -7.45605 -3.2002 -7.93652 -7.26465c-5.69531 -51.0713 -4.92773 -94.752 2.33594 -101.983c3.61621 -3.61621 10.4961 -6.0166 32.5127 -6.0166c26.5918 0 67.8076 3.48828 69.3115 3.64844zM192 96h-128c-17.5996 0 -32 14.4004 -32 32v288
c0 17.5996 14.4004 32 32 32h128c17.5996 0 42.1758 -10.1758 54.624 -22.624l50.752 -50.752c12.4482 -12.4482 22.624 -37.0244 22.624 -54.624h-21.248c1.21582 1.4082 2.01562 3.23242 2.04785 5.21582c0.0322266 4.16016 -3.04004 7.64844 -7.13574 8.19238
c-28.7998 3.58398 -69.1201 9.9834 -74.1758 13.8555c-3.9043 4.67188 -10.4004 49.1523 -14.0166 74.5605c-0.607422 4.03223 -4 6.97559 -8.06348 6.97559h-0.12793c-4.06445 -0.0957031 -7.45605 -3.2002 -7.93652 -7.26367
c-5.69531 -51.04 -4.89551 -94.7197 2.33594 -101.952c2.75195 -2.75195 7.61621 -4.76758 19.6162 -5.59961c-11.2959 -6.65625 -19.2959 -18.1445 -19.2959 -31.8086v-186.176z" />
    <glyph glyph-name="uniF124" unicode="&#xf124;" 
d="M305.472 12.1279c0.0322266 -2.91211 -1.15137 -5.75977 -3.23145 -7.87207c-2.04785 -2.1123 -4.83203 -3.2959 -7.83984 -3.2959l-76.7686 0.0322266c-3.04004 -0.0322266 -5.82422 1.15137 -7.87207 3.26367c-2.14355 2.1123 -3.2959 4.83203 -3.26367 7.87207
v130.368h-130.336c-3.04004 0 -5.82422 1.12012 -7.9043 3.26367c-2.1123 2.04785 -3.32812 4.86426 -3.26367 7.87207l-0.0644531 76.7363c0 3.00781 1.21582 5.82422 3.32812 7.87207c2.08008 2.11133 4.86426 3.2959 7.87207 3.2959h130.336v130.368
c0 2.97559 1.15234 5.75977 3.2959 7.87207c2.04785 2.04785 4.7998 3.23145 7.80859 3.23145h76.832c2.94336 0 5.72754 -1.18359 7.77539 -3.23145c2.14453 -2.1123 3.2959 -4.89648 3.32812 -7.9043v-130.304h130.4c2.94336 -0.0322266 5.72754 -1.18457 7.80762 -3.2959
c2.1123 -2.1123 3.2959 -4.89648 3.2959 -7.87207v-76.8008c-0.0322266 -6.11133 -5.05566 -11.1035 -11.168 -11.1035h-130.368v-130.368z" />
    <glyph glyph-name="uniF125" unicode="&#xf125;" 
d="M307.424 256c-29.3115 0 -38.5596 3.2002 -43.3281 7.96777c-9.63184 9.66406 -10.6875 67.8721 -3.10352 135.968c0.639648 5.44043 -0.416016 -0.0957031 0.639648 5.44043c1.8877 10.1123 18.8799 8.63965 20.1279 0.255859l0.736328 -5.34375
c4.7998 -33.8877 12.0635 -68.1279 12.0635 -68.1279c3.61621 -17.2158 20.7041 -34.4961 37.8887 -38.3682c0 0 29.248 -6.62402 67.6797 -11.4238c5.44043 -0.671875 9.56836 -5.37598 9.50391 -10.8799c-0.12793 -5.50391 -4.31934 -10.0801 -9.75977 -10.6562
c-2.01562 -0.160156 -57.0244 -4.83203 -92.4482 -4.83203zM425.376 342.624c12.4482 -12.4482 22.624 -37.0244 22.624 -54.624v-320c0 -17.5996 -14.4316 -32 -32 -32h-320c-17.5996 0 -32 14.4004 -32 32v448c0 17.5996 14.4004 32 32 32h192
c17.5684 0 42.1758 -10.1758 54.624 -22.624zM260.992 399.936c-7.58398 -68.0957 -6.52832 -126.304 3.10352 -135.968c4.76855 -4.76758 14.0166 -7.96777 43.3281 -7.96777c35.4561 0 90.4639 4.67188 92.4482 4.83203c5.43945 0.576172 9.63184 5.15234 9.75977 10.6562
c0.0644531 5.50391 -4.06348 10.208 -9.50391 10.8799c-38.4316 4.7998 -67.6797 11.4238 -67.6797 11.4238c-17.2158 3.87207 -34.2725 21.1523 -37.8887 38.3682c0 0 -7.23145 34.2402 -12.0635 68.1279l-0.736328 5.34375
c-1.24805 8.38379 -18.2402 9.85645 -20.1279 -0.255859c-1.08789 -5.53613 0 0 -0.639648 -5.44043zM159.84 62.624c-22.3682 0 -42.4961 21.0879 -42.5283 49.2803c0 31.584 23.2002 49.2793 41.8242 49.2793c9.72852 0 17.3125 -6.39941 22.5605 -9.15137
l6.30371 33.0234c-5.02441 3.23242 -16.416 6.68848 -30.3037 6.68848c-36.2881 0 -67.6807 -27.9365 -67.6807 -82.6562c0 -41.2803 20.0322 -77.5361 65.5361 -77.5361c14.4326 0 25.9844 3.45605 30.4961 6.43262l-4.51172 32.5752
c-5.05566 -2.52734 -13.8877 -7.93555 -21.6963 -7.93555zM245.824 28.2236c40.8633 0 62.1758 23.7764 62.1758 51.6807c0 30.1113 -10.8164 39.3916 -36 48.0957c-17.5996 6.27246 -34.3037 8.25586 -34.3037 19.6797c0 11.0723 12.4795 11.8721 23.9355 11.8721
c13.8242 0 25.4082 -4.47949 31.6484 -7.61621l8.19141 34.8809c-9.40723 4.54395 -22.8799 8.15918 -39.4873 8.15918c-35.3281 0 -58.7842 -22.0791 -58.7842 -50.7197c0 -36.2881 15.1357 -41.2803 38.7842 -49.2803c15.8076 -5.02344 31.8721 -7.35938 31.8721 -17.9834
c0 -11.8721 -12.9287 -13.0566 -25.792 -13.0566c-14.1123 0 -29.1201 4.92871 -37.9844 9.98438l-7.36035 -35.8076c8.19238 -4.7998 26.3047 -9.88867 43.1045 -9.88867zM384 32c0 0 32 55.3281 32 160h-32c0 -77.3438 -16 -123.328 -16 -123.328s-16 45.9844 -16 123.328
h-32c0 -104.672 32 -160 32 -160h32z" />
    <glyph glyph-name="uniF126" unicode="&#xf126;" 
d="M230.592 440.768c0 4.22461 2.52832 7.23242 8.86426 7.23242h32.96c6.36816 0 7.61621 -4.22363 7.61621 -7.87207v-52.6084c27.2959 -1.82324 65.9521 -5.43945 92.5762 -15.7432c13.9834 -4.83203 13.9834 -10.3047 12.6719 -18.1445l-5.69629 -22.9756
c-1.91992 -9.69629 -6.33594 -11.5205 -18.3682 -10.3047c-27.9043 3.64844 -65.3115 7.9043 -102.688 7.9043c-53.2803 0 -72.2568 -15.168 -72.2568 -47.8398c0 -38.1436 20.2881 -42.9756 74.7842 -52.6719c72.9287 -12.7041 139.488 -27.8398 139.488 -117.408
c0 -76.8643 -53.248 -101.216 -120.479 -108.512v-58.5605c-0.0322266 -3.04004 -1.28027 -7.26367 -7.64844 -7.26367h-32.96c-6.33594 0 -8.86426 3.00781 -8.86426 6.65625v57.3438c-33.6318 1.82422 -77.9834 6.6875 -104.64 16.9277
c-13.9521 4.86426 -14.5918 10.3047 -12.6719 18.1758l5.05566 24.1924c2.55957 9.05566 6.33594 10.3037 17.1201 9.05566c32.96 -3.58398 83.04 -8.44727 111.584 -8.44727c54.5283 0 80.5117 11.0078 80.5117 44.9277c0 42.3359 -17.792 52.6396 -74.1758 62.3037
c-74.1758 13.376 -140.064 29.6963 -140.064 110.816c0 67.2002 43.1045 102.336 117.312 108.96v53.8555h-0.0322266z" />
    <glyph glyph-name="uniF127" unicode="&#xf127;" 
d="M272 416c132.352 0 240 -107.648 240 -240c0 -76.1279 -35.7119 -143.936 -91.2002 -187.936c-37.792 38.7832 -90.4316 61.5996 -148.8 61.5996c-58.3037 0 -110.976 -22.8164 -148.8 -61.5996c-55.4561 44 -91.2002 111.808 -91.2002 187.936
c0 132.352 107.68 240 240 240zM323.2 356.416c-4.57617 -11.1035 0.735352 -23.8076 11.8076 -28.3838c2.62402 -1.08789 5.37598 -1.69629 8.25586 -1.69629c8.83203 0 16.7686 5.28027 20.1279 13.4404c2.20801 5.37598 2.17676 11.2637 -0.03125 16.6719
c-2.20801 5.31152 -6.36816 9.50391 -11.7119 11.7119c-2.68848 1.08789 -5.44043 1.66406 -8.32031 1.66406c-8.7998 0 -16.7686 -5.24805 -20.1279 -13.4082zM79.8398 255.584c-4.54395 -11.04 0.736328 -23.8076 11.7764 -28.3516
c2.62402 -1.08887 5.4082 -1.66406 8.25586 -1.66406c8.86426 0 16.7676 5.24805 20.1279 13.376c2.20801 5.34375 2.17578 11.2637 0 16.6719c-2.24023 5.37598 -6.43164 9.56738 -11.7441 11.7119c-2.62402 1.08789 -5.43945 1.69629 -8.28809 1.69629
c-8.83203 0 -16.7354 -5.28027 -20.1279 -13.4404zM64 176c0 -11.9678 9.79199 -21.7275 21.7598 -21.7275c12 0 21.7598 9.75977 21.7598 21.7275c0 12 -9.75977 21.7598 -21.7598 21.7598c-11.9678 0 -21.7598 -9.75977 -21.7598 -21.7598zM120 96.416
c2.17578 5.4082 2.20801 11.2959 0 16.6084c-3.3916 8.15918 -11.2637 13.4072 -20.1279 13.4072c-2.81641 0 -5.63184 -0.543945 -8.25586 -1.63184c-9.02441 -3.74414 -13.8564 -12.8643 -12.9922 -22.1436c0 -2.08008 0.383789 -4.22461 1.21582 -6.24023
c0.0322266 -0.0957031 0.0957031 -0.12793 0.160156 -0.223633c3.42383 -8 11.2637 -13.1846 19.9678 -13.1846c2.84863 0 5.66406 0.576172 8.28809 1.66406c5.3125 2.17578 9.50391 6.36816 11.7441 11.7441zM155.648 292.384c8.47949 8.38379 8.51172 22.208 0 30.7197
c-4.06445 4.06445 -9.50488 6.30469 -15.3281 6.30469c-4.44824 0 -8.44824 -1.66406 -12 -4.0957c-1.15234 -0.640625 -2.36816 -1.2168 -3.39258 -2.20898c-1.53613 -1.56738 -2.71973 -3.35938 -3.4873 -5.31152c-4.38477 -8.22363 -3.4248 -18.5283 3.51953 -25.376
c4.06445 -4.12793 9.56836 -6.40039 15.3604 -6.40039s11.2314 2.27246 15.3281 6.36816zM209.056 328.032c11.0723 4.57617 16.3203 17.2803 11.7441 28.3838c-3.3916 8.16016 -11.2637 13.4082 -20.0957 13.4082c-2.84766 0 -5.66406 -0.576172 -8.28809 -1.66406
c-5.37598 -2.20801 -9.50391 -6.40039 -11.7441 -11.7119c-2.24023 -5.4082 -2.24023 -11.2959 -0.0322266 -16.6406c3.39258 -8.19141 11.2959 -13.4717 20.1279 -13.4717c2.84863 0 5.63281 0.608398 8.28809 1.69629zM272 384
c-11.9355 0 -21.7275 -9.75977 -21.7275 -21.7275c0 -11.9688 9.79199 -21.7607 21.7275 -21.7607c12 0 21.7598 9.79199 21.7598 21.7607c0 11.9678 -9.75977 21.7275 -21.7598 21.7275zM393.952 259.712c5.05566 7.2002 3.36035 17.248 -3.83984 22.3037
c-7.16797 5.05664 -17.2158 3.36035 -22.2725 -3.83984l-110.752 -156.832c-5.08789 -7.16797 -3.3916 -17.2158 3.80859 -22.3037v0c7.16797 -5.05566 17.2471 -3.36035 22.3037 3.83984zM419.072 292.384c6.91211 6.84863 7.87207 17.1846 3.55176 25.4082
c-0.767578 1.95215 -1.91992 3.74414 -3.48828 5.31152c-0.479492 0.448242 -1.08789 0.640625 -1.63184 1.05664c-3.9043 3.23145 -8.60742 5.24805 -13.7598 5.24805c-5.75977 0 -11.2324 -2.24023 -15.3281 -6.33594c-8.51172 -8.48047 -8.51172 -22.2725 0 -30.6562
c4.03223 -4.12793 9.50391 -6.40039 15.3281 -6.40039s11.2637 2.27246 15.3281 6.36816zM424.064 255.616c-2.24023 -5.4082 -2.24023 -11.2959 -0.0644531 -16.6406c3.42383 -8.15918 11.3281 -13.4072 20.1602 -13.4072c2.84766 0 5.59961 0.575195 8.25586 1.66406
c9.02441 3.71191 13.8242 12.8633 12.96 22.1436c0.0322266 2.04785 -0.351562 4.19238 -1.18359 6.20801v0.0322266c-3.39258 8.12793 -11.3281 13.4082 -20.1279 13.4082c-2.88086 0 -5.63281 -0.608398 -8.25684 -1.69629
c-5.34375 -2.14453 -9.53516 -6.33594 -11.7432 -11.7119zM464.192 96.416c0.832031 2.01562 1.24805 4.16016 1.18359 6.24023c0.927734 9.2793 -3.93555 18.4316 -12.96 22.1758c-2.62402 1.08789 -5.4082 1.63184 -8.25586 1.63184
c-8.83203 0 -16.7686 -5.24805 -20.1279 -13.376c-2.20801 -5.34375 -2.20801 -11.2637 0.0322266 -16.6719c2.20801 -5.37598 6.39941 -9.56836 11.7119 -11.7441c2.65527 -1.08789 5.40723 -1.66406 8.28809 -1.66406c8.70312 0 16.5117 5.18457 19.9355 13.1523
c0.0644531 0.0957031 0.12793 0.160156 0.192383 0.255859zM458.272 154.272c11.9678 0 21.7275 9.75977 21.7275 21.7275c0 12 -9.75977 21.7598 -21.7275 21.7598c-11.9688 0 -21.7285 -9.75977 -21.7285 -21.7598c0 -11.9678 9.75977 -21.7275 21.7285 -21.7275z" />
    <glyph glyph-name="uniF128" unicode="&#xf128;" 
d="M256 32c123.712 0 224 35.8076 224 80v-96c0 -44.1924 -100.288 -80 -224 -80s-224 35.8076 -224 80v96c0 -44.1924 100.288 -80 224 -80zM256 160c123.712 0 224 35.8076 224 80v-96c0 -44.1924 -100.288 -80 -224 -80s-224 35.8076 -224 80v96
c0 -44.1924 100.288 -80 224 -80zM256 416c123.712 0 224 -35.8076 224 -80v-64c0 -44.1924 -100.288 -80 -224 -80s-224 35.8076 -224 80v64c0 44.1924 100.288 80 224 80zM256 288c106.048 0 192 21.4717 192 48s-85.9521 48 -192 48s-192 -21.4717 -192 -48
s85.9521 -48 192 -48z" />
    <glyph glyph-name="uniF129" unicode="&#xf129;" 
d="M381.44 120.672c1.63184 -1.56836 2.52734 -3.77539 2.55957 -6.04785c0 -2.27246 -0.864258 -4.48047 -2.55957 -6.08008l-41.9844 -41.9844c-1.59961 -1.69531 -3.77637 -2.55957 -6.08008 -2.55957s-4.41602 0.864258 -6.04785 2.55957l-71.3281 71.3281
l-71.2959 -71.3281c-1.63184 -1.69531 -3.77637 -2.55957 -6.08008 -2.55957s-4.44824 0.864258 -6.1123 2.55957l-41.9834 41.9844c-1.63184 1.59961 -2.52832 3.80762 -2.52832 6.08008s0.896484 4.47949 2.52832 6.08008l71.2959 71.2959l-71.2959 71.3281
c-1.63184 1.59961 -2.52832 3.77539 -2.52832 6.08008c0 2.27148 0.896484 4.44824 2.52832 6.04785l41.9834 42.0156c1.66406 1.63184 3.77637 2.49609 6.08008 2.49609c2.30469 0 4.44824 -0.864258 6.08008 -2.49609l71.3281 -71.2959l71.2959 71.2959
c1.60059 1.63184 3.77637 2.52832 6.08008 2.52832c2.27246 0 4.44824 -0.896484 6.08008 -2.52832l41.9844 -41.9834c3.32715 -3.39258 3.32715 -8.86426 0 -12.1924l-71.3281 -71.2959z" />
    <glyph glyph-name="uniF12A" unicode="&#xf12a;" 
d="M506.816 399.648c3.2959 -3.29688 5.18359 -7.9043 5.18359 -12.5762v-433.408c0 -9.75977 -7.77637 -17.6641 -17.376 -17.6641h-477.28c-9.56738 0 -17.3438 7.9043 -17.3438 17.6641v476.672c0 9.75977 7.77637 17.6641 17.3438 17.6641h430.656
c4.57617 0 8.86426 -1.79199 12.1602 -5.02441zM256 377.728v-115.52c0 -3.45605 3.04004 -6.20801 6.75195 -6.20801h50.4961c3.71191 0 6.75195 2.75195 6.75195 6.24023v115.487c0 3.45605 -3.04004 6.27246 -6.75195 6.27246h-50.4961
c-3.71191 0 -6.75195 -2.81641 -6.75195 -6.27246zM448 9.56836v353.664c0 5.2793 -24.3838 20.7676 -29.5684 20.7676h-34.4316v-142.624c0 -9.59961 -7.71191 -17.376 -17.1836 -17.376h-253.633c-9.47168 0 -17.1836 7.77637 -17.1836 17.376v142.624h-22.5596
c-5.2168 0 -9.44043 -4.28809 -9.44043 -9.56836v-364.863c0 -5.28027 4.22363 -9.56836 9.44043 -9.56836h365.119c5.24805 0 9.44043 4.28809 9.44043 9.56836z" />
    <glyph glyph-name="uniF12B" unicode="&#xf12b;" 
d="M425.376 342.624c12.4482 -12.4482 22.624 -37.0244 22.624 -54.624v-320c0 -17.5996 -14.4004 -32 -32 -32h-320c-17.5996 0 -32 14.4004 -32 32v448c0 17.5996 14.4004 32 32 32h192c17.5996 0 42.1758 -10.1758 54.624 -22.624zM384 96v64h-96v96h-64v-96h-96v-64h96
v-96h64v96h96z" />
    <glyph glyph-name="uniF12C" unicode="&#xf12c;" 
d="M457.376 342.624c12.4482 -12.4482 22.624 -37.0244 22.624 -54.624v-320c0 -17.5996 -14.4004 -32 -32 -32h-352c-17.5996 0 -32 14.4004 -32 32v448c0 17.5996 14.4004 32 32 32h224c17.5996 0 42.1758 -10.1758 54.624 -22.624zM330.24 379.328
c-2.30469 1.79199 -8.48047 4.35156 -10.2402 4.67188v0v-0.0957031v-63.9043c0 -17.5996 14.4004 -32 32 -32h62.7197c0.352539 0 0.640625 -0.0957031 0.992188 -0.0957031c-0.639648 3.13574 -2.6875 8.16016 -3.58398 9.47168zM128 0h288l0.0644531 256.128
c-0.512695 0 -0.896484 -0.12793 -1.37695 -0.12793h-94.6875c-17.5996 0 -32 14.4004 -32 32v95.9043v0.0957031h-160v-384z" />
    <glyph glyph-name="uniF12D" unicode="&#xf12d;" 
d="M425.376 342.624c12.4482 -12.4482 22.624 -37.0244 22.624 -54.624v-320c0 -17.5996 -14.4004 -32 -32 -32h-320c-17.5996 0 -32 14.4004 -32 32v448c0 17.5996 14.4004 32 32 32h192c17.5996 0 42.1758 -10.1758 54.624 -22.624zM383.008 54.1123l-74.4316 74.3994
l11.2959 11.2959l63.1357 65.7285l-53.1201 50.4639l-74.3994 -74.4316l-11.3281 11.3281l-65.6641 63.1035l-50.4961 -53.0879l74.4316 -74.4004l-11.3281 -11.3281l-63.1035 -65.6953l53.0879 -50.4639l74.4004 74.3994l74.3994 -74.3994
c0.448242 -0.416016 0.959961 -0.543945 1.3125 -0.543945l1.31152 0.543945z" />
    <glyph glyph-name="uniF12E" unicode="&#xf12e;" 
d="M384 112.32v-129.792c0 -25.5684 -19.2002 -46.5283 -42.6875 -46.5283h-298.656c-23.4561 0 -42.6562 20.96 -42.6562 46.5283v418.943c0 25.5684 19.2002 46.5283 42.6562 46.5283h170.655c18.8164 0 43.2324 -9.66406 60.8643 -22.752
c-31.0723 -31.6797 -78.0801 -79.7441 -149.92 -153.184l-3.32812 -3.39258c-9.34375 -9.18359 -16 -20.7998 -19.5518 -34.4961l-35.2637 -143.84c-6.0166 -24.5439 1.2793 -50.9121 18.1436 -67.8721c13.6318 -14.2715 32.7686 -22.4639 52.4805 -22.4639
c5.34375 0 12.7998 0.959961 17.9834 2.27246l140.769 36.0957c12.832 3.32812 24.6074 10.1436 34.0479 19.9043l11.8398 12.3193zM512 346.432c0.12793 -11.8721 -4.25586 -22.9434 -12.3203 -31.2314l-203.04 -198.88l-13.1201 -13.6006
c-1.11914 -1.15137 -2.52734 -1.9834 -4.0957 -2.39941l-140.576 -36.0322c-0.671875 -0.192383 -1.40723 -0.288086 -2.11133 -0.288086c-2.27246 0 -4.54395 0.896484 -6.17676 2.62402c-2.17578 2.17578 -3.04004 5.4082 -2.30371 8.47949l35.2637 143.841
c0.416016 1.56738 1.2168 3.04004 2.33691 4.15918l4.06348 4.16016s203.776 208.288 203.872 208.353c7.96777 7.96777 18.5918 12.3838 29.8877 12.3838c11.6807 0 22.752 -4.67188 31.1045 -13.2158l64.3193 -57.0879
c8.22461 -8.35254 12.7686 -19.4561 12.8965 -31.2646zM236.896 133.024l-40.4482 41.3115c-1.21582 1.21582 -2.84863 1.91992 -4.5127 1.91992c-0.607422 0 -1.15137 -0.0634766 -1.72754 -0.223633c-2.20801 -0.671875 -3.93555 -2.43262 -4.48047 -4.7041
l-9.50391 -38.752c-0.575195 -2.17578 0.0322266 -4.48047 1.56836 -6.08008l11.5195 -12.4482c1.28027 -1.34375 2.91211 -2.04785 4.67285 -2.04785c0.543945 0 1.05566 0.0644531 1.56738 0.223633l38.4004 9.82422c2.24023 0.576172 4 2.30371 4.60742 4.64062
c0.608398 2.23926 -0.03125 4.63965 -1.66309 6.33594zM449.504 353.472l-31.2637 31.9365c-1.63184 1.66406 -3.87207 2.5918 -6.17578 2.5918c-2.30469 0 -4.54492 -0.927734 -6.14453 -2.5918l-23.3281 -22.2402c-1.63184 -1.66406 -2.52734 -3.9043 -2.52734 -6.27148
c0 -2.36816 0.895508 -4.64062 2.52734 -6.30469l31.2646 -31.9355c1.72754 -1.75977 3.93555 -2.62402 6.17578 -2.62402c2.20801 0 4.47949 0.864258 6.17578 2.62402l23.3281 22.208c3.32812 3.45605 3.32812 9.12012 -0.0322266 12.6074z" />
    <glyph glyph-name="uniF12F" unicode="&#xf12f;" 
d="M365.376 -48c17.1836 0 35.6797 7.80762 48.2881 20.416l2.33594 2.33594v-6.75195c0 -17.5996 -14.4004 -32 -32 -32h-320c-17.5996 0 -32 14.4004 -32 32v448c0 17.5996 14.4004 32 32 32h192c17.5996 0 42.1758 -10.1758 54.624 -22.624l82.752 -82.752
c5.50391 -5.53613 10.4004 -13.5684 14.3682 -22.208c-10.6885 8.25586 -25.6963 15.584 -42.3682 15.584c-30.8799 0 -56 -25.1201 -56 -56v-40h-37.376c-35.2959 0 -64 -28.7041 -64 -64v-64c0 -35.3281 28.7041 -64 64 -64h37.376v-40c0 -30.8799 25.1201 -56 56 -56z
M508.256 153.12c4.99219 -4.99219 4.99219 -13.2158 -0.0322266 -18.2725l-31.7432 -31.7441l-67.8086 -67.8076l-28.96 -28.96c-3.45605 -3.45605 -9.95215 -6.33594 -14.3359 -6.33594c-4.41602 0 -8 3.58398 -8 8v80c0 4.41602 -3.61621 8 -8 8h-77.376
c-8.7998 0 -16 7.2002 -16 16v64c0 8.7998 7.2002 16 16 16h77.376c4.38379 0 8 3.58398 8 8v80c0 4.41602 3.58398 8 8 8c4.38379 0 11.2959 -3.2959 15.2959 -7.2959l95.8398 -95.8398z" />
    <glyph glyph-name="uniF130" unicode="&#xf130;" 
d="M457.376 342.624c12.4482 -12.4482 22.624 -37.0244 22.624 -54.624v-320c0 -17.5996 -14.4004 -32 -32 -32h-320c-12.0322 0 -22.208 7.00781 -27.6797 16.8965c2.94336 -0.448242 5.91992 -0.896484 9.02344 -0.896484c17.2158 0 35.7441 7.80762 48.2881 20.3838
l128.576 128.608c11.4883 11.4883 17.792 26.752 17.792 43.0078c0 16.3203 -6.30371 31.6162 -17.8242 43.04l-127.584 127.616c-10.3359 10.3037 -28.6719 21.3438 -49.248 21.3438c-4.60742 0 -9.05566 -0.736328 -13.3438 -1.79199v81.792c0 17.5996 14.4004 32 32 32
h192c17.5996 0 42.1758 -10.1758 54.624 -22.624zM101.344 8h0.0322266v80c0 4.41602 -3.58398 8 -8 8h-77.376c-8.7998 0 -16 7.2002 -16 16v64c0 8.7998 7.2002 16 16 16h77.3438c4.41602 0 8 3.58398 8 8v80c0 4.41602 3.61621 8 8 8
c4.41602 0 11.3281 -3.2959 15.3281 -7.2959l95.8398 -95.8398c12.416 -12.416 26.7207 -26.752 31.7119 -31.7764c5.02441 -4.99219 5.02441 -13.2158 0 -18.2402l-31.7432 -31.7441l-67.8086 -67.8076l-28.96 -28.96
c-3.48828 -3.45605 -9.95215 -6.33594 -14.3682 -6.33594c-4.38379 0 -8 3.58398 -8 8z" />
    <glyph glyph-name="uniF131" unicode="&#xf131;" 
d="M425.376 342.624c12.4482 -12.4482 22.624 -37.0244 22.624 -54.624v-320c0 -17.5996 -14.4004 -32 -32 -32h-320c-17.5996 0 -32 14.4004 -32 32v448c0 17.5996 14.4004 32 32 32h192c17.5996 0 42.1758 -10.1758 54.624 -22.624zM384 96v64h-256v-64h256z" />
    <glyph glyph-name="uniF132" unicode="&#xf132;" 
d="M425.376 342.624c12.4482 -12.4482 22.624 -37.0244 22.624 -54.624v-320c0 -17.5996 -14.4004 -32 -32 -32h-320c-17.5996 0 -32 14.4004 -32 32v448c0 17.5996 14.4004 32 32 32h192c17.5996 0 42.1758 -10.1758 54.624 -22.624zM368 0c8.7998 0 16 7.2002 16 16
s-7.2002 16 -16 16h-224c-8.7998 0 -16 -7.2002 -16 -16s7.2002 -16 16 -16h224zM368 64c8.7998 0 16 7.2002 16 16s-7.2002 16 -16 16h-224c-8.7998 0 -16 -7.2002 -16 -16s7.2002 -16 16 -16h224zM368 128c8.7998 0 16 7.2002 16 16s-7.2002 16 -16 16h-224
c-8.7998 0 -16 -7.2002 -16 -16s7.2002 -16 16 -16h224zM368 192c8.7998 0 16 7.2002 16 16s-7.2002 16 -16 16h-224c-8.7998 0 -16 -7.2002 -16 -16s7.2002 -16 16 -16h224zM399.872 260.832c5.44043 0.576172 9.63184 5.15234 9.75977 10.6562
c0.0644531 5.50391 -4.06348 10.208 -9.50391 10.8799c-38.4316 4.7998 -67.6797 11.4238 -67.6797 11.4238c-17.2158 3.87207 -34.2402 21.1523 -37.8887 38.3682c0 0 -7.23145 34.2402 -12.0957 68.1279l-0.767578 5.34375
c-5.44043 2.17578 -9.95215 3.96777 -10.0166 3.96777c-0.0634766 0 -4.57617 -1.91992 -10.0479 -4.22363l-0.639648 -5.44043c-7.58398 -68.0957 -6.52832 -126.304 3.10352 -135.968c4.80078 -4.76758 14.0166 -7.96777 43.3281 -7.96777
c35.4561 0 90.4639 4.67188 92.4482 4.83203z" />
    <glyph glyph-name="uniF133" unicode="&#xf133;" 
d="M425.376 342.624c12.4482 -12.4482 22.624 -37.0244 22.624 -54.624v-320c0 -17.5996 -14.4004 -32 -32 -32h-320c-17.5996 0 -32 14.4004 -32 32v448c0 17.5996 14.4004 32 32 32h192c17.5996 0 42.1758 -10.1758 54.624 -22.624zM399.872 260.832
c5.44043 0.576172 9.63184 5.15234 9.75977 10.6562c0.0644531 5.50391 -4.06348 10.208 -9.50391 10.8799c-38.4316 4.7998 -67.6797 11.4238 -67.6797 11.4238c-17.2158 3.87207 -34.2402 21.1523 -37.8887 38.3682c0 0 -7.23145 34.2402 -12.0635 68.1279
l-0.767578 5.34375c-1.2168 8.38379 -18.209 9.85645 -20.0967 -0.255859c-1.05566 -5.53613 0 0 -0.639648 -5.44043c-7.58398 -68.0957 -6.52832 -126.304 3.10352 -135.968c4.80078 -4.76758 14.0166 -7.96777 43.3281 -7.96777
c35.4561 0 90.4639 4.67188 92.4482 4.83203z" />
    <glyph glyph-name="uniF134" unicode="&#xf134;" 
d="M101.28 233.472c-12.5127 12.3848 -25.9844 25.792 -29.9844 29.792s-7.2959 10.9121 -7.2959 15.2959c0 4.41602 3.58398 8.03223 8 8h112c4.41602 0 8 3.61621 8 8v137.44c0 8.7998 7.2002 16 16 16h128c8.7998 0 16 -7.2002 16 -16v-137.44
c0 -4.41602 3.58398 -8 8 -8h112c4.41602 0 8 -3.58398 8 -8c0 -4.38379 -2.91211 -10.8477 -6.36816 -14.3359c-3.45605 -3.4873 -16.5439 -16.4795 -29.0557 -28.8633l-131.616 -130.561c-12.5117 -12.3838 -26.8164 -26.6562 -31.8398 -31.6475
c-5.02441 -4.99219 -13.248 -4.99219 -18.2402 0c-5.02344 4.99121 -19.3281 19.2314 -31.8398 31.6152zM502.624 54.624c12.5117 -12.5117 12.5117 -32.7363 0 -45.248l-64 -64c-5.98438 -6.01562 -14.1123 -9.37598 -22.624 -9.37598h-288
c-8.48047 0 -16.6396 3.36035 -22.624 9.37598l-64 64c-12.5117 12.5117 -12.5117 32.7363 0 45.248s32.7363 12.5117 45.248 0l54.624 -54.624h261.504l54.624 54.624c12.5117 12.5117 32.7363 12.5117 45.248 0z" />
    <glyph glyph-name="uniF135" unicode="&#xf135;" 
d="M480 384c17.5996 0 32 -15.2637 32 -33.8877v-316.225c0 -18.624 -14.4004 -33.8877 -32 -33.8877h-448c-17.5996 0 -32 15.2637 -32 33.8564v316.256c0 18.624 14.4004 33.8877 32 33.8877h448zM147.648 120.256c7.00781 7.67969 6.7832 19.9043 -0.480469 27.2959
c-7.23242 7.39258 -18.8164 7.16797 -25.792 -0.511719l-80.7041 -88.6719c-6.97559 -7.68066 -6.78418 -19.9043 0.480469 -27.2959c3.55176 -3.58398 8.0957 -5.4082 12.6719 -5.4082c4.76758 0 9.56738 1.98438 13.1201 5.91992zM256.8 139.36
c3.74414 0 7.42383 1.37598 10.4326 4.0957l201.376 182.496c6.71973 6.08008 7.51953 16.7676 1.75977 23.8721c-5.72852 7.10352 -15.8086 7.93555 -22.5605 1.85547l-191.008 -173.088l-192.64 173.12c-6.71973 6.04785 -16.7998 5.21582 -22.5283 -1.95215
c-5.72754 -7.10352 -4.92773 -17.792 1.82422 -23.8398l203.008 -182.496c2.97656 -2.6875 6.65625 -4.06348 10.3359 -4.06348zM470.976 31.2637c7.16797 7.45605 7.26465 19.6807 0.256836 27.2959l-82.3047 88.6729c-7.07129 7.61523 -18.5918 7.77539 -25.792 0.255859
c-7.2002 -7.52051 -7.2959 -19.7119 -0.223633 -27.3281l82.3037 -88.6719c3.55176 -3.83984 8.28809 -5.79199 12.9922 -5.79199c4.6084 0 9.21582 1.85547 12.7676 5.56738z" />
    <glyph glyph-name="uniF136" unicode="&#xf136;" 
d="M496.672 50.5918c3.00781 -2.97559 4.64062 -6.94336 4.7041 -11.168c0 -4.19141 -1.63184 -8.19141 -4.63965 -11.168l-76.9922 -76.96c-2.97656 -3.00781 -6.94434 -4.63965 -11.168 -4.63965c-4.22461 0 -8.16016 1.63184 -11.1357 4.63965l-130.753 130.752
l-130.72 -130.752c-3.00781 -3.00781 -6.94336 -4.63965 -11.168 -4.63965c-4.22363 0 -8.16016 1.63184 -11.168 4.63965l-76.9922 76.96c-3.00781 2.97656 -4.63965 6.97656 -4.63965 11.168c0 4.22461 1.63184 8.19238 4.63965 11.2002l130.721 130.72l-130.721 130.721
c-3.00781 3.00781 -4.63965 6.94336 -4.63965 11.168c0 4.19141 1.63184 8.12793 4.63965 11.1357l76.9922 76.9922c3.00781 2.97559 6.91211 4.60742 11.1357 4.60742c4.22461 0 8.16016 -1.63184 11.168 -4.60742l130.721 -130.688l130.72 130.72
c3.00781 2.97656 6.97559 4.6084 11.168 4.6084s8.12793 -1.63184 11.1357 -4.63965l76.9922 -77.0244c6.14453 -6.14355 6.14453 -16.1602 0 -22.3037l-130.72 -130.72z" />
    <glyph glyph-name="uniF137" unicode="&#xf137;" 
d="M416 416c52.7998 0 96 -43.2002 96 -96v-256c0 -52.7998 -43.2002 -96 -96 -96h-320c-52.7998 0 -96 43.2002 -96 96v256c0 52.7998 43.2002 96 96 96h320zM288 64v96c0 17.5996 -14.4004 32 -32 32h-160c-17.5996 0 -32 -14.4004 -32 -32v-96
c0 -17.5996 14.4004 -32 32 -32h160c17.5996 0 32 14.4004 32 32zM448 200.384v145.664c0 3.2959 -2.6875 5.95215 -5.95215 5.95215h-146.304c-2.24023 0 -5.3125 -1.18359 -6.75195 -2.5918c-1.4082 -1.44043 -1.4082 -3.80859 0 -5.21582
c1.43945 -1.44043 16.5762 -6.30469 33.5361 -10.8486l19.1992 -5.12012c16.9922 -4.51172 32.1289 -9.40723 33.5361 -10.8154c1.44043 -1.44043 1.44043 -3.77637 0 -5.21582c-1.40723 -1.44043 -12.7676 -12.8008 -25.2158 -25.248l-28.9922 -29.0244
c-12.4473 -12.4482 -24.9912 -24.96 -27.8398 -27.8398c-2.87988 -2.84766 -2.87988 -7.55176 0 -10.4004c2.87988 -2.87988 7.9043 -7.93555 11.2646 -11.2314l11.2314 -11.2002c2.87988 -2.87988 7.55176 -2.87988 10.4316 0l82.0488 82.0479
c1.43945 1.44043 3.77539 1.44043 5.21582 0c1.4082 -1.4082 6.27148 -16.5117 10.8154 -33.5039l5.12012 -19.2324c4.54395 -16.9912 9.4082 -32.0957 10.8486 -33.5039c1.43945 -1.43945 3.74316 -1.40723 5.18359 0c1.44043 1.4082 2.62402 4.73633 2.62402 7.32812z" />
    <glyph glyph-name="uniF138" unicode="&#xf138;" 
d="M475.264 164.512c-2.62402 -2.62402 -6.87988 -2.65527 -9.50391 -0.03125c-2.5918 2.62305 -14.9121 14.9434 -27.3281 27.3594l-11.6797 11.7119l-27.3604 27.3604c-2.62402 2.5918 -6.87988 2.5918 -9.50391 0c-2.62402 -2.62402 -14.9434 -14.9443 -27.3594 -27.3604
l-98.0166 -97.9521c-12.4473 -12.4473 -26.8799 -26.9111 -32.0957 -32.0957c-5.21582 -5.21582 -13.7598 -5.21582 -18.9756 0c-5.2168 5.18359 -19.6807 19.6484 -32.1289 32.0957l-11.7119 11.6807c-12.4473 12.4473 -26.9111 26.9121 -32.0957 32.1279
c-5.21582 5.21582 -5.21582 13.792 0 18.9756c5.18457 5.21582 19.6484 19.6807 32.0957 32.1279l97.9844 97.9844l27.3281 27.3281c2.62402 2.62402 2.62402 6.87988 0 9.50391c-2.56055 2.62402 -14.8799 14.9121 -27.3281 27.3594l-11.7119 11.7129
c-12.4482 12.4473 -24.7363 24.7676 -27.3604 27.3594c-2.62402 2.62402 -2.5918 6.87988 0 9.50391c2.62402 2.62402 8.16016 4.73633 12.2881 4.73633s21.9521 -0.0644531 39.5205 -0.12793l145.184 -0.608398c17.5996 -0.0634766 36.8643 -0.12793 42.8164 -0.12793
s10.8154 -4.86328 10.8154 -10.8154s0.0644531 -25.2168 0.12793 -42.8164l0.608398 -143.008c0.0634766 -17.5684 0.12793 -35.8398 0.12793 -40.6084c0 -4.76758 -2.1123 -10.7842 -4.73633 -13.376zM384 -32c0 -17.5996 -14.4004 -32 -32 -32h-320
c-17.5996 0 -32 14.4004 -32 32v320c0 17.5996 14.4004 32 32 32h160l-64 -64h-48c-8.7998 0 -16 -7.2002 -16 -16v-224c0 -8.7998 7.2002 -16 16 -16h224c8.7998 0 16 7.2002 16 16v48l64 64v-160z" />
    <glyph glyph-name="uniF139" unicode="&#xf139;" 
d="M448 239.552v-175.552c0 -52.7998 -43.2002 -96 -96 -96h-224c-52.7998 0 -96 43.2002 -96 96v224c0 52.7998 43.2002 96 96 96h175.52c-3.45508 -4.57617 -8.31934 -10.1436 -14.1436 -15.9678l-48 -48.0322h-90.9756c-35.2002 0 -54.4004 -19.2002 -54.4004 -54.4004
v-179.231c0 -35.168 19.2002 -54.3682 54.4004 -54.3682h182.399c35.2002 0 51.2002 16 51.2002 51.2002v94.1758l48 48.0322c5.85645 5.82422 11.4238 10.6562 16 14.1436zM512 296.384c0 -2.5918 -1.24805 -5.8877 -2.6875 -7.32812
c-1.44043 -1.43945 -3.77637 -1.43945 -5.2168 0c-1.43945 1.44043 -11.9678 12 -23.4561 23.4561c-11.4561 11.4561 -22.0156 22.0479 -23.4238 23.4561c-1.43945 1.44043 -3.77539 1.44043 -5.21582 0c-1.44043 -1.4082 -12.7676 -12.7676 -25.2158 -25.2158
l-84.1924 -84.1924c-12.4482 -12.4473 -24.96 -24.9912 -27.8398 -27.8398c-2.87988 -2.87988 -7.55176 -2.87988 -10.4004 0c-2.84766 2.84863 -12.2236 12.2246 -20.832 20.832c-8.60742 8.57617 -17.9834 17.9521 -20.8633 20.832
c-2.84863 2.84863 -2.84863 7.55176 0 10.4004l27.8398 27.8398l84.1279 84.1924c12.4482 12.4473 23.7764 23.8076 25.2158 25.248c1.44043 1.43945 1.44043 3.77539 0 5.21582c-1.4082 1.40723 -11.9678 11.9678 -23.4238 23.4238l-23.4561 23.4561
c-1.44043 1.43945 -1.44043 3.77539 0 5.21582s4.48047 2.62402 6.75195 2.62402h36.1279h72.2246h37.9834c3.26465 0 5.95215 -2.65625 5.95215 -5.95215v-37.9521v-70.9756v-36.7363z" />
    <glyph glyph-name="uniF13A" unicode="&#xf13a;" 
d="M500.512 442.944c12.2881 -8.80078 15.168 -25.8887 6.43262 -38.208l-186.944 -233.345v-208.031c0 -10.3359 -5.85645 -19.8086 -15.04 -24.4482c-3.87207 -1.95215 -8.12793 -2.91211 -12.3203 -2.91211c-5.75977 0 -11.4873 1.82422 -16.2881 5.34375
l-41.2793 23.8398c-6.97656 5.18457 -11.0723 13.3125 -11.0723 21.9844v184.64l-187.776 233.536c-8.44727 12.5439 -5.12012 29.5361 7.4248 37.9844c4.54395 3.07227 9.66309 4.60742 14.7832 4.67188c8.92871 0.12793 425.952 0.0957031 428.128 -0.0644531
c4.86426 -0.319336 9.69629 -1.95117 13.9521 -4.99121zM352.448 315.328c7.10352 7.07227 4.67188 12.8955 -5.34473 12.8955h-150.655c-10.0166 0 -12.4482 -5.82324 -5.34473 -12.8955l67.7441 -86.0166c7.10449 -7.10352 18.7207 -7.10352 25.8242 0z" />
    <glyph glyph-name="uniF13B" unicode="&#xf13b;" 
d="M368.48 448l143.52 -143.52s-20.9922 -44.7363 -65.7275 -60.5449c-44.7363 -15.8076 -124.545 9.12012 -182.208 -15.9033c-57.6641 -25.0244 -50.1768 -79.3281 -50.1768 -79.3281l-143.52 143.52s-7.48828 54.3047 50.208 79.3281
c57.6318 25.0566 137.408 0.0966797 182.208 15.9043c44.7676 15.8398 65.6963 60.5439 65.6963 60.5439zM50.5918 244.672l258.112 -258.048c6.20801 -6.20801 6.20801 -16.416 0 -22.624l-16.6719 -16.6719c-6.20801 -6.20801 -16.416 -6.20801 -22.624 0l-258.08 258.08
c-6.20801 6.20801 -6.20801 16.416 0 22.624l16.6396 16.6396c6.20801 6.20801 16.416 6.20801 22.624 0z" />
    <glyph glyph-name="uniF13C" unicode="&#xf13c;" 
d="M512 384v-32c0 -17.5996 -14.4004 -32 -32 -32h-97.3438c-17.6006 0 -32 14.4004 -32 32v32c0 17.5996 14.3994 32 32 32h97.3438c17.5996 0 32 -14.4004 32 -32zM480 224c17.5996 0 32 -14.4004 32 -32v-32c0 -17.5996 -14.4004 -32 -32 -32h-97.3438
c-17.6006 0 -32 14.4004 -32 32v32c0 17.5996 14.3994 32 32 32h97.3438zM480 32c17.5996 0 32 -14.3682 32 -32v-32c0 -17.5684 -14.4004 -32 -32 -32h-448c-17.5996 0 -32 14.4316 -32 32v32c0 17.6318 14.4004 32 32 32h448zM32 128c-17.5684 0 -32 14.4004 -32 32v224
c0 17.5684 14.4316 32 32 32h224c17.6318 0 32 -14.4316 32 -32v-224c0 -17.5996 -14.3682 -32 -32 -32h-224z" />
    <glyph glyph-name="uniF13D" unicode="&#xf13d;" 
d="M480 32c17.5996 0 32 -14.3682 32 -32v-32c0 -17.5684 -14.4004 -32 -32 -32h-448c-17.5996 0 -32 14.4316 -32 32v32c0 17.6318 14.4004 32 32 32h448zM32 128c-17.5684 0 -32 14.4004 -32 32v224c0 17.5684 14.4316 32 32 32h224c17.6318 0 32 -14.4316 32 -32v-224
c0 -17.5996 -14.3682 -32 -32 -32h-224z" />
    <glyph glyph-name="uniF13E" unicode="&#xf13e;" 
d="M32 416h97.3438c17.6006 0 32 -14.4004 32 -32v-32c0 -17.5996 -14.3994 -32 -32 -32h-97.3438c-17.5996 0 -32 14.4004 -32 32v32c0 17.5996 14.4004 32 32 32zM0 192c0 17.5996 14.4004 32 32 32h97.3438c17.6006 0 32 -14.4004 32 -32v-32
c0 -17.5996 -14.3994 -32 -32 -32h-97.3438c-17.5996 0 -32 14.4004 -32 32v32zM480 32c17.5996 0 32 -14.3682 32 -32v-32c0 -17.5684 -14.4004 -32 -32 -32h-448c-17.5996 0 -32 14.4316 -32 32v32c0 17.6318 14.4004 32 32 32h448zM512 160
c0 -17.5996 -14.4316 -32 -32 -32h-224c-17.6318 0 -32 14.4004 -32 32v224c0 17.5684 14.3682 32 32 32h224c17.5684 0 32 -14.4316 32 -32v-224z" />
    <glyph glyph-name="uniF13F" unicode="&#xf13f;" 
d="M489.568 256c12.3838 0 22.4316 -9.75977 22.4316 -21.7275v-244.545c0 -11.9678 -10.0479 -21.7275 -22.4316 -21.7275h-467.137c-12.3838 0 -22.4316 9.75977 -22.4316 21.6963v244.576c0 11.9678 10.0479 21.7275 22.4316 21.7275h467.137zM489.568 384
c12.3838 0 22.4316 -17.3438 22.4316 -29.7275v-56.7041c0 12.3838 -10.0479 22.4316 -22.4316 22.4316h-467.137c-12.3838 0 -22.4316 -10.0479 -22.4316 -22.4316v56.7041c0 4.5752 1.37598 8.99121 3.96777 12.7676l41.1846 71.2324
c4.15918 6.11133 11.0713 9.72754 18.4639 9.72754h102.399c6.68848 0 13.0244 -2.97559 17.3125 -8.12793l42.7842 -55.8721h263.456z" />
    <glyph glyph-name="uniF140" unicode="&#xf140;" 
d="M489.568 256c12.3838 0 22.4316 -9.75977 22.4316 -21.6963l-64 -244.576c0 -11.9678 -10.0479 -21.7275 -22.4316 -21.7275h-371.137c-12.3838 0 -22.4316 9.75977 -22.4316 21.6963l64 244.576c0 11.9678 10.0479 21.7275 22.4316 21.7275h371.137zM54.4316 320
c-12.3838 0 -22.4316 -9.75977 -22.4316 -21.7275l-32 -122.272v178.272c0 4.5752 1.37598 8.99121 3.96777 12.7676l41.1846 71.2324c4.15918 6.11133 11.0713 9.72754 18.4639 9.72754h102.399c6.68848 0 13.0244 -2.97559 17.3125 -8.12793l42.7842 -55.8721h189.888
c12.3838 0 22.4316 -17.3438 22.4316 -29.7275v-34.2725h-384z" />
    <glyph glyph-name="uniF141" unicode="&#xf141;" 
d="M206.56 355.136l116.064 -327.808c1.63184 -5.72852 0.511719 -9.44043 -5.69629 -9.44043h-49.792c-9.15137 0 -11.3594 3.71191 -14.2393 11.04l-23.7441 75.584h-126.336l-23.7129 -75.584c-2.87988 -7.32812 -5.11914 -11.04 -14.207 -11.04h-49.7607
c-6.30371 0 -7.35938 3.71191 -5.72754 9.44043l116.063 327.808c1.91992 4.92871 4.03223 8 8.19238 9.63184c0.416016 0.160156 0.704102 0.416016 1.21582 0.544922c1.75977 0.479492 3.87207 0.767578 6.49609 0.767578h49.248v0
c2.62402 0 4.73633 -0.255859 6.49609 -0.736328c0.448242 -0.12793 0.736328 -0.383789 1.12012 -0.543945c4.22363 -1.59961 6.36816 -4.76758 8.31934 -9.66406zM118.208 153.984h95.6162l-47.0078 150.144h-1.66406zM503.296 174.112
c0 -1.79199 -1.31152 -4.57617 -2.94434 -6.17676c-1.63184 -1.59961 -7.10352 -7.07129 -12.1592 -12.0635l-52.6084 -52.1924c-5.02441 -4.99121 -10.8799 -10.8154 -12.8965 -12.7998c-2.01562 -2.01562 -5.34375 -2.01562 -7.35938 0
c-2.01562 2.0166 -7.87207 7.80859 -12.8965 12.7998l-53.3438 52.9287c-5.08789 5.02344 -10.4004 10.3037 -11.8076 11.7119c-1.4082 1.43945 -2.56055 4.03125 -2.56055 5.82324s1.44043 3.26465 3.26465 3.26465h16.1914h12.96h16.2246
c1.79199 0 3.26367 1.43945 3.26367 3.23145v16.1924v71.9043v19.4238s2.91211 6.46387 6.46387 6.46387h19.4561h12.9277h19.4561c3.55273 0 6.46387 -2.91211 6.46387 -6.46387v-19.4238v-71.9365v-16.1914c0 -1.76074 1.47266 -3.23242 3.26465 -3.23242h16.2236h12.96
h16.1924c1.82422 0 3.26367 -1.47168 3.26367 -3.26367z" />
    <glyph glyph-name="uniF142" unicode="&#xf142;" 
d="M241.792 391.392l141.824 -400.607c1.9834 -7.00781 0.607422 -11.5518 -6.94434 -11.5518h-60.8643c-11.1357 0 -13.8877 4.54395 -17.376 13.4717l-29.0234 92.416h-154.4l-28.96 -92.416c-3.51953 -8.92773 -6.27148 -13.4717 -17.4082 -13.4717h-60.7998
c-7.67969 0 -8.99219 4.51172 -7.00781 11.5518l141.888 400.64c2.33594 5.98438 4.89648 9.79199 10.0166 11.7764c0.511719 0.160156 0.832031 0.479492 1.47168 0.671875c2.1123 0.543945 4.7041 0.895508 7.93555 0.895508h60.1924v0
c3.2002 0 5.75977 -0.319336 7.93652 -0.895508c0.543945 -0.160156 0.895508 -0.480469 1.37598 -0.639648c5.15137 -1.98438 7.74316 -5.82422 10.1436 -11.8408zM133.792 145.536h116.864l-57.4404 183.52h-2.01562zM343.424 209.888
c0 1.79199 1.3125 4.57617 2.94434 6.17676c1.63184 1.59961 7.10352 7.07129 12.1602 12.0635l52.6074 52.1924c5.02441 4.99219 10.8799 10.8154 12.8965 12.7998c2.01562 2.01562 5.34375 2.01562 7.35938 0c2.0166 -2.0166 7.87207 -7.80762 12.8965 -12.7998
l53.3438 -52.9287c5.05566 -4.99121 10.3682 -10.2715 11.7764 -11.6797c1.43945 -1.47168 2.5918 -4.06348 2.5918 -5.82422c0 -1.75977 -1.44043 -3.26367 -3.26367 -3.26367h-16.1924h-12.96h-16.2236c-1.79199 0 -3.26465 -1.44043 -3.26465 -3.23242v-16.1914v-71.9365
v-19.4238s-2.91211 -6.46387 -6.46387 -6.46387h-19.4561h-12.9277h-19.4561s-6.46387 2.91211 -6.46387 6.46387v19.4238v71.9365v16.1914c0 1.76074 -1.47168 3.23242 -3.26367 3.23242h-16.2246h-12.96h-16.1914c-1.82422 0 -3.26465 1.47168 -3.26465 3.26367z" />
    <glyph glyph-name="uniF143" unicode="&#xf143;" 
d="M153.76 175.04h83.8398l-22.2715 -63.5518h-81.8877l-32.5439 -97.3125c-3.64844 -10.8154 -9.47266 -14.1758 -19.585 -14.1758h-56.4795c-8.67188 0 -11.5518 3.36035 -7.96777 13.5684l146.239 420.288c3.64844 9.40723 7.26465 14.1436 20.2881 14.1436h63.0088
c13.7598 0 16.6719 -5.37598 19.5518 -14.1436l43.3281 -122.528c-17.3447 -8.44824 -31.2002 -22.8477 -39.4883 -44.2559l-12 -34.3047l-12.0957 38.2402l-29.6963 97.2803h-2.87988l-28.9922 -95.9678zM511.36 -55.3281
c1.53613 -5.31152 0.511719 -8.67188 -5.2168 -8.67188h-45.7598c-8.35156 0 -10.4316 3.36035 -13.0557 10.1123l-21.8242 69.5039h-116.608l-23.3916 -69.5039c-2.62402 -7.71191 -6.81641 -10.1123 -14.0801 -10.1123h-40.6074
c-6.24023 0 -8.32031 2.40039 -5.76074 9.69629l105.152 300.224c2.5918 6.71973 5.21582 10.0801 14.5918 10.0801h45.248c9.95215 0 12 -3.83984 14.0479 -10.1123zM323.488 61.0244h87.9355l-21.8877 68.5439l-21.3438 69.5039h-2.04883l-20.8311 -68.5762z" />
    <glyph glyph-name="uniF144" unicode="&#xf144;" 
d="M464 256c8.7998 0 16 -7.2002 16 -16v-32c0 -8.7998 -7.2002 -16 -16 -16h-71.8398c14.8799 -19.2959 23.8398 -45.5361 23.8398 -82.5596c0 -106.816 -80.5117 -141.44 -170.016 -141.44c-35.0088 0 -98.6562 5.69629 -135.04 20.5439
c-16.0645 6.33594 -16.0645 12.7041 -13.9844 21.8877l6.30371 29.0244c2.78418 12 6.97656 12 18.8799 10.5596c36.3848 -4.25586 91.6484 -9.8877 123.841 -9.8877c59.4561 0 89.5039 21.9199 89.5039 62.208c0 50.8799 -20.2559 63.6162 -83.2324 74.9443
c-21.4082 4.22363 -42.1123 8.73535 -61.1836 14.7197h-143.072c-8.7998 0 -16 7.2002 -16 16v32c0 8.7998 7.2002 16 16 16h59.2002c-6.75195 14.8477 -10.9443 32.3203 -10.9443 54.1758c0 89.0566 60.1602 137.824 158.848 137.824
c26.5605 0 88.1602 -2.08008 128.704 -19.0723c15.3926 -6.39941 15.3926 -12.7041 13.9844 -21.9199l-6.97559 -28.96c-2.81641 -11.3281 -7.00879 -12 -20.3203 -11.3281c-31.4561 4.25586 -70.624 9.21582 -111.937 9.21582
c-59.4238 0 -80.4473 -23.3594 -80.4473 -62.9111c0 -37.4727 16.1602 -47.9365 57.4072 -57.0244h228.48z" />
    <glyph glyph-name="uniF145" unicode="&#xf145;" 
d="M366.528 237.504v196.608c0 9.02344 4.22363 13.8877 14.0801 13.8877h52.8633c9.91992 0 12.7041 -5.59961 12.7041 -13.8877l-0.671875 -196.641c0 -27.6475 -2.14355 -54.624 -12.7363 -81.5674c-27.4551 -65.6963 -90.9111 -91.9043 -161.472 -91.9043
c-74.7842 0 -125.568 26.208 -152.352 76.7041c-14.8164 27.6797 -21.1523 60.8955 -21.1523 96.7998v196.608c0 9.02344 3.51953 13.8877 13.376 13.8877h52.8965c9.8877 0 13.4072 -5.59961 13.4072 -13.8877v-196.641c0 -67.7441 31.7441 -104.384 93.792 -104.384
c61.4082 0.0322266 95.2646 33.1846 95.2646 104.416zM448 -16v-32c0 -8.7998 -7.2002 -16 -16 -16h-320c-8.7998 0 -16 7.2002 -16 16v32c0 8.7998 7.2002 16 16 16h320c8.7998 0 16 -7.2002 16 -16z" />
    <glyph glyph-name="uniF146" unicode="&#xf146;" 
d="M416 416c52.7998 0 96 -43.2002 96 -96v-256c0 -52.7998 -43.2002 -96 -96 -96h-320c-52.7998 0 -96 43.2002 -96 96v256c0 52.7998 43.2002 96 96 96h320zM288 64v96c0 17.5996 -14.4004 32 -32 32h-160c-17.5996 0 -32 -14.4004 -32 -32v-96
c0 -17.5996 14.4004 -32 32 -32h160c17.5996 0 32 14.4004 32 32zM448 200.384v145.664c0 3.2959 -2.6875 5.95215 -5.95215 5.95215h-146.304c-2.24023 0 -5.3125 -1.18359 -6.75195 -2.5918c-1.4082 -1.44043 -1.4082 -3.80859 0 -5.21582
c1.43945 -1.44043 16.5762 -6.30469 33.5361 -10.8486l19.1992 -5.12012c16.9922 -4.51172 32.1289 -9.40723 33.5361 -10.8154c1.44043 -1.44043 1.44043 -3.77637 0 -5.21582c-1.40723 -1.44043 -12.7676 -12.8008 -25.2158 -25.248l-28.9922 -29.0244
c-12.4473 -12.4482 -24.9912 -24.96 -27.8398 -27.8398c-2.87988 -2.84766 -2.87988 -7.55176 0 -10.4004c2.87988 -2.87988 7.9043 -7.93555 11.2646 -11.2314l11.2314 -11.2002c2.87988 -2.87988 7.55176 -2.87988 10.4316 0l82.0488 82.0479
c1.43945 1.44043 3.77539 1.44043 5.21582 0c1.4082 -1.4082 6.27148 -16.5117 10.8154 -33.5039l5.12012 -19.2324c4.54395 -16.9912 9.4082 -32.0957 10.8486 -33.5039c1.43945 -1.43945 3.74316 -1.40723 5.18359 0c1.44043 1.4082 2.62402 4.73633 2.62402 7.32812z" />
    <glyph glyph-name="uniF147" unicode="&#xf147;" 
d="M504.128 132.512c6.24023 -3.93555 9.44043 -12.8955 7.16797 -19.9355l-18.624 -44.9277c-3.32812 -6.59277 -11.9355 -10.6562 -19.2002 -8.99219l-55.4873 12.7041c-7.2002 1.63184 -17.1523 -1.53613 -22.0488 -7.07227l-12.1914 -12.1602
c-5.53613 -4.92773 -8.7041 -14.8477 -7.07227 -22.0801l12.7363 -55.4883c1.63184 -7.23145 -2.43262 -15.8711 -9.05664 -19.1992l-44.8955 -18.5928c-7.04004 -2.36719 -15.9678 0.864258 -19.9043 7.13672l-30.3037 48.2881
c-3.93555 6.23926 -13.2158 10.8477 -20.5762 10.1758c0 0 -1.15234 -0.0966797 -8.63965 -0.0966797c-7.48828 0 -8.64062 0.0966797 -8.64062 0.0966797c-7.3916 0.671875 -16.6396 -3.93652 -20.5752 -10.1758l-30.3047 -48.2881
c-3.93555 -6.30469 -12.8633 -9.50391 -19.9033 -7.13672l-44.9287 18.5928c-6.5918 3.35938 -10.6553 11.9678 -9.02344 19.1992l12.7354 55.4883c1.60059 7.2002 -1.53516 17.1523 -7.07129 22.0801l-12.1924 12.1602c-4.89551 5.53613 -14.8164 8.73633 -22.0479 7.07227
l-55.5205 -12.7041c-7.23145 -1.66406 -15.8711 2.39941 -19.1992 8.99219l-18.5928 44.9277c-2.33594 7.04004 0.864258 15.9678 7.10449 19.9043l48.3203 30.2715c6.23926 3.93555 10.8477 13.2158 10.1758 20.5762c0 0 -0.12793 1.18359 -0.12793 8.67188
s0.12793 8.67188 0.12793 8.67188c0.639648 7.36035 -3.93652 16.6084 -10.1758 20.5439l-48.3203 30.2725c-6.27246 3.93555 -9.44043 12.8633 -7.10449 19.9033l18.5928 44.96c3.35938 6.59277 11.9678 10.6562 19.1992 8.99219l55.4883 -12.7041
c7.23242 -1.66406 17.1846 1.50391 22.0801 7.04004l12.1924 12.1602c5.53613 4.92773 8.67188 14.8799 7.04004 22.1123l-12.7363 55.4883c-1.63184 7.23145 2.43164 15.8721 9.02441 19.1992l44.96 18.5928c7.00781 2.36719 15.9678 -0.864258 19.9033 -7.13672
l30.3047 -48.2881c3.90332 -6.23926 13.1836 -10.8477 20.5439 -10.1758c0 0 1.15137 0.0957031 8.63965 0.0957031s8.63965 -0.0957031 8.63965 -0.0957031c7.36035 -0.671875 16.6406 3.93652 20.5439 10.1758l30.3047 48.2568
c3.93555 6.30371 12.8633 9.50391 19.9033 7.13574l44.8965 -18.5918c6.62402 -3.36035 10.6875 -11.9688 9.05566 -19.2002l-12.7354 -55.4883c-1.60059 -7.2002 1.53516 -17.1523 7.07129 -22.0801l12.2246 -12.1279c4.89551 -5.53613 14.8154 -8.73633 22.0479 -7.07227
l55.4883 12.7363c7.26367 1.66406 15.8711 -2.40039 19.1992 -8.99219l18.624 -44.9277c2.30469 -7.04004 -0.895508 -15.9678 -7.13574 -19.9043l-48.3203 -30.2715c-6.23926 -3.93652 -10.8477 -13.2158 -10.1758 -20.5762c0 0 0.12793 -1.18457 0.12793 -8.67188
c0 -7.48828 -0.12793 -8.67188 -0.12793 -8.67188c-0.704102 -7.39258 3.93652 -16.6406 10.1758 -20.5762zM256 50.624c79.3604 0 143.712 64.3838 143.712 143.744c0 79.3594 -64.3516 143.712 -143.712 143.712s-143.744 -64.3525 -143.744 -143.712
c0 -79.3604 64.3838 -143.744 143.744 -143.744zM256 269.344c41.6963 0 75.4561 -33.8242 75.4561 -75.4873c0 -41.6641 -33.7598 -75.4561 -75.4561 -75.4561s-75.4561 33.8232 -75.4561 75.4873s33.7598 75.4561 75.4561 75.4561zM256 156.096
c20.8643 0 37.8242 16.8643 37.8242 37.7607c0 20.8955 -16.96 37.8232 -37.8242 37.8232s-37.8242 -16.8955 -37.8242 -37.792c0 -20.8955 16.96 -37.792 37.8242 -37.792z" />
    <glyph glyph-name="uniF148" unicode="&#xf148;" 
d="M132.544 252.672c-64.8955 0 -94.2715 83.7119 -94.2715 134.24c0 19.6162 3.77539 39.9678 16.5752 55.8076c1.56836 1.95215 3.61621 3.52051 5.44043 5.28027h95.2314c31.1367 -28.2236 47.1689 -81.0557 47.2002 -119.168
c0 -13.5684 -1.50391 -37.6963 -18.8799 -55.04c-12.0322 -12.0645 -32.3838 -21.1201 -51.2959 -21.1201zM113.696 203.648c0 -23.3926 12.0635 -37.6963 22.624 -51.2646c-32.0967 -2.17578 -90.4961 -5.95215 -136.32 -30.624v152.672
c21.2803 -25.248 53.9199 -42.8799 97.0879 -42.8799c7.55176 0 15.8398 0.736328 24.1279 1.50391c-3.74414 -9.05566 -7.51953 -16.5752 -7.51953 -29.4072zM244.192 30.9443c0 -46.7842 -38.4648 -81.4727 -110.881 -81.4727
c-80.7031 0 -132.768 38.4639 -132.768 92.0322c0 53.5039 48.2559 71.6484 64.8643 77.6641c31.7119 10.5918 72.416 12.0645 79.2314 12.0645c7.52051 0 11.2646 0 17.3447 -0.768555c57.3115 -40.7041 82.208 -61.0879 82.208 -99.5195zM480 448
c17.5996 0 32 -14.4004 32 -32v-448c0 -17.5996 -14.4004 -32 -32 -32h-283.68c64.2559 25.6318 98.3994 74.8799 98.3994 124.32c0 52.0635 -30.208 77.6953 -63.3594 105.632l-27.168 21.1201c-8.28809 6.78418 -19.6162 15.8398 -19.6162 32.416
s11.3281 27.1357 21.1514 36.96c31.6484 24.8955 63.3281 51.2959 63.3281 107.104c0 40.3525 -17.9521 67.0723 -34.624 84.4482h245.568z" />
    <glyph glyph-name="uniF149" unicode="&#xf149;" 
d="M175.84 -11.2002c-7.96777 0 -14.3994 6.43262 -14.3994 14.3682v12.7998c0 38.1123 -31.8086 61.5039 -55.04 78.5605c-10.5928 7.80762 -18.9443 13.9521 -23.3604 20.96l-3.52051 5.21582c-10.3037 14.9443 -34.3994 49.8242 2.43262 86.3994
c17.248 17.1201 30.0801 22.4961 43.9355 23.3281c-2.97559 5.24805 -8 13.5684 -16.416 26.5928c-26.208 40.5752 -9.8877 62.4951 9.12012 81.5039c22.1758 22.1113 59.2324 15.9678 78.624 -3.4248c0.959961 -0.959961 1.8877 -1.95117 2.75195 -2.94336
c4.64062 7.16797 11.0078 11.3281 16.7998 13.7598c11.4883 4.73633 25.1523 4.86426 38.8164 4.73633c11.7441 0 34.8799 0 49.4717 -10.8486c1.95215 1.44043 4.06445 2.68848 6.36816 3.74414c11.2324 5.15234 25.9199 5.79199 39.8086 5.15234
c26.4639 0 50.1758 -13.1523 59.4238 -30.624c10.3682 2.33594 21.248 -0.767578 29.3115 -3.77637c17.5361 -6.46387 38.3682 -24.4795 38.208 -73.4072c0 -7.2002 0 -11.7764 0.0322266 -14.624c0.12793 -0.704102 0.192383 -1.47266 0.192383 -2.24023
c0 -51.3281 -17.8887 -84 -35.1045 -115.584c-16.6074 -30.4004 -32.2881 -59.168 -32.2881 -105.216c0 -7.93652 -6.43164 -14.3682 -14.3994 -14.3682c-7.96875 0 -14.4004 6.43164 -14.4004 14.3682c0 53.4395 18.1758 86.7832 35.8076 119.008
c16 29.376 31.168 57.1201 31.5527 100.096h-0.0644531c0 0.192383 0.0322266 0.416016 0.0644531 0.608398v1.08789h0.0634766c-0.288086 4.35156 -0.288086 9.66406 -0.288086 16c0.0966797 26.9121 -6.43164 42.4961 -19.3916 47.2959
c-9.69629 3.58398 -12.7363 2.6875 -12.9922 2.65625c0.0644531 -0.0322266 -2.17578 -2.97656 -2.17578 -14.1445l-0.576172 -20.2236c-0.255859 -7.9043 -6.1123 -15.4238 -14.752 -13.9844c-7.93555 0.192383 -14.1758 6.71973 -14.0479 14.6562
c0 0 0.576172 31.3604 0.576172 45.8877c0 4.28809 -13.0566 17.9521 -34.7207 17.7598c-11.7119 0 -22.3994 0 -27.7754 -2.49512c-1.72852 -0.768555 -4.86426 -2.24023 -4.86426 -13.6963v-18.9443c0 -7.96777 -6.43164 -14.3994 -14.3682 -14.3994
c-7.96777 0 -14.4316 6.46387 -14.4316 14.3994v3.74414c-0.0644531 0.448242 -0.511719 6.40039 -0.511719 23.3604c0 3.74414 -0.928711 9.91992 -33.8242 9.95215c-11.3281 0 -21.7285 -0.0644531 -27.6484 -2.56055
c-2.36816 -0.959961 -5.59961 -2.30371 -5.59961 -12.2881v-20.3838c0 -7.96777 -6.46387 -14.4004 -14.4004 -14.4004c-7.93555 0 -14.3994 6.46484 -14.3994 14.4004v0c-0.480469 1.47168 -5.88867 17.376 -16.6406 28.0957
c-4.44824 4.44824 -11.9678 7.9043 -19.2002 8.7998c-5.40723 0.640625 -12.9912 0.320312 -18.6553 -5.37598c-14.4639 -14.4639 -21.0566 -21.0557 -5.28027 -45.5039c13.4082 -20.7354 20.9922 -33.1201 23.8398 -41.6318l6.87988 -6.5918
c4.38379 -4.22363 5.66406 -10.7197 3.16797 -16.2881c-2.52734 -5.53613 -8.19141 -8.76758 -14.2715 -8.44824c-3.93652 0.320312 -7.58398 0.736328 -10.9766 1.12012c-16.832 1.91992 -23.1035 2.68848 -40.0635 -14.1436
c-18.4004 -18.2725 -11.9365 -30.9121 0.959961 -49.5361c1.53613 -2.24023 2.97559 -4.32031 4.19141 -6.24023c1.60059 -2.46387 9.98438 -8.63965 16.0645 -13.0879c24.96 -18.3359 66.7842 -49.0879 66.7842 -101.792v-12.7676
c0 -7.96875 -6.43262 -14.4326 -14.4004 -14.4326v0v0z" />
    <glyph glyph-name="uniF14A" unicode="&#xf14a;" 
d="M176 -75.2002c-7.96777 0 -14.4004 6.43262 -14.4004 14.3682v12.7998c0 40.1924 -22.5596 57.9844 -48.6396 78.624c-9.37598 7.36035 -18.7197 14.8164 -27.1357 23.2002c-29.8887 29.9199 -54.2725 59.7119 -72.5127 88.6396
c-8.7998 13.9844 -32.1914 51.1045 8.54492 91.5527c29.3438 29.1191 59.5195 19.4873 89.0879 -2.52832c-6.78418 21.5039 -15.3281 43.3281 -25.2803 58.7197c-22.1445 34.2402 -31.0723 86.1758 -6.91211 110.336c22.4639 22.4639 54.1758 19.2002 73.8877 4.32031
c17.792 -13.376 31.0723 -28.9922 40.9287 -44.96v43.2002c0 24.0957 12.6719 34.4316 23.3281 38.8477c11.4551 4.76758 25.1191 4.57617 38.7832 4.76758c32.5127 0 56.3848 -14.8154 61.5684 -36.2871c12.9922 5.50391 27.3281 5.50391 34.5918 5.50391
c26.2725 0 49.6318 -17.376 58.9121 -36.2881c12.2559 6.14355 27.8076 6.94336 41.9844 1.9834c42.5596 -14.8799 57.6641 -68.1592 57.6641 -109.248v-48.3516c0 -51.2324 -25.792 -99.9678 -50.7207 -147.104c-23.8398 -44.9922 -48.4795 -91.5205 -48.4795 -137.729
c0 -7.93555 -6.46387 -14.3682 -14.4004 -14.3682c-7.93555 0 -14.3994 6.43262 -14.3994 14.3682c0 53.3125 26.3359 103.072 51.7754 151.2c24.3838 46.0801 47.4238 89.5674 47.4238 133.632v48.3516c0 23.7441 -8.03125 71.4561 -38.3359 82.0488
c-7.67969 2.6875 -16.416 1.9834 -21.6641 -1.76074c-4.41602 -3.10352 -6.5918 -8.51172 -6.5918 -16.0312l-0.607422 -112.097v-0.576172v0c-0.0322266 -7.93555 -6.46484 -14.3359 -14.4004 -14.3359h-0.0644531c-7.93555 0.0322266 -14.3672 6.52832 -14.3359 14.4648
c0 0 0.608398 124.287 0.608398 138.88c0 6.01562 -13.8877 24.1592 -34.3359 24.1592c-28.4805 0 -33.0244 -6.65527 -33.0244 -22.623v-107.616c0 -7.93652 -6.43164 -14.4004 -14.3672 -14.4004h-0.0644531c-7.9043 0 -14.3682 6.43262 -14.3682 14.3359
c0 0 -0.543945 125.952 -0.543945 144.704c0 9.28027 -15.5195 16.2881 -33.8877 16.3525c-11.3604 0 -21.7285 -0.0644531 -27.6162 -2.52832c-2.40039 -0.959961 -5.59961 -2.30371 -5.59961 -12.2559v-142.24c0.03125 -2.46387 0 -4 0 -4.41602
c-0.288086 -7.77637 -6.65625 -13.9521 -14.4004 -13.9521h-0.223633c-7.87207 0.12793 -14.1768 6.52832 -14.1768 14.4004v2.5918c-0.223633 12.9922 -4.03125 81.5996 -58.2393 122.4c-9.53613 7.10352 -24.8965 9.63184 -36.2246 -1.69629
c-10.2715 -10.2402 -7.77539 -45.6963 10.752 -74.3359c30.1445 -46.6562 47.0723 -138.721 47.7764 -142.624c1.37598 -7.52051 -3.42383 -14.8164 -10.8799 -16.5762c-7.45605 -1.72754 -14.9766 2.65625 -17.1201 10.0156l-8 27.6162
c-51.8398 48.8965 -65.7285 43.0078 -79.5205 29.3125c-22.5273 -22.3682 -15.3594 -38.5283 -4.44727 -55.8086c17.0557 -27.0713 40.0957 -55.2002 68.5117 -83.5518c7.58398 -7.58398 16.0957 -14.2725 24.6084 -20.96c27.9033 -22.0801 59.584 -47.0723 59.584 -101.248
v-12.7676c0 -7.96875 -6.43262 -14.4326 -14.4004 -14.4326v0v0z" />
    <glyph glyph-name="uniF14B" unicode="&#xf14b;" 
d="M303.008 287.968v-288.512h-96v288.512h-80.832l128.832 160.032l128.8 -160.032h-80.7998z" />
    <glyph glyph-name="uniF14C" unicode="&#xf14c;" 
d="M480 448c17.5996 0 32 -14.4004 32 -32v-448c0 -17.5996 -14.4004 -32 -32 -32h-448c-17.5996 0 -32 14.4004 -32 32v448c0 17.5996 14.4004 32 32 32h448zM144 0v64c0 8.7998 -7.2002 16 -16 16h-64c-8.7998 0 -16 -7.2002 -16 -16v-64c0 -8.7998 7.2002 -16 16 -16h64
c8.7998 0 16 7.2002 16 16zM144 160v64c0 8.7998 -7.2002 16 -16 16h-64c-8.7998 0 -16 -7.2002 -16 -16v-64c0 -8.7998 7.2002 -16 16 -16h64c8.7998 0 16 7.2002 16 16zM144 320v64c0 8.7998 -7.2002 16 -16 16h-64c-8.7998 0 -16 -7.2002 -16 -16v-64
c0 -8.7998 7.2002 -16 16 -16h64c8.7998 0 16 7.2002 16 16zM304 0v64c0 8.7998 -7.2002 16 -16 16h-64c-8.7998 0 -16 -7.2002 -16 -16v-64c0 -8.7998 7.2002 -16 16 -16h64c8.7998 0 16 7.2002 16 16zM304 160v64c0 8.7998 -7.2002 16 -16 16h-64
c-8.7998 0 -16 -7.2002 -16 -16v-64c0 -8.7998 7.2002 -16 16 -16h64c8.7998 0 16 7.2002 16 16zM304 320v64c0 8.7998 -7.2002 16 -16 16h-64c-8.7998 0 -16 -7.2002 -16 -16v-64c0 -8.7998 7.2002 -16 16 -16h64c8.7998 0 16 7.2002 16 16zM464 0v64
c0 8.7998 -7.2002 16 -16 16h-64c-8.7998 0 -16 -7.2002 -16 -16v-64c0 -8.7998 7.2002 -16 16 -16h64c8.7998 0 16 7.2002 16 16zM464 160v64c0 8.7998 -7.2002 16 -16 16h-64c-8.7998 0 -16 -7.2002 -16 -16v-64c0 -8.7998 7.2002 -16 16 -16h64c8.7998 0 16 7.2002 16 16
zM464 320v64c0 8.7998 -7.2002 16 -16 16h-64c-8.7998 0 -16 -7.2002 -16 -16v-64c0 -8.7998 7.2002 -16 16 -16h64c8.7998 0 16 7.2002 16 16z" />
    <glyph glyph-name="uniF14D" unicode="&#xf14d;" 
d="M480 448c17.5996 0 32 -14.4004 32 -32v-448c0 -17.5996 -14.4004 -32 -32 -32h-448c-17.5996 0 -32 14.4004 -32 32v448c0 17.5996 14.4004 32 32 32h448zM160 -16v96c0 8.7998 -7.2002 16 -16 16h-96c-8.7998 0 -16 -7.2002 -16 -16v-96c0 -8.7998 7.2002 -16 16 -16
h96c8.7998 0 16 7.2002 16 16zM160 144v96c0 8.7998 -7.2002 16 -16 16h-96c-8.7998 0 -16 -7.2002 -16 -16v-96c0 -8.7998 7.2002 -16 16 -16h96c8.7998 0 16 7.2002 16 16zM160 304v96c0 8.7998 -7.2002 16 -16 16h-96c-8.7998 0 -16 -7.2002 -16 -16v-96
c0 -8.7998 7.2002 -16 16 -16h96c8.7998 0 16 7.2002 16 16zM320 -16v96c0 8.7998 -7.2002 16 -16 16h-96c-8.7998 0 -16 -7.2002 -16 -16v-96c0 -8.7998 7.2002 -16 16 -16h96c8.7998 0 16 7.2002 16 16zM320 144v96c0 8.7998 -7.2002 16 -16 16h-96
c-8.7998 0 -16 -7.2002 -16 -16v-96c0 -8.7998 7.2002 -16 16 -16h96c8.7998 0 16 7.2002 16 16zM320 304v96c0 8.7998 -7.2002 16 -16 16h-96c-8.7998 0 -16 -7.2002 -16 -16v-96c0 -8.7998 7.2002 -16 16 -16h96c8.7998 0 16 7.2002 16 16zM480 -16v96
c0 8.7998 -7.2002 16 -16 16h-96c-8.7998 0 -16 -7.2002 -16 -16v-96c0 -8.7998 7.2002 -16 16 -16h96c8.7998 0 16 7.2002 16 16zM480 144v96c0 8.7998 -7.2002 16 -16 16h-96c-8.7998 0 -16 -7.2002 -16 -16v-96c0 -8.7998 7.2002 -16 16 -16h96c8.7998 0 16 7.2002 16 16
zM480 304v96c0 8.7998 -7.2002 16 -16 16h-96c-8.7998 0 -16 -7.2002 -16 -16v-96c0 -8.7998 7.2002 -16 16 -16h96c8.7998 0 16 7.2002 16 16z" />
    <glyph glyph-name="uniF14E" unicode="&#xf14e;" 
d="M288.672 136.672l-135.84 -135.775l-32.6719 32.6719l304.224 284.063l22.624 -22.624l-135.808 -135.775l73.6641 -73.6006c3.13574 -3.13574 8.19141 -3.13574 11.3281 0l33.9512 33.9521c3.13672 3.16797 8.25684 3.13574 11.3281 0
c3.13672 -3.13574 5.69629 -9.69629 5.69629 -14.624v-91.2637c-0.0644531 -7.04004 -5.85645 -12.8643 -12.9277 -12.8643c-7.07227 0 -89.8887 -0.0322266 -89.8887 -0.0322266c-5.69531 0 -12.8633 2.52832 -16 5.66406c-3.07129 3.13574 -3.13574 8.19238 0 11.3281
l33.9521 33.9521c3.13672 3.13574 3.13672 8.19141 0 11.3281zM64.2236 370.88c0 7.07227 5.79199 12.8643 12.9287 12.8643l91.2314 0.0322266c4.89648 -0.0322266 11.4883 -2.52832 14.6562 -5.63281c3.07227 -3.13574 3.13574 -8.19141 0 -11.3271l-33.9521 -33.9199
c-3.16797 -3.16895 -3.16797 -8.19238 0 -11.3281l77.6318 -77.6641l135.84 135.744l22.624 -22.624l-294.176 -294.112l-22.624 22.624l135.776 135.744l-77.6318 77.6641c-3.16797 3.13574 -8.19238 3.13574 -11.3281 0l-33.9521 -33.9521
c-3.13574 -3.13574 -8.25586 -3.13574 -11.3281 0c-3.16797 3.13574 -5.69629 10.3037 -5.69629 15.9678v89.9199z" />
    <glyph glyph-name="uniF14F" unicode="&#xf14f;" 
d="M256 128h-192v32h416v-32h-192v-88c0 -4.41602 3.58398 -8 8 -8h48c4.41602 0 8 -3.61621 8 -8c0 -4.41602 -2.87988 -10.8799 -6.33594 -14.3682l-64.5439 -64.5117c-5.02441 -4.99219 -13.248 -4.99219 -18.2402 0s-63.584 63.5518 -63.584 63.5518
c-4 4 -7.2959 10.9121 -7.2959 15.3281c0 4.38379 3.58398 8 8 8h48c4.41602 0 8 3.58398 8 8v88zM262.88 406.88c4.99219 5.02441 13.2158 5.02441 18.2402 0l64.5439 -64.5117c3.45605 -3.48828 6.33594 -9.95215 6.33594 -14.3682c0 -4.38379 -3.58398 -8 -8 -8h-48
c-4.41602 0 -8 -3.58398 -8 -8v-88h192v-32h-416v32h192v88c0 4.41602 -3.58398 8 -8 8h-48c-4.41602 0 -8 3.61621 -8 8c0 4.41602 3.2959 11.2959 7.2959 15.2959c0 0 58.5605 58.5918 63.584 63.584z" />
    <glyph glyph-name="uniF150" unicode="&#xf150;" 
d="M224 192v192h32v-416h-32v192h-88c-4.41602 0 -8 -3.58398 -8 -8v-48c0 -4.41602 -3.61621 -8 -8 -8c-4.41602 0 -10.8799 2.87988 -14.3682 6.33594l-64.5117 64.5439c-5.02441 5.02441 -5.02441 13.248 0 18.2402l63.584 63.584c4 4 10.8799 7.2959 15.2959 7.2959
c4.38379 0 8 -3.58398 8 -8v-48c0 -4.41602 3.58398 -8 8 -8h88zM502.88 185.12c4.99219 -4.99219 4.99219 -13.2158 0 -18.2402l-64.5117 -64.5439c-3.48828 -3.45605 -9.95215 -6.33594 -14.3682 -6.33594c-4.38379 0 -8 3.58398 -8 8v48c0 4.41602 -3.58398 8 -8 8h-88
v-192h-32v416h32v-192h88c4.41602 0 8 3.58398 8 8v48c0 4.41602 3.61621 8 8 8c4.41602 0 11.3281 -3.2959 15.3281 -7.2959c0 0 58.5596 -58.5605 63.5518 -63.584z" />
    <glyph glyph-name="uniF151" unicode="&#xf151;" 
d="M256 128h-192v32h416v-32h-192v-88c0 -4.41602 3.58398 -8 8 -8h48c4.41602 0 8 -3.61621 8 -8c0 -4.41602 -2.87988 -10.8799 -6.33594 -14.3682l-64.5439 -64.5117c-5.02441 -4.99219 -13.248 -4.99219 -18.2402 0s-63.584 63.5518 -63.584 63.5518
c-4 4 -7.2959 10.9121 -7.2959 15.3281c0 4.38379 3.58398 8 8 8h48c4.41602 0 8 3.58398 8 8v88zM262.88 406.88c4.99219 5.02441 13.2158 5.02441 18.2402 0l64.5439 -64.5117c3.45605 -3.48828 6.33594 -9.95215 6.33594 -14.3682c0 -4.38379 -3.58398 -8 -8 -8h-48
c-4.41602 0 -8 -3.58398 -8 -8v-88h192v-32h-416v32h192v88c0 4.41602 -3.58398 8 -8 8h-48c-4.41602 0 -8 3.61621 -8 8c0 4.41602 3.2959 11.2959 7.2959 15.2959c0 0 58.5605 58.5918 63.584 63.584z" />
    <glyph glyph-name="uniF152" unicode="&#xf152;" 
d="M224 192v192h32v-416h-32v192h-88c-4.41602 0 -8 -3.58398 -8 -8v-48c0 -4.41602 -3.61621 -8 -8 -8c-4.41602 0 -10.8799 2.87988 -14.3682 6.33594l-64.5117 64.5439c-5.02441 5.02441 -5.02441 13.248 0 18.2402l63.584 63.584c4 4 10.8799 7.2959 15.2959 7.2959
c4.38379 0 8 -3.58398 8 -8v-48c0 -4.41602 3.58398 -8 8 -8h88zM502.88 185.12c4.99219 -4.99219 4.99219 -13.2158 0 -18.2402l-64.5117 -64.5439c-3.48828 -3.45605 -9.95215 -6.33594 -14.3682 -6.33594c-4.38379 0 -8 3.58398 -8 8v48c0 4.41602 -3.58398 8 -8 8h-88
v-192h-32v416h32v-192h88c4.41602 0 8 3.58398 8 8v48c0 4.41602 3.61621 8 8 8c4.41602 0 11.3281 -3.2959 15.3281 -7.2959c0 0 58.5596 -58.5605 63.5518 -63.584z" />
    <glyph glyph-name="uniF153" unicode="&#xf153;" 
d="M288.672 136.672l-135.84 -135.775l-32.6719 32.6719l304.224 284.063l22.624 -22.624l-135.808 -135.775l73.6641 -73.6006c3.13574 -3.13574 8.19141 -3.13574 11.3281 0l33.9512 33.9521c3.13672 3.16797 8.25684 3.13574 11.3281 0
c3.13672 -3.13574 5.69629 -9.69629 5.69629 -14.624v-91.2637c-0.0644531 -7.04004 -5.85645 -12.8643 -12.9277 -12.8643c-7.07227 0 -89.8887 -0.0322266 -89.8887 -0.0322266c-5.69531 0 -12.8633 2.52832 -16 5.66406c-3.07129 3.13574 -3.13574 8.19238 0 11.3281
l33.9521 33.9521c3.13672 3.13574 3.13672 8.19141 0 11.3281zM64.2236 370.88c0 7.07227 5.79199 12.8643 12.9287 12.8643l91.2314 0.0322266c4.89648 -0.0322266 11.4883 -2.52832 14.6562 -5.63281c3.07227 -3.13574 3.13574 -8.19141 0 -11.3271l-33.9521 -33.9199
c-3.16797 -3.16895 -3.16797 -8.19238 0 -11.3281l77.6318 -77.6641l135.84 135.744l22.624 -22.624l-294.176 -294.112l-22.624 22.624l135.776 135.744l-77.6318 77.6641c-3.16797 3.13574 -8.19238 3.13574 -11.3281 0l-33.9521 -33.9521
c-3.13574 -3.13574 -8.25586 -3.13574 -11.3281 0c-3.16797 3.13574 -5.69629 10.3037 -5.69629 15.9678v89.9199z" />
    <glyph glyph-name="uniF154" unicode="&#xf154;" 
d="M421.824 210.752c16.4482 0 26.1758 -13.1523 26.1758 -29.4082v-128.031c0 -81.1523 -60.9277 -117.312 -143.264 -117.312h-23.168c-82.3359 0 -153.568 65.8242 -153.601 146.976v6.65625v9.66406v18.0166c0 64 -51.3281 120.831 -51.3281 120.831
c-9.8877 12.9922 -7.23145 31.4248 5.88867 41.1846l3.71191 2.75195c13.1514 9.79199 31.8398 7.2002 41.7598 -5.79199c0 0 60.416 -46.5605 64 -100.192c0.12793 0.0322266 0.223633 0.0644531 0.383789 0.0644531v207.84c0 16.2559 12.7041 29.4082 29.1846 29.4082
h4.60742c16.4805 0 29.8242 -13.1523 29.8242 -29.4082v-157.408c0 16.2559 18.3359 29.4082 34.8164 29.4082h4.60742c16.4805 0 29.8242 -13.1523 29.792 -29.4082v-21.3438c0 16.2559 13.376 29.4404 29.8242 29.4404h4.67188
c16.4805 0 29.8242 -13.1846 29.8242 -29.4404v-20.416c0 16.2559 11.168 25.9199 27.6162 25.9199h4.67188z" />
    <glyph glyph-name="uniF155" unicode="&#xf155;" 
d="M421.824 339.872c16.4482 0 26.1758 -13.1523 26.1758 -29.376v-157.376v-70.1123c0 -81.1836 -60.8965 -147.008 -143.232 -147.008h-23.168c-82.3359 0 -149.088 65.8242 -149.119 147.008v6.62402v9.66406v42.2725c0 56.6074 -19.8086 83.04 -19.8086 83.04
c-9.8877 12.96 -7.26367 31.3916 5.8877 41.1836l3.68066 2.75195c13.1514 9.72852 31.8398 7.16797 41.792 -5.82422c0 0 28.7676 -32.96 32.3516 -86.5918c0.160156 0 0.255859 0.0322266 0.352539 0.0644531v191.68c0 16.2559 13.3438 29.4404 29.8232 29.4404h4.64062
c16.4795 0 29.792 -13.1846 29.792 -29.4404v50.7197c0 16.2559 13.376 29.4082 29.8555 29.4082h4.6084c16.4795 0 29.8242 -13.1523 29.792 -29.4082v-50.7197c0 16.2559 13.3438 29.4404 29.8242 29.4404h4.67188c16.4795 0 29.8242 -13.1846 29.8242 -29.4404v-57.376
c0 16.2236 11.1357 29.376 27.6152 29.376h4.64062z" />
    <glyph glyph-name="uniF156" unicode="&#xf156;" 
d="M302.912 44.5117c0 -22.4961 -7.32812 -44.5117 -46.9121 -44.5117c-41.9844 0 -46.9121 22.4961 -46.9121 44.5117c0 24.96 9.18457 43.8398 46.9121 43.8398c39.0078 0 46.9121 -18.2715 46.9121 -43.8398zM263.968 394.784
c55.2959 0 114.048 -34.752 114.048 -99.1357c0 -47.9365 -27.6475 -72.1924 -52.0635 -93.5684c-18.5918 -16.3203 -34.6562 -30.3682 -34.6562 -51.9678l-0.12793 -18.624c-0.0957031 -3.42383 -2.87988 -6.24023 -6.33594 -6.24023h-59.3281
c-3.45605 0 -6.24023 2.81641 -6.33594 6.24023v23.1035c0 41.6641 25.5996 64.1924 48.1924 84.0645c18.2393 16.0635 34.0156 29.9199 34.0156 50.9434c0 20.5127 -18.4316 35.9688 -42.8799 35.9688c-22.752 0 -45.4717 -17.0879 -48.6084 -18.6885
c-3.13574 -1.59961 -7.80762 -2.84766 -10.0156 -0.0957031l-33.3125 41.4082c-2.04785 2.81543 -3.07129 6.30371 0.543945 9.72754c4.28809 4.0957 38.5928 36.8643 96.8643 36.8643z" />
    <glyph glyph-name="uniF157" unicode="&#xf157;" 
d="M508.928 182.464c1.63184 -1.28027 2.7207 -3.13574 2.97656 -5.18359s-0.288086 -4.12793 -1.53613 -5.79199l-34.9121 -48.0967c-1.53613 -2.04785 -3.87207 -3.10352 -6.20801 -3.10352c-1.63184 0 -3.2959 0.543945 -4.7041 1.59961l-16.6719 12.7363v-190.816
c0 -4.31934 -3.48828 -7.80762 -7.83984 -7.80762h-120.032v216.576h-128v-216.576h-120.032c-4.31934 0 -7.80762 3.48828 -7.83984 7.77637v190.815l-16.6719 -12.7354c-1.37598 -1.02441 -3.04004 -1.60059 -4.73633 -1.60059
c-0.383789 0 -0.704102 0.0322266 -1.05566 0.0957031c-2.08008 0.256836 -3.93652 1.34473 -5.18359 3.00879l-34.8809 48.1279c-2.62402 3.45605 -1.95117 8.35156 1.47266 10.9756l248.191 207.36c1.4082 1.05566 3.04004 1.59961 4.73633 1.59961
c1.66406 0 3.32812 -0.511719 4.73633 -1.59961l74.5273 -68.832v54.8799c0 4.32031 3.48828 7.80762 7.83984 7.80762h54.4326c4.32031 0 7.80762 -3.4873 7.80762 -7.80762v-104.896z" />
    <glyph glyph-name="uniF158" unicode="&#xf158;" 
d="M365.504 265.728c-23.6162 -21.4395 -44.0635 -39.9355 -44.0635 -73.7275s20.4473 -52.2881 44.0635 -73.6963c23.6797 -21.4717 50.4961 -45.7598 50.4961 -86.5273v-73.9844c0 -12.0322 -9.69629 -21.792 -21.6963 -21.792h-276.64
c-11.9678 0 -21.6641 9.75977 -21.6641 21.7598v73.9844c0 40.7998 26.8164 65.0557 50.4961 86.5283c23.6475 21.4395 44.0957 39.9355 44.0957 73.7275c-0.0322266 33.792 -20.4795 52.2881 -44.0957 73.6963c-23.6797 21.4717 -50.4961 45.7598 -50.4961 86.5273v73.9844
c0 12.0322 9.69629 21.792 21.6641 21.792h276.64c12 0 21.6963 -9.75977 21.6963 -21.792v-73.9521c0 -40.7998 -26.8164 -65.0557 -50.4961 -86.5283zM322.56 313.184c22.1123 20.0322 29.4404 28.4805 29.4404 39.0723v31.7441h-192v-31.7441
c0 -10.5918 7.32812 -19.04 29.5361 -39.2002c27.4561 -24.8633 65.0234 -58.9434 65.0234 -121.088c-0.03125 -62.0801 -37.5996 -96.1602 -65.1514 -121.151c-22.0801 -20 -29.4082 -28.4805 -29.4082 -39.0723v-31.7441h192v31.7441
c0 10.5918 -7.32812 19.0723 -29.5684 39.2002c-27.4561 24.8633 -64.9912 58.9434 -65.0234 121.088c0.0322266 62.0801 37.5996 96.1602 65.1514 121.151zM216.704 32c-4.22363 0 -5.24805 2.84766 -2.24023 6.30371l36.0957 41.9844
c2.97656 3.48828 7.87207 3.48828 10.8486 0l36.0957 -41.9844c3.00781 -3.45605 1.98438 -6.30371 -2.20801 -6.30371h-78.5918zM270.624 320c1.56836 0 1.95215 -1.05566 0.832031 -2.33594l-13.4404 -15.6484c-1.11914 -1.2793 -2.91211 -1.2793 -4.03125 0
l-13.4082 15.6484c-1.12012 1.28027 -0.736328 2.33594 0.832031 2.33594h29.2158z" />
    <glyph glyph-name="uniF159" unicode="&#xf159;" 
d="M480 272c17.5996 0 32 -14.3682 32 -32v-95.0078c0 -17.5684 -14.4004 -32 -32 -32h-448c-17.5996 0 -32 14.4316 -32 32v95.0078c0 17.6318 14.4004 32 32 32h448zM464 175.616c8.83203 0 16 7.16797 16 16s-7.16797 16 -16 16h-416c-8.83203 0 -16 -7.16797 -16 -16
s7.16797 -16 16 -16h416z" />
    <glyph glyph-name="uniF15A" unicode="&#xf15a;" 
d="M496 448c8.7998 0 16 -7.2002 16 -16v-448c0 -8.7998 -7.2002 -16 -16 -16h-480c-8.7998 0 -16 7.2002 -16 16v448c0 8.7998 7.2002 16 16 16h480zM448 32v352h-384v-352s32 96 64 96s96 -64 96 -64s64 160 96 160s128 -128 128 -192zM130.912 229.376
c-31.4883 16.0645 -43.9678 54.624 -27.9043 86.0801c11.8086 23.168 35.7441 35.8721 60.0957 34.7197c-6.87988 -5.50391 -12.7998 -12.416 -17.0557 -20.7676c-16.0635 -31.4561 -3.55176 -70.0166 27.9365 -86.0801c8.35156 -4.25586 17.1836 -6.40039 25.9834 -6.81641
c-19.0713 -15.1992 -45.9199 -18.9434 -69.0557 -7.13574z" />
    <glyph glyph-name="uniF15B" unicode="&#xf15b;" 
d="M480 416c17.5996 0 32 -14.4004 32 -32v-32c0 -17.5996 -14.4004 -32 -32 -32h-288c-17.5996 0 -32 14.4004 -32 32v32c0 17.5996 14.4004 32 32 32h288zM480 224c17.5996 0 32 -14.4004 32 -32v-32c0 -17.5996 -14.4004 -32 -32 -32h-192c-17.5996 0 -32 14.4004 -32 32
v32c0 17.5996 14.4004 32 32 32h192zM480 32c17.5996 0 32 -14.4004 32 -32v-32c0 -17.5996 -14.4004 -32 -32 -32h-288c-17.5996 0 -32 14.4004 -32 32v32c0 17.5996 14.4004 32 32 32h288zM192 192v-32h-88c-4.41602 0 -8 -3.58398 -8 -8v-48
c0 -4.41602 -3.61621 -8 -8 -8c-4.41602 0 -10.8799 2.87988 -14.3682 6.33594l-64.5117 64.5439c-5.02441 5.02441 -5.02441 13.248 0 18.2402l63.584 63.584c4 4 10.8799 7.2959 15.2959 7.2959c4.38379 0 8 -3.58398 8 -8v-48c0 -4.41602 3.58398 -8 8 -8h88z" />
    <glyph glyph-name="uniF15C" unicode="&#xf15c;" 
d="M480 416c17.5996 0 32 -14.4004 32 -32v-32c0 -17.5996 -14.4004 -32 -32 -32h-288c-17.5996 0 -32 14.4004 -32 32v32c0 17.5996 14.4004 32 32 32h288zM480 224c17.5996 0 32 -14.4004 32 -32v-32c0 -17.5996 -14.4004 -32 -32 -32h-192c-17.5996 0 -32 14.4004 -32 32
v32c0 17.5996 14.4004 32 32 32h192zM480 32c17.5996 0 32 -14.4004 32 -32v-32c0 -17.5996 -14.4004 -32 -32 -32h-288c-17.5996 0 -32 14.4004 -32 32v32c0 17.5996 14.4004 32 32 32h288zM182.88 185.12c5.02441 -4.99219 5.02441 -13.2158 0 -18.2402l-64.5117 -64.5439
c-3.48828 -3.45605 -9.95215 -6.33594 -14.3682 -6.33594c-4.38379 0 -8 3.58398 -8 8v48c0 4.41602 -3.58398 8 -8 8h-88v32h88c4.41602 0 8 3.58398 8 8v48c0 4.41602 3.61621 8 8 8c4.41602 0 11.2959 -3.2959 15.2959 -7.2959c0 0 58.5918 -58.5605 63.584 -63.584z" />
    <glyph glyph-name="uniF15D" unicode="&#xf15d;" 
d="M272 416c132.32 0 240 -107.68 240 -240s-107.68 -240 -240 -240s-240 107.68 -240 240s107.68 240 240 240zM307.2 40.5762v174.88c0 3.48828 -1.37598 8.54395 -9.28027 8.54395h-50.9121c-7.87207 0 -10.208 -3.13574 -10.208 -8.54395v-174.88
c0 -5.08789 2.33594 -8.57617 10.208 -8.57617h50.9443c7.87207 0 9.24805 4.67188 9.24805 8.57617zM272.224 256c30.1768 0 35.584 15.9043 35.584 32.1924c0 18.4639 -6.30371 31.8076 -35.584 31.8076c-28.832 0 -36.0312 -14.1758 -36.0312 -31.8076
c0 -15.4561 4.51172 -32.1924 36.0312 -32.1924z" />
    <glyph glyph-name="uniF15E" unicode="&#xf15e;" 
d="M272 416c132.32 0 240 -107.68 240 -240s-107.68 -240 -240 -240s-240 107.68 -240 240s107.68 240 240 240zM307.2 40.5762v174.88c0 3.48828 -1.37598 8.54395 -9.28027 8.54395h-50.9121c-7.87207 0 -10.208 -3.13574 -10.208 -8.54395v-174.88
c0 -5.08789 2.33594 -8.57617 10.208 -8.57617h50.9443c7.87207 0 9.24805 4.67188 9.24805 8.57617zM272.224 256c30.1768 0 35.584 15.9043 35.584 32.1924c0 18.4639 -6.30371 31.8076 -35.584 31.8076c-28.832 0 -36.0312 -14.1758 -36.0312 -31.8076
c0 -15.4561 4.51172 -32.1924 36.0312 -32.1924z" />
    <glyph glyph-name="uniF15F" unicode="&#xf15f;" 
d="M272.672 -17.9521c-0.671875 -5.72754 -3.87207 -14.0479 -16 -14.0479h-71.6797c-10.8799 0 -13.4404 5.75977 -11.5205 14.0479l55.6807 288.032c1.91992 8.92773 6.39941 14.0479 17.2793 14.0479h71.7119c11.4883 0 11.4883 -8.32031 10.208 -14.0479zM352 384
c0 -29.4404 -11.4883 -65.2803 -62.6875 -65.2803c-33.9209 0 -44.1924 14.0801 -44.1924 33.2803c0 33.9199 16.0322 64 62.752 64c32.6396 0 44.1279 -12.1602 44.1279 -32z" />
    <glyph glyph-name="uniF160" unicode="&#xf160;" 
d="M512 288.672c0 -0.992188 -0.12793 -2.04785 -0.12793 -3.07227c0 -0.832031 0.12793 -1.72754 0.12793 -2.5918c0 -23.6797 -5.05566 -46.1436 -14.0479 -66.4961c-22.5918 -56.1914 -71.0078 -98.4639 -133.888 -98.4639h-2.75195
c-2.97656 0.224609 -8.06445 0.224609 -11.3281 0h-2.97656c-18.752 0 -38.0479 5.02441 -38.0479 5.02441c-8.51172 2.23926 -20.0645 -0.543945 -25.6963 -6.17578c-5.63184 -5.66406 -12.7676 -7.71289 -15.9033 -4.57617c-3.10449 3.16797 -8.22461 3.16797 -11.3604 0
c-3.13574 -3.13672 -8.25586 -5.69629 -11.3604 -5.69629c-3.10352 0 -8.22363 -2.5918 -11.3594 -5.69629c-3.13672 -3.10352 -5.69629 -10.8154 -5.69629 -17.0557s-5.08789 -16.4805 -11.3281 -22.6885l-0.0957031 -0.0957031
c-6.24023 -6.24023 -18.1758 -13.5996 -26.5283 -16.3838l-3.77539 -1.24805c-8.38477 -2.78418 -15.2002 -7.61621 -15.2002 -10.7842c0 -3.10352 -2.56055 -8.25586 -5.66406 -11.3604c-3.10449 -3.10352 -5.66406 -8.25586 -5.66406 -11.3594
c0 -3.10449 -2.56055 -8.22363 -5.69629 -11.3604c-3.13574 -3.13574 -10.8154 -5.69531 -17.0879 -5.69531c-6.27148 0 -11.3916 -5.12012 -11.3916 -11.3604c0 -6.27246 -5.12012 -16.5117 -11.3281 -22.7197l-0.0966797 -0.12793
c-6.20801 -6.24023 -16.416 -11.3281 -22.6875 -11.3281c-6.27246 0 -13.9521 -2.56055 -17.0879 -5.66406c-3.13574 -3.13672 -12.8965 -5.69629 -21.6963 -5.69629h-13.5039c-8.7998 0 -18.5596 2.55957 -21.6963 5.66406
c-3.13574 3.10352 -5.69531 12.8643 -5.69531 21.6641v59.0723c0 8.83203 5.12012 21.1191 11.3281 27.3271l160.159 160.16c6.20801 6.20801 9.2168 18.208 6.65625 26.624c0 0 -7.45605 24.5762 -7.45605 46.4961c0 91.1045 73.8564 164.992 164.992 164.992
c0.959961 0 1.85645 -0.160156 2.81641 -0.160156c0.927734 0 1.8877 0.160156 2.84766 0.160156c87.9678 0 159.296 -71.3281 159.296 -159.328zM261.28 188.928c0.447266 1.15234 -1.47266 4.41602 -2.30469 5.24805s-2.36719 2.04785 -3.35938 2.7207h-1.08789h-1.08789
c-0.992188 -0.672852 -6.91211 -6.30469 -13.1201 -12.5127l-192.896 -192.928c-6.24023 -6.20801 -11.8721 -12.1279 -12.5439 -13.0879v-1.12012v-1.05566c0.671875 -0.992188 1.91992 -2.52832 2.75195 -3.36035s2.36816 -2.08008 3.39258 -2.75195h1.05566h1.05566
c0.992188 0.671875 6.91211 6.33594 13.1201 12.5439l192.928 192.896c6.20801 6.24023 11.6484 12.2568 12.0967 13.4082zM393.6 279.456c27.7129 0 50.1445 22.4316 50.1445 50.0801c0 27.7119 -22.4316 50.1436 -50.1445 50.1436
c-27.6797 0 -50.1113 -22.4316 -50.1113 -50.1436c0 -27.6797 22.4316 -50.0801 50.1113 -50.0801z" />
    </font>
</defs>
</svg>
