<?xml version="1.0" encoding="UTF-8" standalone="no"?>
<svg width="3291px" height="3283px" viewBox="0 0 3291 3283" version="1.1" xmlns="http://www.w3.org/2000/svg" xmlns:xlink="http://www.w3.org/1999/xlink" xmlns:sketch="http://www.bohemiancoding.com/sketch/ns">
    <title>Slice 1</title>
    <description>Created with Sketch (http://www.bohemiancoding.com/sketch)</description>
    <defs>
        <path id="path-1" d="M0.06,0.31 L3290.59,0.31 L3290.59,3282.94 L0.06,3282.94"></path>
        <mask id="mask-2" sketch:name="Clip 2" fill="white">
            <use xlink:href="#path-1"></use>
        </mask>
    </defs>
    <g id="Page-1" stroke="none" stroke-width="1" fill="none" fill-rule="evenodd" sketch:type="MSPage">
        <g id="bolt-beeldmerk" sketch:type="MSLayerGroup">
            <g id="Group-5">
                <g id="Clip-2"></g>
                <path d="M443.416,2824.73 L22.477,1183.37 L1235.58,0.31 L2869.63,458.556 L3290.59,2099.97 L2077.46,3283 L443.416,2824.73" id="Fill-1" fill="#1a364d" sketch:type="MSShapeGroup" mask="url(#mask-2)"></path>
                <path d="M773.511,2927.14 L0,1578.16 L783.89,235.206 L2341.26,241.179 L3114.8,1590.16 L2330.89,2933.11 L773.511,2927.14 Z M2254.6,1424.31 C2354.81,1786.98 2142.03,2162.21 1779.34,2262.44 C1416.67,2362.66 1041.44,2149.91 941.206,1787.21 C841.018,1424.52 1053.77,1049.29 1416.44,949.054 C1779.13,848.87 2154.36,1061.59 2254.6,1424.31 Z" id="Fill-4" fill="#FFFFFF" sketch:type="MSShapeGroup" mask="url(#mask-2)"></path>
            </g>
        </g>
    </g>
</svg>