<?xml version="1.0" standalone="no"?>
<!DOCTYPE svg PUBLIC "-//W3C//DTD SVG 1.1//EN" "http://www.w3.org/Graphics/SVG/1.1/DTD/svg11.dtd" >
<svg xmlns="http://www.w3.org/2000/svg">
<metadata></metadata>
<defs>
<font id="allerbold" horiz-adv-x="1228" >
<font-face units-per-em="2048" ascent="1638" descent="-410" />
<missing-glyph horiz-adv-x="450" />
<glyph unicode="&#xfb01;" horiz-adv-x="1294" d="M35 952q0 27 2 51.5t8 55.5h168v51q0 98 36 175t98.5 129t150.5 80t192 28q102 0 188.5 -12.5t168.5 -47.5q-4 -68 -21.5 -125t-46.5 -104q-72 29 -131.5 39t-126.5 10q-39 0 -78 -7t-69.5 -26.5t-50 -54.5t-21.5 -90v-45h649v-1059q-74 -12 -143 -12q-68 0 -142 12v838 h-364v-838q-74 -12 -144 -12q-72 0 -145 12v838h-168q-6 33 -8 59.5t-2 54.5z" />
<glyph unicode="&#xfb02;" horiz-adv-x="1388" d="M35 952q0 27 2 51.5t8 55.5h168v51q0 199 141.5 305.5t397.5 106.5q55 0 102 -2t92 -6.5t94.5 -11.5t108.5 -15v-1065q0 -63 7 -102t22.5 -60.5t40 -30t61.5 -8.5q16 0 35.5 2t38.5 6q23 -78 22 -157v-32.5t-4 -33.5q-33 -10 -79 -14t-85 -4q-158 0 -252 87t-94 283v914 q-35 10 -69.5 11t-57.5 1q-45 0 -87 -7t-73.5 -27.5t-51 -55.5t-21.5 -90v-45h225q6 -33 8 -59.5t2 -55.5q0 -27 -2 -51.5t-8 -54.5h-225v-838q-74 -12 -144 -12q-72 0 -145 12v838h-168q-6 33 -8 59.5t-2 54.5z" />
<glyph unicode="&#xfb03;" horiz-adv-x="1951" d="M35 952q0 27 2 51.5t8 55.5h168v39q0 199 110.5 305t290.5 106q68 0 119 -6t101 -20q-10 -74 -31 -126t-45 -104q-20 6 -43 11.5t-60 5.5q-33 0 -60.5 -7.5t-48 -26.5t-31.5 -54t-13 -90v-33h381v51q0 98 35.5 175t98 129t150.5 80t193 28q102 0 188 -12.5t168 -47.5 q-4 -68 -21.5 -125t-45.5 -104q-72 29 -131.5 39t-126.5 10q-39 0 -78 -7t-70 -26.5t-50 -54.5t-22 -90v-45h650v-1059q-74 -12 -144 -12q-68 0 -141 12v838h-365v-838q-74 -12 -143 -12q-72 0 -145 12v838h-381v-838q-74 -12 -144 -12q-72 0 -145 12v838h-168 q-6 33 -8 59.5t-2 54.5z" />
<glyph unicode="&#xfb04;" horiz-adv-x="2058" d="M35 952q0 27 2 51.5t8 55.5h168v39q0 199 110.5 305t290.5 106q68 0 119 -6t101 -20q-10 -74 -31 -126t-45 -104q-20 6 -43 11.5t-60 5.5q-33 0 -60.5 -7.5t-48 -26.5t-31.5 -54t-13 -90v-33h381v51q0 199 141 305.5t397 106.5q55 0 102.5 -2t92.5 -6.5t94 -11.5t109 -15 v-1065q0 -63 7 -102t22.5 -60.5t40 -30t61.5 -8.5q16 0 35.5 2t37.5 6q23 -84 23 -163v-33t-4 -27q-33 -10 -79 -14t-85 -4q-158 0 -252 87t-94 283v914q-35 10 -70 11t-57 1q-45 0 -87 -7t-74 -27.5t-51 -55.5t-22 -90v-45h226q6 -33 8 -59.5t2 -55.5q0 -27 -2 -51.5 t-8 -54.5h-226v-838q-74 -12 -143 -12q-72 0 -145 12v838h-381v-838q-74 -12 -144 -12q-72 0 -145 12v838h-168q-6 33 -8 59.5t-2 54.5z" />
<glyph horiz-adv-x="2048" />
<glyph horiz-adv-x="2048" />
<glyph unicode="&#xd;" horiz-adv-x="1024" />
<glyph unicode=" "  horiz-adv-x="450" />
<glyph unicode="&#x09;" horiz-adv-x="450" />
<glyph unicode="&#xa0;" horiz-adv-x="450" />
<glyph unicode="!" horiz-adv-x="612" d="M143 150q0 74 13 151q76 12 149 12q74 0 152 -12q12 -78 12 -149q0 -76 -12 -152q-78 -12 -150 -12q-75 0 -151 12q-12 76 -13 150zM147 1473q80 12 158 12q80 0 160 -12l-21 -1002q-72 -12 -137 -12q-70 0 -139 12z" />
<glyph unicode="&#x22;" horiz-adv-x="878" d="M102 899v576q35 6 66 8t65 2q35 0 67 -2t67 -8v-576q-35 -6 -66 -8t-65 -2q-35 0 -67 2t-67 8zM512 899v576q35 6 66 8t65 2q35 0 67 -2t67 -8v-576q-35 -6 -66 -8t-65 -2q-35 0 -67 2t-67 8z" />
<glyph unicode="#" horiz-adv-x="1503" d="M109 526q0 29 3 55.5t7 55.5h248l20 248h-229q-4 29 -7.5 55.5t-3.5 54.5q0 29 3.5 54.5t7.5 54.5h248l26 309q33 6 62.5 8t64.5 2q31 0 60.5 -2t60.5 -8l-27 -309h250l27 309q35 6 63.5 8t63.5 2q31 0 60.5 -2t62.5 -8l-27 -309h215q4 -29 7 -52.5t3 -52.5t-3 -57.5 t-7 -56.5h-231l-21 -248h213q4 -29 7 -53.5t3 -53.5t-3 -55t-7 -55h-231l-29 -359q-35 -6 -64.5 -8t-62.5 -2t-61.5 2t-61.5 8l29 359h-248l-29 -359q-35 -6 -64.5 -8t-64.5 -2q-31 0 -59.5 2t-63.5 8l29 359h-231q-8 47 -8 106zM616 637h250l21 248h-250z" />
<glyph unicode="$" d="M104 51q6 59 22.5 119.5t39.5 126.5q86 -35 161.5 -48t161.5 -13q129 0 200 44t71 142q0 49 -19.5 81t-49 52t-66.5 34.5t-72 31.5l-109 47q-68 29 -123 60.5t-95 75.5t-61.5 103.5t-21.5 145.5q0 184 104.5 290.5t289.5 129.5v217q43 12 88 12q43 0 90 -12v-211 q82 -6 157.5 -23.5t159.5 -46.5q-12 -119 -65 -233q-31 12 -63 24t-67.5 20.5t-80.5 13.5t-103 5q-35 0 -70.5 -5t-64.5 -21.5t-47 -46t-18 -76.5q0 -41 14 -70t38.5 -48.5t55.5 -33.5t62 -27l122 -51q78 -33 141.5 -65.5t107.5 -78.5t68.5 -112.5t24.5 -167.5 q0 -168 -95 -283.5t-277 -156.5v-238q-43 -12 -88 -12t-90 12v217h-17q-68 0 -121 4.5t-101 13.5t-95 23.5t-99 34.5z" />
<glyph unicode="%" horiz-adv-x="2150" d="M103 1036q0 84 23.5 163t71.5 139.5t123 97.5t177 37q100 0 175 -37t124 -97.5t72.5 -139.5t23.5 -163t-23.5 -161.5t-72.5 -138t-124 -97.5t-175 -37q-102 0 -177 37t-123 97.5t-71.5 138t-23.5 161.5zM355 1036q0 -109 34.5 -174t108.5 -65t108.5 65.5t34.5 173.5 q0 111 -34.5 175.5t-108.5 64.5t-108.5 -64.5t-34.5 -175.5zM448 4l990 1448q70 12 143 12q63 0 141 -12l-991 -1448q-72 -12 -137 -12q-70 0 -146 12zM1276 409q0 84 23.5 163t71.5 139.5t123 97.5t177 37q100 0 175 -37t124 -97.5t72.5 -139.5t23.5 -163t-23.5 -161.5 t-72.5 -138t-124 -97.5t-175 -37q-102 0 -177 37t-123 97.5t-71.5 138t-23.5 161.5zM1528 409q0 -109 34.5 -174t108.5 -65t108.5 65.5t34.5 173.5q0 111 -34.5 175.5t-108.5 64.5t-108.5 -64.5t-34.5 -175.5z" />
<glyph unicode="&#x26;" horiz-adv-x="1562" d="M100 418q0 74 21.5 139.5t56.5 118.5t79 91t89 56q-76 41 -131 116t-55 187q0 92 35.5 162t98 116t145.5 69.5t179 23.5q59 0 134 -9t155 -38q0 -117 -63 -215q-68 25 -121 30t-90 5q-98 0 -141 -46t-43 -110q0 -35 10 -64.5t34.5 -51t64.5 -33t99 -11.5h349l241 289h45 v-289h209q6 -31 8 -55.5t2 -50.5q0 -29 -2 -55.5t-8 -59.5h-209v-250q0 -127 -44 -221t-127 -158.5t-199.5 -96.5t-262.5 -32q-106 0 -206.5 24t-179 77t-126 137t-47.5 205zM422 479q0 -115 62.5 -184.5t207.5 -69.5q98 0 158.5 29t95.5 76t48.5 106.5t15.5 122.5v174h-344 q-111 0 -177.5 -70.5t-66.5 -183.5z" />
<glyph unicode="'" horiz-adv-x="468" d="M102 899v576q35 6 66 8t65 2q35 0 67 -2t67 -8v-576q-35 -6 -66 -8t-65 -2q-35 0 -67 2t-67 8z" />
<glyph unicode="(" horiz-adv-x="731" d="M102 625q0 172 19.5 316t52.5 263t76 214t90 171q18 6 56 9.5t81 3.5q41 0 82 -3.5t70 -9.5q-25 -41 -64 -122t-75.5 -201.5t-64.5 -280.5t-28 -360q0 -201 28 -362t64.5 -281.5t75.5 -201.5t64 -122q-29 -6 -70 -9t-82 -3q-43 0 -81 3t-56 9q-47 76 -90 172t-76 215 t-52.5 263.5t-19.5 316.5z" />
<glyph unicode=")" horiz-adv-x="731" d="M102 -342q25 41 64 122t76 201.5t64.5 281.5t27.5 362t-27.5 360.5t-64.5 280t-76 201.5t-64 122q29 6 70 9.5t82 3.5q43 0 81 -3.5t56 -9.5q47 -76 90 -171t76 -214t52.5 -263t19.5 -316t-19.5 -316.5t-52.5 -263.5t-76 -215t-90 -172q-18 -6 -56 -9t-81 -3q-41 0 -82 3 t-70 9z" />
<glyph unicode="*" horiz-adv-x="991" d="M74 1090q4 39 18 76.5t31 70.5l274 -63q-18 -109 -63 -193zM193 709l147 239q84 -43 164 -119l-185 -213q-35 16 -66.5 40t-59.5 53zM416 1192l22 281q37 6 74 6q41 0 82 -6l24 -281q-29 -4 -54 -6t-52 -2q-57 0 -96 8zM532 831q80 76 164 119l148 -239 q-29 -29 -60.5 -52.5t-66.5 -40.5zM637 1174l274 65q18 -35 29.5 -74t17.5 -73l-260 -111q-25 49 -40 98t-21 95z" />
<glyph unicode="+" d="M156 723q0 63 12 125h321v362q61 12 123 13q63 0 125 -13v-362h322q12 -61 12 -123q0 -63 -12 -125h-322v-362q-61 -12 -123 -13q-63 0 -125 13v362h-321q-12 61 -12 123z" />
<glyph unicode="," horiz-adv-x="595" d="M70 -229l135 524q35 8 69.5 11t67.5 3t72 -3t73 -11l-149 -524q-35 -8 -70 -10.5t-67 -2.5q-33 0 -65 2t-66 11z" />
<glyph unicode="-" horiz-adv-x="759" d="M106 561q0 66 13 127h522q12 -61 12 -125q0 -66 -12 -127h-522q-12 61 -13 125z" />
<glyph unicode="." horiz-adv-x="591" d="M133 150q0 74 12 151q76 12 150 12t151 -12q12 -78 13 -149q0 -76 -13 -152q-78 -12 -149 -12q-76 0 -152 12q-12 76 -12 150z" />
<glyph unicode="/" horiz-adv-x="837" d="M25 0l497 1473q76 12 148 12q70 0 143 -12l-500 -1473q-74 -12 -145 -12q-70 0 -143 12z" />
<glyph unicode="0" d="M86 664q0 150 33 276.5t98.5 218.5t166.5 144.5t241 52.5q137 0 237.5 -52.5t166 -144.5t96 -219t30.5 -276q0 -150 -32.5 -276t-98.5 -218t-168.5 -143.5t-239.5 -51.5t-237 51.5t-164.5 143.5t-96.5 218t-32 276zM393 664q0 -227 62 -335t166 -108t162.5 107.5 t58.5 335.5q0 227 -58.5 334.5t-162.5 107.5q-106 0 -167 -107.5t-61 -334.5z" />
<glyph unicode="1" d="M172 1081l588 258h55v-1093h293q6 -35 8 -63.5t2 -57.5q0 -33 -2 -61.5t-8 -63.5h-872q-6 35 -8.5 63.5t-2.5 61.5q0 29 2 57.5t9 63.5h296v717l-251 -101q-39 51 -66 105q-27 55 -43 114z" />
<glyph unicode="2" d="M115 31l299 391q70 92 125 161.5t93 128t57.5 108.5t19.5 102q0 86 -60.5 133t-169.5 47q-45 0 -78.5 -4t-64.5 -12.5t-60.5 -19.5t-62.5 -26q-27 57 -46.5 117t-23.5 121q49 18 91 33.5t85 25t89.5 14.5t105.5 5q109 0 201 -23.5t158.5 -73t103.5 -124t37 -174.5 q0 -74 -20.5 -141.5t-57.5 -134.5t-87 -137.5t-112 -152.5l-108 -145h436q12 -61 12 -121q0 -68 -12 -129h-936z" />
<glyph unicode="3" d="M82 -70q4 63 23.5 127t48.5 113q78 -25 146.5 -41t158.5 -16q66 0 124 15t101 47t68.5 81t25.5 119q0 51 -22.5 89t-59.5 62.5t-86 35.5t-102 11q-35 0 -72 -2t-71 -12l-21 31l274 495h-450q-12 61 -12 123q0 66 12 127h856l20 -35l-329 -546h8q80 0 144.5 -31t108.5 -81 t67.5 -115.5t23.5 -133.5q0 -131 -45 -230.5t-125 -166t-188.5 -100t-235.5 -33.5q-61 0 -109.5 3t-92.5 11t-89 21.5t-100 31.5z" />
<glyph unicode="4" d="M33 195l579 1171q70 -8 134.5 -29.5t121.5 -66.5l-422 -856h293v327q35 4 68 7.5t67 3.5q37 0 74 -3.5t74 -7.5v-327h147q12 -59 13 -123q0 -31 -3 -63.5t-10 -61.5h-147v-287q-35 -4 -67.5 -7t-67.5 -3q-37 0 -74 3t-74 7v287h-688z" />
<glyph unicode="5" d="M104 -76q6 63 27 125t45 121q72 -25 135.5 -39t134.5 -14q92 0 154 20.5t100.5 54t55 77.5t16.5 91q0 104 -67.5 162t-219.5 58q-59 0 -115.5 -11.5t-113.5 -40.5l-31 25l31 782h733q12 -61 12 -123q0 -66 -12 -127h-471l-12 -292q37 8 65.5 11t59.5 3q100 0 182 -27.5 t140.5 -82t91 -134.5t32.5 -184q0 -127 -44 -223.5t-125 -162t-196.5 -98t-258.5 -32.5q-27 0 -67 3t-86 10t-97 19.5t-99 28.5z" />
<glyph unicode="6" d="M117 573q0 186 49 349t149.5 285t253 195t359.5 83q10 -33 17 -66t7 -67q0 -51 -18 -109q-115 -4 -203 -41t-150.5 -97.5t-102.5 -138t-54 -163.5q18 27 44 52.5t61.5 47t82.5 34.5t109 13q88 0 168 -29.5t140.5 -88t96 -148.5t35.5 -209q0 -123 -44 -216t-115.5 -156.5 t-166 -95.5t-192.5 -32q-256 0 -391 149.5t-135 448.5zM422 479q0 -129 58.5 -197.5t156.5 -68.5q94 0 157.5 63.5t63.5 192.5q0 135 -60.5 193.5t-152.5 58.5q-102 0 -162.5 -60.5t-60.5 -181.5z" />
<glyph unicode="7" d="M129 1208q0 66 12 127h1008l12 -24l-602 -1463q-74 16 -140.5 43t-129.5 74l469 1120h-617q-12 61 -12 123z" />
<glyph unicode="8" d="M96 389q0 78 21.5 140.5t57.5 110.5t80 82.5t91 57.5q-80 47 -132 129t-52 187q0 86 34.5 155.5t95 118.5t143.5 76t179 27t179.5 -27t143.5 -76t95 -118.5t35 -155.5q0 -104 -53 -185.5t-133 -130.5q45 -23 91 -56.5t80.5 -81.5t57.5 -110.5t23 -142.5 q0 -111 -44.5 -189.5t-117 -129t-165.5 -73t-192 -22.5q-98 0 -191 22.5t-166 73t-117 129.5t-44 189zM391 414q0 -96 58.5 -149.5t164.5 -53.5q111 0 167.5 53t56.5 150q0 98 -64 159.5t-162 94.5q-98 -33 -159.5 -95.5t-61.5 -158.5zM434 1085q0 -86 50 -136t130 -79 q82 29 132.5 79t50.5 136q0 72 -46 116t-137 44q-90 0 -135 -44t-45 -116z" />
<glyph unicode="9" d="M94 856q0 123 44 216t116 156.5t166 95.5t192 32q256 0 391.5 -149.5t135.5 -448.5q0 -186 -49.5 -349t-149.5 -285t-252.5 -196t-359.5 -82q-10 33 -17.5 66t-7.5 68q0 49 19 108q113 4 201.5 41t151 97.5t101.5 138t55 163.5q-18 -27 -43.5 -52t-61.5 -46.5t-83 -35 t-108 -13.5q-88 0 -168 29.5t-140.5 88t-96.5 147.5t-36 210zM397 862q0 -135 60.5 -193.5t152.5 -58.5q102 0 163 60.5t61 181.5q0 129 -58.5 197.5t-157.5 68.5q-94 0 -157.5 -63.5t-63.5 -192.5z" />
<glyph unicode=":" horiz-adv-x="591" d="M133 150q0 74 12 151q76 12 150 12t151 -12q12 -78 13 -149q0 -76 -13 -152q-78 -12 -149 -12q-76 0 -152 12q-12 76 -12 150zM133 908q0 74 12 151q76 12 150 12t151 -12q12 -78 13 -149q0 -76 -13 -152q-78 -12 -149 -12q-76 0 -152 12q-12 76 -12 150z" />
<glyph unicode=";" horiz-adv-x="634" d="M58 -229l135 524q35 8 69.5 11t67.5 3t72 -3t73 -11l-149 -524q-35 -8 -70 -10.5t-67 -2.5q-33 0 -65 2t-66 11zM176 908q0 74 12 151q76 12 150 12t151 -12q12 -78 13 -149q0 -76 -13 -152q-78 -12 -149 -12q-76 0 -152 12q-12 76 -12 150z" />
<glyph unicode="&#x3c;" d="M176 702q0 72 19 146l847 334q12 -80 13 -129q0 -35 -2 -70t-9 -65l-618 -224l618 -211q6 -31 8.5 -64.5t2.5 -68.5q0 -29 -2 -65.5t-11 -77.5l-847 336q-18 82 -19 159z" />
<glyph unicode="=" d="M172 502q0 63 12 125h863q12 -61 12 -123q0 -63 -12 -125h-863q-12 61 -12 123zM172 922q0 63 12 125h863q12 -61 12 -123q0 -63 -12 -125h-863q-12 61 -12 123z" />
<glyph unicode="&#x3e;" d="M174 336q0 35 2 69.5t8 65.5l619 223l-619 211q-6 31 -8 65t-2 68q0 29 2 66t10 78l848 -336q18 -84 19 -160q0 -72 -19 -145l-848 -334q-12 80 -12 129z" />
<glyph unicode="?" horiz-adv-x="1009" d="M88 1405q53 18 98 31.5t88 21.5t86 11.5t93 3.5q246 0 370.5 -112t124.5 -306q0 -96 -37 -166t-89 -118t-107.5 -77.5t-89.5 -44.5v-186q-72 -12 -138 -12q-68 0 -129 12v352q47 8 98.5 23.5t94.5 42t70.5 66.5t27.5 100q0 88 -63.5 134t-167.5 46q-43 0 -77 -3 t-62.5 -10.5t-58.5 -16.5t-62 -21q-29 53 -47.5 110t-22.5 119zM326 150q0 74 12 151q76 12 149 12q74 0 152 -12q12 -78 12 -149q0 -76 -12 -152q-78 -12 -150 -12q-75 0 -151 12q-12 76 -12 150z" />
<glyph unicode="@" horiz-adv-x="2058" d="M88 446q0 182 66.5 368.5t204 337.5t349.5 246t502 95q156 0 294 -42t241.5 -128t164 -216t60.5 -306q0 -127 -42 -251t-117.5 -222.5t-183 -160t-238.5 -63.5q-150 0 -228 78q-61 -31 -128.5 -54.5t-170.5 -23.5q-66 0 -123 19.5t-100 61.5t-68.5 105.5t-25.5 151.5 q0 139 46 255t126 200t185.5 131t225.5 47q92 0 181.5 -13t167.5 -42l-131 -694q20 -16 67 -17q76 0 135.5 45t99.5 117t60.5 159t20.5 171q0 236 -143.5 360.5t-403.5 124.5q-201 0 -357.5 -68.5t-264 -184t-164 -266.5t-56.5 -312q0 -147 44 -252t120 -171.5t177 -97 t216 -30.5q106 0 196.5 13t163.5 42q18 -45 35 -93t29 -95q-37 -18 -88 -34t-110.5 -25t-126 -14t-132.5 -5q-158 0 -299 45t-247.5 138t-168 234.5t-61.5 335.5zM817 489q0 -92 40 -133t106 -41q41 0 70.5 6.5t64.5 16.5l88 508q-23 6 -42.5 8t-41.5 2q-68 0 -120 -30.5 t-89 -81t-56.5 -117t-19.5 -138.5z" />
<glyph unicode="A" horiz-adv-x="1302" d="M20 0l465 1473q43 6 82 9t86 3q41 0 80 -3t86 -9l461 -1473q-84 -12 -164 -12q-78 0 -151 12l-82 295h-488l-84 -295q-74 -12 -141 -12q-76 0 -150 12zM465 543h348l-170 618z" />
<glyph unicode="B" horiz-adv-x="1239" d="M147 0v1475q66 10 152 16t215 6q113 0 213 -18.5t175 -62.5t118 -117.5t43 -184.5q0 -66 -19.5 -122t-52.5 -98t-73.5 -69.5t-83.5 -33.5q47 -6 104 -29t106.5 -67t82 -113.5t32.5 -167.5q0 -133 -50 -218t-135 -134.5t-196.5 -68t-234.5 -18.5q-94 0 -186.5 5.5 t-209.5 19.5zM444 225q29 -4 67 -6t69 -2q43 0 90 8t88 32t67.5 66t26.5 109q0 63 -20.5 105.5t-58.5 68t-90 35.5t-116 10h-123v-426zM444 877h91q51 0 95 9t76.5 32.5t51 63.5t18.5 101q0 59 -21.5 97.5t-55 60t-75.5 28.5t-83 7q-57 0 -97 -6v-393z" />
<glyph unicode="C" horiz-adv-x="1265" d="M106 733q0 164 47.5 304.5t136.5 242.5t219 159.5t296 57.5q98 0 181 -12t179 -51q-4 -61 -24.5 -120t-44.5 -118q-72 25 -127.5 35t-130.5 10q-197 0 -302.5 -128t-105.5 -380q0 -500 424 -500q76 0 133 10.5t129 35.5q27 -57 44.5 -118t25.5 -122 q-106 -39 -191.5 -51.5t-183.5 -12.5q-174 0 -305 56.5t-220 158t-134.5 240.5t-45.5 303z" />
<glyph unicode="D" horiz-adv-x="1433" d="M150 0v1473q86 10 180 17t209 7q387 0 588.5 -192.5t201.5 -577.5q0 -387 -204.5 -569.5t-608.5 -182.5q-104 0 -192 7.5t-174 17.5zM451 238q18 -2 46.5 -4.5t69.5 -2.5q94 0 175 21.5t140.5 79t94.5 154t35 247.5q0 147 -35 245.5t-94.5 156t-136 81t-162.5 23.5 q-29 0 -67 -1t-66 -5v-995z" />
<glyph unicode="E" horiz-adv-x="1087" d="M143 0v1473h836q12 -61 12 -125q0 -68 -12 -129h-537v-320h426q12 -66 13 -127q0 -66 -13 -129h-426v-389h551q12 -61 13 -125q0 -68 -13 -129h-850z" />
<glyph unicode="F" horiz-adv-x="1038" d="M143 0v1473h836q12 -61 12 -125q0 -68 -12 -129h-537v-347h426q12 -66 13 -127q0 -66 -13 -129h-426v-616q-78 -12 -147 -12q-76 0 -152 12z" />
<glyph unicode="G" horiz-adv-x="1368" d="M104 733q0 164 47.5 304.5t136.5 242.5t219 159.5t296 57.5q98 0 183 -12t177 -51q-4 -61 -24.5 -120t-44.5 -118q-72 25 -127.5 35t-130.5 10q-197 0 -302.5 -128t-105.5 -380t104.5 -376t307.5 -124q35 0 62.5 4.5t49.5 8.5v518q76 12 148 12t149 -12v-723 q-106 -39 -222 -52.5t-202 -13.5q-180 0 -315 56.5t-225 158t-135.5 240.5t-45.5 303z" />
<glyph unicode="H" horiz-adv-x="1382" d="M143 0v1473q76 12 150 12t151 -12v-578h494v578q76 12 149 12q74 0 152 -12v-1473q-78 -12 -149 -12q-76 0 -152 12v637h-494v-637q-78 -12 -149 -12q-76 0 -152 12z" />
<glyph unicode="I" horiz-adv-x="587" d="M143 0v1473q76 12 150 12t151 -12v-1473q-78 -12 -149 -12q-76 0 -152 12z" />
<glyph unicode="J" horiz-adv-x="841" d="M51 59q0 94 35 189q23 -4 49.5 -10.5t54.5 -6.5q35 0 74 4.5t71 25t53.5 60t21.5 113.5v785h-244q-6 29 -9 62.5t-3 66.5q0 66 12 125h543v-1082q0 -113 -36 -191.5t-98.5 -129t-147.5 -73t-185 -22.5q-35 0 -87.5 6.5t-99.5 18.5q-2 14 -3 28.5t-1 30.5z" />
<glyph unicode="K" horiz-adv-x="1267" d="M143 -2v1477q39 6 76 8t76 2q35 0 71.5 -2t75.5 -8v-1477q-39 -6 -75.5 -8t-73.5 -2t-74 2t-76 8zM485 741l400 732q47 8 87 10t72 2q35 0 78 -4t90 -8l-403 -711l438 -762q-47 -4 -91 -8t-79 -4q-33 0 -72.5 2t-89.5 10z" />
<glyph unicode="L" horiz-adv-x="1009" d="M143 0v1473q76 12 146 12q72 0 149 -12v-1215h510q6 -35 8 -66.5t2 -60.5q0 -33 -2 -64.5t-8 -66.5h-805z" />
<glyph unicode="M" horiz-adv-x="1673" d="M127 0l57 1473q82 12 158 12q80 0 158 -12l338 -844l348 844q63 12 141 12t150 -12l69 -1473q-78 -12 -147 -12q-70 0 -137 12l-37 999l-299 -692q-29 -4 -59.5 -7t-61.5 -3q-27 0 -53.5 2t-55.5 8l-278 707l-29 -1014q-66 -12 -127 -12q-66 0 -135 12z" />
<glyph unicode="N" horiz-adv-x="1368" d="M143 0v1473q63 12 121 12q61 0 127 -12l570 -938v938q74 12 141 12q63 0 123 -12v-1473q-66 -12 -119 -12q-57 0 -125 12l-573 936v-936q-66 -12 -134 -12t-131 12z" />
<glyph unicode="O" horiz-adv-x="1486" d="M104 733q0 164 38 304.5t116 242.5t199 159.5t286 57.5q166 0 287 -57.5t199 -159.5t115.5 -242.5t37.5 -304.5t-37.5 -302t-115.5 -239.5t-199 -159t-287 -57.5t-286.5 57.5t-198.5 159t-116 239.5t-38 302zM743 225q317 0 318 508q0 254 -77 381t-239 127 q-321 0 -321 -505q0 -511 319 -511z" />
<glyph unicode="P" horiz-adv-x="1193" d="M143 0v1479q94 8 190.5 13t194.5 5q102 0 208 -20.5t191 -77t138 -156.5t53 -260t-53 -259t-137 -156.5t-187.5 -78t-203.5 -20.5q-27 0 -50.5 1t-44.5 3v-473q-39 -6 -75.5 -8t-71.5 -2q-33 0 -72 2t-80 8zM442 721q25 -4 46.5 -4h52.5q51 0 100 13t87 44t60.5 81 t22.5 124q0 76 -22.5 128t-60.5 84t-87 45t-100 13q-23 0 -42.5 -1t-56.5 -5v-522z" />
<glyph unicode="Q" horiz-adv-x="1486" d="M104 733q0 164 38 304.5t116 242.5t199 159.5t286 57.5q166 0 287 -57.5t199 -159.5t115.5 -242.5t37.5 -304.5t-37.5 -302t-115.5 -239.5t-199 -159t-287 -57.5t-286.5 57.5t-198.5 159t-116 239.5t-38 302zM743 225q317 0 318 508q0 254 -77 381t-239 127 q-321 0 -321 -505q0 -511 319 -511zM864 -272q6 43 10.5 72.5t10.5 55t14 51t19 56.5l501 -78q-4 -59 -14 -121.5t-33 -117.5z" />
<glyph unicode="R" horiz-adv-x="1251" d="M158 0v1473q90 10 169 17t175 7q113 0 222.5 -20.5t197.5 -72.5t142 -141t54 -227q0 -82 -20.5 -144.5t-52 -109.5t-68.5 -80.5t-70 -54.5l-35 -22l359 -623q-41 -4 -86 -8t-92 -4q-78 0 -154 12l-385 684l49 25q29 14 70 36.5t79 56.5t64.5 82t26.5 113q0 129 -74 189.5 t-190 60.5q-45 0 -82 -6v-1243q-37 -4 -74 -7t-72 -3t-73.5 2t-79.5 8z" />
<glyph unicode="S" horiz-adv-x="1126" d="M72 51q6 59 22.5 124t38.5 130q86 -35 162 -52t162 -17q129 0 202.5 48t73.5 146q0 49 -17.5 82t-45 55.5t-62.5 38t-71 29.5l-125 47q-70 27 -125.5 58.5t-94 75.5t-60 105.5t-21.5 147.5q0 104 35.5 184t101 134.5t158 82t206.5 27.5q104 0 195.5 -18.5t191.5 -53.5 q-12 -119 -65 -233q-31 12 -62.5 24.5t-67.5 20.5t-81 13t-102 5q-35 0 -71 -6t-64.5 -22.5t-47 -48t-18.5 -82.5q0 -41 14.5 -69t39 -47t55 -32.5t61.5 -25.5l123 -48q78 -31 141.5 -63.5t107.5 -80.5t68.5 -116.5t24.5 -169.5q0 -104 -38 -190t-109.5 -147.5t-177 -96.5 t-243.5 -35q-68 0 -121 4.5t-101 13.5t-95 23.5t-98 34.5z" />
<glyph unicode="T" horiz-adv-x="1161" d="M51 1348q0 63 12 125h1035q12 -61 12 -125q0 -68 -12 -129h-367v-1219q-37 -4 -73.5 -7t-71.5 -3t-75 2t-81 8v1219h-367q-12 61 -12 129z" />
<glyph unicode="U" horiz-adv-x="1374" d="M135 645v828q39 6 76 8t76 2q35 0 71.5 -2t75.5 -8v-764q0 -125 9.5 -214t37 -147.5t77.5 -86.5t130 -28t129 28t77 86.5t37 147.5t9 214v764q41 6 78 8t72 2q37 0 74.5 -2t76.5 -8v-828q0 -150 -24.5 -273.5t-88 -211.5t-170 -136.5t-270.5 -48.5t-270.5 48.5 t-170 136.5t-88 212t-24.5 273z" />
<glyph unicode="V" horiz-adv-x="1320" d="M20 1473q35 4 80 8t80 4q78 0 164 -12l322 -1162l325 1162q41 6 79 8t77 2q37 0 75 -2t78 -8l-475 -1473q-43 -6 -83 -9t-85 -3q-41 0 -79.5 3t-85.5 9z" />
<glyph unicode="W" horiz-adv-x="1886" d="M33 1473q74 12 168 12q37 0 74.5 -2t74.5 -10l211 -1108l254 1108q41 6 76 9t72 3q61 0 133 -12l264 -1137l211 1137q63 12 131 12q41 0 80 -4t76 -8l-355 -1473q-74 -12 -153 -12q-78 0 -170 12l-236 981l-254 -981q-49 -4 -87 -8t-83 -4q-63 0 -137 12z" />
<glyph unicode="X" horiz-adv-x="1296" d="M37 0l323 770l-264 700q41 6 81 8.5t79 2.5q74 0 154 -13l233 -704l-293 -762q-51 -8 -87 -11t-70 -3q-37 0 -73 3t-83 9zM657 764l230 704q80 12 153 13q39 0 79 -2t81 -9l-260 -700l320 -770q-47 -6 -83 -9t-73 -3q-35 0 -71 3t-87 11z" />
<glyph unicode="Y" horiz-adv-x="1259" d="M20 1473q86 12 173 12q78 0 155 -12l291 -668l287 668q76 12 155 12q74 0 158 -12l-459 -947v-528q-41 -6 -77.5 -8t-73.5 -2q-35 0 -73 2t-77 8v528z" />
<glyph unicode="Z" horiz-adv-x="1187" d="M78 20l618 1199h-565q-12 61 -12 124q0 68 12 130h987l17 -25l-613 -1194h582q12 -61 12 -125q0 -68 -12 -129h-1012z" />
<glyph unicode="[" horiz-adv-x="704" d="M102 -344v1933h488q6 -31 9 -57.5t3 -56.5q0 -57 -12 -119h-205v-1467h205q12 -61 12 -118q0 -31 -3 -57.5t-9 -57.5h-488z" />
<glyph unicode="\" horiz-adv-x="847" d="M31 1473q74 12 143 12q70 0 148 -12l497 -1473q-74 -12 -143 -12q-72 0 -146 12z" />
<glyph unicode="]" horiz-adv-x="704" d="M102 -229q0 57 13 118h204v1467h-204q-12 61 -13 119q0 31 3.5 57.5t9.5 56.5h487v-1933h-487q-6 31 -9.5 57.5t-3.5 57.5z" />
<glyph unicode="^" horiz-adv-x="1124" d="M102 743l324 730q68 12 137 12q66 0 139 -12l320 -730q-41 -10 -76 -12t-61 -2q-35 0 -68 2t-61 10l-201 467l-186 -467q-31 -6 -65 -9t-64 -3q-27 0 -60 2t-78 12z" />
<glyph unicode="_" horiz-adv-x="1032" d="M4 -100q0 23 2 45t8 51h1004q6 -29 8 -53.5t2 -51.5q0 -23 -2 -45t-8 -51h-1004q-6 29 -8 53.5t-2 51.5z" />
<glyph unicode="`" horiz-adv-x="1024" d="M221 1473q41 6 79 9t91 3q100 0 184 -12l230 -252q-68 -12 -133 -13q-41 0 -78 4.5t-64 8.5z" />
<glyph unicode="a" horiz-adv-x="1069" d="M78 332q0 98 42 164.5t108.5 106.5t148.5 57.5t164 17.5q59 0 131 -6v24q0 49 -16.5 80t-45 48.5t-70.5 23.5t-94 6q-111 0 -235 -43q-29 53 -43 100t-14 113q90 31 180 45t168 14q213 0 332.5 -102t119.5 -328v-614q-72 -23 -174 -43.5t-231 -20.5q-104 0 -191.5 18.5 t-150 61.5t-96 110.5t-33.5 166.5zM350 344q0 -53 22.5 -82t54.5 -42t67.5 -16t62.5 -3q31 0 61.5 5t53.5 9v270q-25 4 -53.5 7.5t-51.5 3.5q-100 0 -158.5 -36t-58.5 -116z" />
<glyph unicode="b" horiz-adv-x="1208" d="M139 35v1462q74 12 144 12q72 0 145 -12v-541q31 55 102.5 91t163.5 36t171 -32.5t136.5 -99t90 -167t32.5 -237.5q0 -133 -41 -238.5t-118.5 -179.5t-190 -114t-254.5 -40q-45 0 -95 4.5t-101.5 11.5t-98.5 18t-86 26zM428 229q25 -8 52.5 -10t56.5 -2q133 0 208.5 78 t75.5 244q0 147 -47 224t-160 77q-82 0 -134 -54.5t-52 -171.5v-385z" />
<glyph unicode="c" horiz-adv-x="972" d="M84 528q0 117 31.5 217.5t96 176t161 118.5t223.5 43q45 0 83 -2t72.5 -8t69.5 -16t78 -27q0 -47 -12.5 -105.5t-38.5 -111.5q-61 20 -107.5 27.5t-105.5 7.5q-127 0 -191.5 -83t-64.5 -237q0 -166 69.5 -241.5t188.5 -75.5q31 0 56.5 1t50 5t50 12.5t60.5 20.5 q25 -41 41 -95.5t16 -127.5q-82 -33 -153.5 -42.5t-149.5 -9.5q-133 0 -231 42t-162.5 116t-97.5 175.5t-33 219.5z" />
<glyph unicode="d" horiz-adv-x="1204" d="M84 516q0 117 38 220.5t108.5 179t171 119.5t223.5 44q37 0 76.5 -3t76.5 -13v434q37 6 73 8t71 2t71.5 -2t73.5 -8v-1462q-96 -29 -195.5 -44.5t-240.5 -15.5q-109 0 -208 30t-175 94.5t-120 167t-44 249.5zM383 516q0 -84 20.5 -142.5t56.5 -93t85 -50t106 -15.5 q35 0 63.5 3t63.5 13v609q-41 10 -66.5 13t-64.5 3q-68 0 -118 -27.5t-82.5 -73.5t-48 -108.5t-15.5 -130.5z" />
<glyph unicode="e" horiz-adv-x="1150" d="M88 522q0 117 33 219.5t97.5 178t159.5 119.5t222 44q111 0 197 -38.5t146.5 -106.5t91 -161t30.5 -199q0 -39 -3 -77t-7 -61h-680q8 -123 86 -178t205 -55q70 0 142.5 13t137.5 38q23 -41 39 -98.5t19 -122.5q-160 -61 -361 -62q-147 0 -252.5 41t-172 114t-98.5 173 t-32 219zM377 643h414q-4 98 -54.5 158.5t-140.5 60.5q-102 0 -155.5 -57t-63.5 -162z" />
<glyph unicode="f" horiz-adv-x="811" d="M35 952q0 27 2 51.5t8 55.5h168v51q0 98 29.5 175t85 129t132.5 80t169 28q61 0 103 -5.5t91 -19.5q-4 -68 -13 -122t-30 -107q-23 4 -47 9t-65 5q-72 0 -117 -34t-49 -144v-45h246q6 -33 8 -59.5t2 -55.5q0 -27 -2 -51.5t-8 -54.5h-246v-838q-74 -12 -144 -12 q-72 0 -145 12v838h-168q-6 33 -8 59.5t-2 54.5z" />
<glyph unicode="g" horiz-adv-x="1159" d="M68 -238q0 92 44 151.5t117 104.5q-47 29 -74.5 71t-27.5 108q0 78 33 127t96 94q-72 51 -111 124.5t-39 164.5q0 80 31 148.5t89.5 118.5t142.5 78.5t188 28.5q102 0 188 -31.5t144 -80.5q39 51 96 76.5t156 25.5q4 -27 7 -52.5t3 -53.5q0 -33 -2 -66t-8 -68h-166 q10 -20 18 -48.5t8 -75.5q0 -80 -29.5 -149t-87 -118t-140 -77.5t-187.5 -28.5q-88 0 -158 18q-35 -23 -43 -48t-8 -48q0 -33 21.5 -53.5t87.5 -22.5l280 -4q186 -4 274.5 -83t88.5 -224q0 -86 -45 -156.5t-123 -120t-184.5 -76t-229.5 -26.5t-209 19.5t-140 54.5t-77.5 86 t-23.5 112zM322 -168q0 -78 58 -105.5t157 -27.5q129 0 207.5 41t78.5 110q0 20 -5 39t-19.5 34.5t-40 25.5t-68.5 10l-215 4h-13q-36 0 -62 -10q-29 -12 -46.5 -31.5t-24.5 -43t-7 -46.5zM393 707q0 -86 39 -135.5t127 -49.5q86 0 124 49.5t38 135.5t-38 136t-124 50 q-88 0 -127 -50t-39 -136z" />
<glyph unicode="h" horiz-adv-x="1200" d="M139 -2v1499q35 6 72 8t72 2t71.5 -2t73.5 -8v-563q14 18 37.5 44t58.5 49.5t84 39.5t113 16q176 0 267 -98t91 -309v-678q-37 -6 -73.5 -8t-71.5 -2t-72 2t-74 8v600q0 111 -34.5 170t-118.5 59q-35 0 -72 -10t-66.5 -39.5t-49 -83t-19.5 -139.5v-557q-37 -6 -74 -8 t-71 -2q-35 0 -71 2t-73 8z" />
<glyph unicode="i" horiz-adv-x="628" d="M51 950q0 55 12 109h422v-1059q-74 -12 -143 -12q-68 0 -141 12v838h-138q-6 27 -9 56.5t-3 55.5zM145 1374q0 66 13 137q35 6 74.5 9.5t72.5 3.5q35 0 76 -3t76 -10q6 -35 8 -68.5t2 -68.5q0 -33 -2 -67.5t-8 -69.5q-35 -6 -75 -8t-75 -2q-33 0 -73.5 2t-75.5 8 q-12 70 -13 137z" />
<glyph unicode="j" horiz-adv-x="628" d="M-100 -371q0 59 8 111.5t29 99.5q20 -4 48.5 -8t57.5 -4q33 0 62.5 8t51 29.5t34 60.5t12.5 103v809h-140q-6 27 -9 56.5t-3 55.5q0 55 12 109h422v-1082q0 -197 -98 -283.5t-285 -86.5q-51 0 -104 6t-98 16zM145 1374q0 33 2.5 61.5t10.5 69.5q39 10 78.5 14.5t70.5 4.5 q29 0 70 -4t78 -15q8 -41 10 -69.5t2 -61.5q0 -31 -2 -59.5t-10 -71.5q-37 -10 -78 -13t-70 -3q-31 0 -70.5 3t-78.5 13q-8 43 -10.5 71.5t-2.5 59.5z" />
<glyph unicode="k" horiz-adv-x="1095" d="M125 0v1497q70 12 143 12q74 0 146 -12v-1497q-72 -12 -146 -12t-143 12zM455 555l262 504q80 12 162 12q78 0 151 -12l-270 -490l315 -569q-84 -12 -162 -12q-72 0 -151 12z" />
<glyph unicode="l" horiz-adv-x="663" d="M135 358v1139q74 12 146 12q70 0 143 -12v-1075q0 -63 7 -102t22.5 -60.5t40 -30t61.5 -8.5q16 0 35.5 2t38.5 6q22 -80 22 -156v-7v-29.5t-4 -30.5q-33 -10 -79 -14t-85 -4q-158 0 -253 87t-95 283z" />
<glyph unicode="m" horiz-adv-x="1800" d="M143 0v1059q29 6 57.5 9t63.5 3t61.5 -3t55.5 -9q6 -10 11 -29.5t9.5 -41t7.5 -42t5 -35.5q16 31 42.5 62t63.5 55.5t83 39.5t104 15q248 0 317 -188q41 76 115.5 132t189.5 56q180 0 265 -99t85 -310v-674q-74 -12 -145 -12q-72 0 -145 12v598q0 111 -28 170t-112 59 q-35 0 -68.5 -10t-61 -37.5t-45 -78t-17.5 -130.5v-571q-74 -12 -146 -12t-145 12v598q0 111 -27.5 170t-111.5 59q-35 0 -70 -10t-62.5 -39.5t-44 -83t-16.5 -139.5v-555q-74 -12 -145 -12q-72 0 -146 12z" />
<glyph unicode="n" horiz-adv-x="1202" d="M143 0v1059q29 6 57.5 9t63.5 3t61.5 -3t55.5 -9q6 -10 11 -29.5t9.5 -41t7.5 -42t5 -35.5q20 31 49 62t66.5 55.5t85 39.5t104.5 15q180 0 271 -98t91 -309v-676q-74 -12 -145 -12q-72 0 -145 12v598q0 111 -34 170t-118 59q-35 0 -72 -10t-66.5 -39.5t-48 -83 t-18.5 -139.5v-555q-74 -12 -145 -12q-72 0 -146 12z" />
<glyph unicode="o" horiz-adv-x="1187" d="M84 526q0 117 31.5 219.5t94 177t158 117.5t224.5 43t225 -43t159.5 -117.5t94.5 -177t31 -219.5t-31 -217t-94.5 -175t-159.5 -117t-225 -42t-224.5 42t-158 117t-94 175.5t-31.5 216.5zM379 526q0 -160 50 -244.5t163 -84.5q115 0 165 85t50 244q0 160 -50 245t-165 85 q-113 0 -163 -85t-50 -245z" />
<glyph unicode="p" horiz-adv-x="1210" d="M137 -485v1546q29 6 56.5 8t62.5 2q57 0 117 -12q6 -10 11 -29.5t10 -42t8.5 -44t5.5 -36.5q18 33 44.5 65t64.5 56.5t85 39.5t105 15q88 0 164.5 -32.5t134 -99t89 -167t31.5 -237.5q0 -133 -38.5 -238.5t-112.5 -179.5t-180.5 -114t-241.5 -40q-35 0 -68.5 3.5 t-56.5 7.5v-471q-39 -6 -75 -8.5t-70 -2.5q-35 0 -71 2t-75 9zM428 225q55 -16 127 -16q127 0 194.5 82t67.5 248q0 63 -10 117.5t-34.5 93t-62.5 61.5t-94 23q-51 0 -86.5 -19.5t-58 -53.5t-33 -79t-10.5 -96v-361z" />
<glyph unicode="q" horiz-adv-x="1202" d="M84 508q0 117 40 222.5t115.5 183t186.5 123.5t252 46q115 0 206 -13t181 -34v-1521q-37 -6 -73 -8.5t-70 -2.5q-35 0 -72 2t-74 9l-2 477q-35 -4 -71.5 -8t-84.5 -4q-104 0 -200 27.5t-171 90t-119 162.5t-44 248zM387 508q0 -84 19.5 -140.5t53.5 -90t82 -48t105 -14.5 q35 0 63.5 3t63.5 13v603q-47 8 -63.5 10t-42.5 2q-139 0 -210 -94.5t-71 -243.5z" />
<glyph unicode="r" horiz-adv-x="823" d="M143 -2v1061q31 6 58.5 9t60.5 3q31 0 60.5 -4t58.5 -10q6 -10 11 -29.5t9.5 -41t7.5 -43t5 -36.5q45 63 110.5 113.5t163.5 50.5q20 0 47 -2t39 -6q4 -20 6 -47t2 -55q0 -35 -3 -76t-11 -78q-23 4 -50.5 4h-33.5q-35 0 -78 -7t-82 -38t-64.5 -92.5t-25.5 -171.5v-504 q-37 -6 -73.5 -8t-71.5 -2t-71 2t-75 8z" />
<glyph unicode="s" horiz-adv-x="942" d="M82 33q4 55 19.5 111.5t39.5 109.5q68 -27 128.5 -40t125.5 -13q29 0 63 5t62.5 18.5t48 35t19.5 55.5q0 49 -30 71t-83 38l-127 37q-115 33 -179.5 97.5t-64.5 193.5q0 156 112 243.5t304 87.5q80 0 158 -14t158 -43q-4 -53 -20.5 -110.5t-39.5 -100.5 q-49 20 -108.5 35.5t-124.5 15.5q-70 0 -109 -21.5t-39 -68.5q0 -45 28 -63.5t79 -34.5l116 -35q57 -16 103.5 -39.5t79.5 -58.5t51 -86t18 -125q0 -76 -31.5 -141.5t-92 -113.5t-146.5 -76t-194 -28q-49 0 -90.5 3.5t-79 10.5t-74.5 17t-80 27z" />
<glyph unicode="t" horiz-adv-x="784" d="M29 879l383 489h47v-309h248q6 -31 8 -55.5t2 -51.5q0 -29 -2 -55.5t-8 -58.5h-248v-416q0 -63 10 -102t29.5 -61.5t48 -31t67.5 -8.5q31 0 61 5t52 9q14 -39 20.5 -80.5t6.5 -74.5q0 -23 -1 -38t-3 -30q-90 -22 -187 -22h-8q-186 0 -284.5 87t-98.5 283v480h-133z" />
<glyph unicode="u" horiz-adv-x="1171" d="M125 489v570q74 12 145 12q72 0 146 -12v-561q0 -84 13 -138.5t41 -86t69 -45t96 -13.5q76 0 127 14v830q74 12 143 12q72 0 146 -12v-1018q-66 -23 -173.5 -44.5t-224.5 -21.5q-104 0 -200.5 16.5t-169 70t-115.5 155.5t-43 272z" />
<glyph unicode="v" horiz-adv-x="1114" d="M10 1057q49 10 91 12t73 2q41 0 82 -2t76 -10l231 -789l228 789q35 6 73.5 9t77.5 3q31 0 71 -2t91 -12l-402 -1057q-39 -6 -81.5 -8t-71.5 -2q-31 0 -70 2t-73 10z" />
<glyph unicode="w" horiz-adv-x="1650" d="M14 1057q47 10 89 12t71 2q41 0 80 -2t74 -10l170 -783l196 783q63 12 140 12q53 -2 87.5 -4t61.5 -8l193 -768l167 768q35 6 66 9t70 3q29 0 68.5 -2t88.5 -12l-329 -1057q-37 -6 -79 -8t-71 -2q-31 0 -68.5 2t-72.5 10l-193 700l-198 -702q-39 -6 -81 -8t-71 -2 t-66.5 2t-72.5 10z" />
<glyph unicode="x" horiz-adv-x="1093" d="M31 0l241 547l-202 512q68 12 149 12q78 0 158 -12l162 -518l-211 -541q-74 -12 -146 -12t-151 12zM553 541l164 518q76 12 157 12q76 0 150 -12l-205 -512l244 -547q-80 -12 -152 -12t-145 12z" />
<glyph unicode="y" horiz-adv-x="1110" d="M20 1059q47 10 83 11t67 1q41 0 84 -2t78 -10l221 -924l250 924q68 12 139 12q31 0 65.5 -1t86.5 -11l-396 -1309q-25 -78 -58.5 -129t-76.5 -79.5t-96 -40t-115 -11.5q-57 0 -103 7t-91 20q-2 10 -2 17v15q0 49 11 93.5t28 85.5q18 -6 48.5 -11.5t61.5 -5.5q25 0 49.5 3 t48 18.5t44 48.5t36.5 92l35 127q-23 -2 -50.5 -3t-55.5 -1h-43.5t-36.5 4z" />
<glyph unicode="z" horiz-adv-x="1009" d="M55 25l477 811h-405q-6 31 -8 59.5t-2 56.5q0 27 2 52.5t8 54.5h834l10 -25l-486 -811h451q6 -31 8 -59.5t2 -57.5q0 -27 -2 -52t-8 -54h-864z" />
<glyph unicode="{" horiz-adv-x="894" d="M102 612v54q55 25 91 54.5t58.5 66t32 86t11.5 114.5l6 187q2 106 21.5 188t65.5 138t125 85t200 29h32.5t34.5 -2q12 -59 13 -113q0 -55 -13 -113h-35q-59 0 -93 -15t-50 -47t-21.5 -82t-5.5 -120q0 -123 -9 -205.5t-29.5 -137t-53 -87.5t-80.5 -53q47 -23 80 -54.5 t53.5 -86t29.5 -137t9 -207.5q0 -70 5.5 -120t21.5 -82t50 -47.5t93 -15.5h35q12 -59 13 -112q0 -55 -13 -113q-18 -2 -34.5 -2h-32.5q-121 0 -200 28.5t-125 85t-65.5 138.5t-21.5 188l-6 189q-2 66 -11.5 115t-32 85.5t-58 66.5t-91.5 54z" />
<glyph unicode="|" horiz-adv-x="698" d="M209 -344v1933q70 12 139 13q70 0 141 -13v-1933q-72 -12 -139 -12q-72 0 -141 12z" />
<glyph unicode="}" horiz-adv-x="894" d="M102 -223q0 53 13 112h35q57 0 91.5 15.5t51 47.5t21.5 82t5 120q0 125 9.5 207.5t30 137t53 86t80.5 54.5q-47 20 -80 53t-53.5 87.5t-30 137t-9.5 205.5q0 70 -5 120t-21.5 82t-51 47t-91.5 15h-35q-12 57 -13 113q0 53 13 113q18 2 34.5 2h32.5q121 0 200 -29t125 -85 t64.5 -138t22.5 -188l6 -187q2 -66 11.5 -115t32 -85.5t58 -66.5t91.5 -54v-54q-55 -25 -91 -54.5t-58.5 -66t-32 -86t-11.5 -114.5l-6 -189q-4 -106 -22.5 -188t-64.5 -138.5t-125 -85t-200 -28.5h-32.5t-34.5 2q-12 57 -13 113z" />
<glyph unicode="~" horiz-adv-x="974" d="M25 866q41 49 112.5 85t167.5 36q47 0 91 -13t88 -28.5t89 -28t95 -12.5q45 0 82.5 13.5t91.5 60.5q41 -41 67.5 -89t42.5 -97q-41 -49 -113.5 -83t-168.5 -34q-47 0 -93.5 12t-91.5 27.5t-89 29t-89 13.5q-49 0 -85 -12.5t-89 -59.5q-37 41 -66.5 86t-41.5 94z" />
<glyph unicode="&#xa1;" horiz-adv-x="612" d="M143 907q0 74 13 152q76 12 149 12q74 0 152 -12q12 -78 12 -150q0 -76 -12 -151q-78 -12 -150 -13q-75 1 -151 13q-12 76 -13 149zM147 -414l21 1002q70 12 137 12q68 0 139 -12l21 -1002q-80 -12 -158 -12q-80 0 -160 12z" />
<glyph unicode="&#xa2;" d="M215 528q0 106 27.5 200.5t81 167.5t134.5 121t189 60v223q43 12 88 13q43 0 90 -13v-221q51 -4 98.5 -15t106.5 -34q0 -63 -13 -115.5t-38 -101.5q-61 20 -107.5 27.5t-105.5 7.5q-127 0 -191.5 -83t-64.5 -237q0 -166 69.5 -241.5t188.5 -75.5q31 0 56.5 1t50 5 t50 12.5t60.5 20.5q25 -41 41 -95.5t16 -127.5q-59 -23 -111 -34t-106 -16v-219q-43 -12 -88 -12t-90 12v224q-109 14 -190.5 60t-135 118.5t-80 166t-26.5 201.5z" />
<glyph unicode="&#xa3;" d="M156 705q0 27 2 51t8 55h149q-8 53 -13 105.5t-5 105.5q0 84 29.5 165t91 144.5t155 102.5t222.5 39q113 0 190.5 -16.5t147.5 -45.5q-4 -47 -18.5 -109.5t-47.5 -127.5q-57 23 -110.5 39t-135.5 16q-63 0 -106 -21.5t-68.5 -54.5t-37 -74t-11.5 -80q0 -59 5 -102t13 -86 h320q6 -33 8 -59.5t2 -55.5q0 -27 -2 -51t-8 -55h-285q2 -16 4 -34.5t2 -35.5q0 -70 -10 -130t-45 -132h528q6 -35 8.5 -66.5t2.5 -60.5q0 -33 -2 -64.5t-9 -66.5h-946l-8 29l27 22q43 37 72.5 90.5t48 110.5t27.5 111.5t9 91.5q0 33 -3 66.5t-7 68.5h-184q-6 33 -8 59.5 t-2 55.5z" />
<glyph unicode="&#xa4;" d="M80 334l143 143q-59 100 -59 223q0 125 63 228l-147 149q27 57 67.5 95t96.5 69l151 -151q102 57 223 57q119 0 222 -57l149 151q47 -31 90 -69.5t72 -92.5l-145 -143q70 -109 69 -236q0 -63 -17.5 -121.5t-47.5 -107.5l141 -139q-31 -47 -71 -90t-91 -72l-143 145 q-102 -59 -228 -59q-129 0 -231 59l-143 -145q-57 27 -95 69t-69 95zM412 700q0 -45 16 -83.5t44 -68.5t65.5 -47.5t80.5 -17.5q45 0 83 17.5t66 47.5t44 68.5t16 83.5t-16 86t-44 71t-65.5 47.5t-83.5 17.5q-43 0 -80.5 -17.5t-65.5 -47.5t-44 -71t-16 -86z" />
<glyph unicode="&#xa5;" d="M27 1448q86 12 172 12q78 0 155 -12l271 -571l266 571q76 12 156 12q74 0 157 -12l-344 -637h279q6 -29 6 -82q0 -27 -1 -51.5t-5 -40.5h-375v-143h375q6 -29 6 -82q0 -27 -1 -51.5t-5 -41.5h-375v-321q-41 -6 -77 -8t-73 -2q-35 0 -71.5 2t-75.5 8v321h-340q-4 14 -6 37 t-2 50q0 25 2 48t6 40h340v143h-340q-4 14 -6 36.5t-2 49.5q0 25 2 48.5t6 39.5h244z" />
<glyph unicode="&#xa6;" horiz-adv-x="698" d="M209 342q70 12 139 12q70 0 141 -12v-686q-72 -12 -139 -12q-72 0 -141 12v686zM209 903v686q70 12 139 13q70 0 141 -13v-686q-72 -12 -139 -12q-72 0 -141 12z" />
<glyph unicode="&#xa7;" horiz-adv-x="1171" d="M131 711q0 61 33 126.5t94 129.5q-72 68 -72 182q0 156 121 240t332 84q94 0 173 -14.5t163 -43.5q-4 -53 -24.5 -111.5t-45.5 -101.5q-51 23 -113.5 38t-125.5 15q-109 0 -150 -24.5t-41 -67.5q0 -41 27.5 -61.5t83.5 -36.5l245 -74q121 -37 167 -103.5t46 -144.5 q0 -76 -33.5 -141t-92.5 -129q35 -33 53 -74t18 -100q0 -78 -38 -138.5t-103.5 -101.5t-156.5 -62.5t-195 -21.5q-190 0 -351 58q4 53 24.5 111.5t43.5 101.5q53 -23 123 -38t133 -15q111 0 171 21.5t60 76.5q0 41 -26.5 58.5t-83.5 33.5l-225 70q-133 41 -183.5 108.5 t-50.5 149.5zM383 752q0 -41 25.5 -68t87.5 -43l227 -66q20 18 42.5 49t22.5 72t-25.5 71t-109.5 52l-204 53q-29 -23 -47.5 -51t-18.5 -69z" />
<glyph unicode="&#xa8;" horiz-adv-x="1024" d="M143 1335q0 29 3.5 59.5t7.5 61.5q31 6 66.5 9t64.5 3t64.5 -3t68.5 -9q6 -31 8 -60.5t2 -60.5q0 -29 -2 -59.5t-8 -61.5q-33 -6 -68 -8t-65 -2q-27 0 -63.5 2t-67.5 8q-4 31 -7.5 61t-3.5 60zM594 1335q0 59 12 121q31 6 67 9t64 3q29 0 65 -3t68 -9q4 -31 6.5 -60.5 t2.5 -60.5q0 -29 -2.5 -59.5t-6.5 -61.5q-33 -6 -68.5 -8t-64.5 -2t-64.5 2t-66.5 8q-12 61 -12 121z" />
<glyph unicode="&#xa9;" horiz-adv-x="1683" d="M82 735q0 162 55.5 302.5t154.5 241.5t239.5 159.5t310.5 58.5t310 -57.5t239.5 -159.5t155 -241.5t55.5 -303.5t-55.5 -303t-155 -240.5t-239.5 -160t-310 -58.5t-310.5 58.5t-239.5 160t-154.5 240.5t-55.5 303zM246 735q0 -129 41 -240.5t117.5 -193.5t187.5 -129 t250 -47t249.5 47t187.5 129t118 193.5t41 240.5t-41 240.5t-118 193.5t-187.5 129.5t-249.5 47.5t-250 -47.5t-187.5 -129.5t-117.5 -193.5t-41 -240.5zM479 737q0 84 25.5 161t75 135.5t121 93t163.5 34.5q70 0 116 -8t105 -31q0 -41 -8 -92t-28 -92q-49 16 -82 21.5 t-74 5.5q-90 0 -139 -58.5t-49 -169.5q0 -117 52 -172t136 -55q47 0 78 4.5t82 24.5q20 -33 31.5 -82t11.5 -103q-59 -23 -111.5 -30t-112.5 -7q-96 0 -169.5 34t-123 90.5t-75 133t-25.5 162.5z" />
<glyph unicode="&#xaa;" horiz-adv-x="1024" d="M127 899q0 76 33 128t85 83t117.5 44t129.5 13h48t48 -4v11q0 72 -44 92t-128 20q-41 0 -88 -7t-95 -24q-27 41 -39 80t-12 90q72 23 145.5 35.5t133.5 12.5q168 0 262 -79t94 -253v-465q-53 -16 -139 -33.5t-180 -17.5q-84 0 -153 15t-117 48t-74.5 85t-26.5 126z M346 907q0 -37 17.5 -56.5t42 -28.5t51 -11t45.5 -2q27 0 48 2t38 6v197q-16 2 -38 3t-40 1q-76 0 -120 -25.5t-44 -85.5z" />
<glyph unicode="&#xab;" horiz-adv-x="1310" d="M82 545l319 454q63 12 138 13q82 0 161 -13l-315 -454l315 -455q-80 -12 -161 -12q-74 0 -138 12zM629 545l319 454q63 12 138 13q82 0 161 -13l-315 -454l315 -455q-80 -12 -161 -12q-74 0 -138 12z" />
<glyph unicode="&#xac;" d="M178 723q0 66 12 127h875v-590q-61 -12 -125 -12q-66 0 -127 12v338h-623q-12 61 -12 125z" />
<glyph unicode="&#xad;" horiz-adv-x="759" d="M106 561q0 66 13 127h522q12 -61 12 -125q0 -66 -12 -127h-522q-12 61 -13 125z" />
<glyph unicode="&#xae;" horiz-adv-x="1683" d="M82 735q0 162 55.5 302.5t154.5 241.5t239.5 159.5t310.5 58.5t310 -57.5t239.5 -159.5t155 -241.5t55.5 -303.5t-55.5 -303t-155 -240.5t-239.5 -160t-310 -58.5t-310.5 58.5t-239.5 160t-154.5 240.5t-55.5 303zM246 735q0 -129 41 -240.5t117.5 -193.5t187.5 -129 t250 -47t249.5 47t187.5 129t118 193.5t41 240.5t-41 240.5t-118 193.5t-187.5 129.5t-249.5 47.5t-250 -47.5t-187.5 -129.5t-117.5 -193.5t-41 -240.5zM567 360v783q57 10 110.5 15t119.5 5q195 0 278.5 -68.5t83.5 -181.5q0 -70 -27.5 -124t-62.5 -82l-31 -25l181 -320 q-29 -4 -61 -6t-66 -2q-29 0 -54.5 2t-50.5 6l-184 359l33 20q47 29 77.5 63t30.5 83q0 47 -28.5 76.5t-90.5 29.5q-14 0 -25.5 -1t-31.5 -5v-627q-41 -8 -96 -8q-25 0 -51.5 2t-53.5 6z" />
<glyph unicode="&#xaf;" horiz-adv-x="1024" d="M229 1343q0 51 13 105h542q12 -53 13 -102q0 -53 -13 -105h-542q-12 51 -13 102z" />
<glyph unicode="&#xb0;" horiz-adv-x="772" d="M78 1178q0 63 24.5 120.5t65.5 98.5t97.5 65.5t119.5 24.5t120.5 -24.5t99.5 -65.5t66.5 -98.5t24.5 -120.5t-24.5 -118.5t-66.5 -97.5t-99 -66t-121 -24q-63 0 -119.5 24t-97.5 66t-65.5 97.5t-24.5 118.5zM258 1178q0 -59 37 -96.5t90 -37.5t92 37t39 97q0 59 -39 98 t-92 39t-90 -39t-37 -98z" />
<glyph unicode="&#xb1;" d="M156 723q0 63 12 125h321v362q61 12 123 13q63 0 125 -13v-362h322q12 -61 12 -123q0 -63 -12 -125h-322v-352h307q12 -61 13 -123q0 -63 -13 -125h-862q-12 61 -12 123q0 63 12 125h307v352h-321q-12 61 -12 123z" />
<glyph unicode="&#xb2;" horiz-adv-x="921" d="M109 664l272 299q123 135 123 217q0 39 -33 64.5t-92 25.5q-53 0 -92 -9.5t-92 -33.5q-18 43 -34 90t-22 100q68 27 128.5 41.5t140.5 14.5q152 0 244.5 -71t92.5 -200q0 -98 -50 -175t-134 -173l-33 -35h258q8 -39 9 -94q0 -59 -9 -100h-661z" />
<glyph unicode="&#xb3;" horiz-adv-x="921" d="M141 641q2 49 18.5 98t39.5 80q55 -16 103 -27.5t95 -11.5q68 0 118 29t50 90q0 47 -43 68.5t-96 21.5q-16 0 -38.5 -1t-53.5 -11l-39 43l156 244h-254q-4 25 -7.5 47t-3.5 45q0 45 11 92h561l22 -43l-190 -275q45 -6 83 -27.5t65.5 -52t42 -69.5t14.5 -80 q0 -74 -30 -129t-83 -93t-125 -57.5t-156 -19.5q-39 0 -69.5 2t-60 6t-60.5 11.5t-70 19.5z" />
<glyph unicode="&#xb4;" horiz-adv-x="1024" d="M221 1221l230 252q82 12 184 12q53 0 91 -3t79 -9l-309 -252q-27 -4 -64 -8.5t-78 -4.5q-66 0 -133 13z" />
<glyph unicode="&#xb5;" horiz-adv-x="1220" d="M141 -485v1544q74 12 144 12q72 0 145 -12v-551q0 -164 51 -228.5t148 -64.5q53 0 89 17.5t56.5 48t28.5 72.5t8 91v615q74 12 143 12q72 0 146 -12v-1061q-23 -4 -44.5 -7t-54.5 -3q-31 0 -56 3t-54 9q-4 6 -11.5 20.5t-13.5 32t-12 34.5t-8 28q-59 -72 -121.5 -106 t-157.5 -34q-39 0 -74.5 8.5t-66.5 22.5v-491q-39 -6 -74 -8.5t-69 -2.5q-35 0 -69 2t-73 9z" />
<glyph unicode="&#xb6;" horiz-adv-x="1226" d="M102 1040q0 121 44 206t130 138.5t211 77t285 23.5v-1497q-68 0 -115 3t-69 9v641h-23q-88 0 -171 21.5t-147.5 68.5t-104.5 123t-40 186zM905 -12v1497q66 0 114 -3t71 -9v-1473q-23 -6 -71 -9t-114 -3z" />
<glyph unicode="&#xb7;" horiz-adv-x="591" d="M139 561q0 72 13 146q74 12 143 12q72 0 145 -12q12 -74 13 -144q0 -72 -13 -145q-74 -12 -143 -12q-71 0 -145 12q-12 74 -13 143z" />
<glyph unicode="&#xb8;" horiz-adv-x="1024" d="M276 -475q4 33 10.5 73t26.5 70q37 -10 66 -14t61 -4q57 0 92 14t35 49t-32.5 48.5t-85.5 13.5q-29 0 -63 -4t-62 -15l-15 15l103 278h145l-61 -158q6 2 13 3.5t19 1.5q109 0 169.5 -50.5t60.5 -128.5q0 -104 -88 -157.5t-230 -53.5q-29 0 -71.5 2.5t-92.5 16.5z" />
<glyph unicode="&#xb9;" horiz-adv-x="921" d="M139 1298l416 160h51v-641h174q6 -27 8.5 -49.5t2.5 -44.5q0 -29 -2.5 -49.5t-8.5 -48.5h-569q-10 27 -13 48t-3 50q0 25 3 47.5t13 46.5h172v365l-156 -58q-33 35 -52 76t-36 98z" />
<glyph unicode="&#xba;" horiz-adv-x="1024" d="M127 1038q0 82 22.5 161t70.5 139.5t120 97.5t170 37t171 -37t121 -97.5t70.5 -139.5t22.5 -161t-22.5 -159.5t-70.5 -138t-121 -97.5t-171 -37t-170 37t-120 97.5t-70.5 138t-22.5 159.5zM362 1038q0 -111 36 -179t112 -68q78 0 113.5 68.5t35.5 178.5 q0 115 -35.5 181.5t-113.5 66.5q-76 0 -112 -66.5t-36 -181.5z" />
<glyph unicode="&#xbb;" horiz-adv-x="1308" d="M63 90l316 455l-316 454q80 12 162 13q72 0 137 -13l320 -454l-320 -455q-66 -12 -137 -12q-82 0 -162 12zM608 90l316 455l-316 454q80 12 162 13q72 0 137 -13l320 -454l-320 -455q-66 -12 -137 -12q-82 0 -162 12z" />
<glyph unicode="&#xbc;" horiz-adv-x="2150" d="M135 1298l416 160h51v-641h174q6 -27 8.5 -49.5t2.5 -44.5q0 -29 -2.5 -49.5t-8.5 -48.5h-569q-10 27 -13 48t-3 50q0 25 3 47.5t13 46.5h172v365l-156 -58q-33 35 -52 76t-36 98zM495 4l990 1448q70 12 143 12q63 0 141 -12l-991 -1448q-72 -12 -137 -12q-70 0 -146 12z M1282 188l323 668q51 -4 99.5 -20.5t91.5 -45.5l-211 -461h131v146q49 6 111 6q55 0 104 -6v-146h88q8 -39 8 -92q0 -47 -8 -86h-88v-149q-47 -8 -108 -9q-66 0 -107 9v149h-412z" />
<glyph unicode="&#xbd;" horiz-adv-x="2150" d="M123 1298l416 160h51v-641h174q6 -27 8.5 -49.5t2.5 -44.5q0 -29 -2.5 -49.5t-8.5 -48.5h-569q-10 27 -13 48t-3 50q0 25 3 47.5t13 46.5h172v365l-156 -58q-33 35 -52 76t-36 98zM462 4l990 1448q70 12 143 12q63 0 141 -12l-991 -1448q-72 -12 -137 -12q-70 0 -146 12z M1358 41l272 299q123 135 123 217q0 39 -33 64.5t-92 25.5q-53 0 -92 -9.5t-92 -33.5q-18 43 -34 90t-22 100q68 27 128.5 41.5t140.5 14.5q152 0 244.5 -71t92.5 -200q0 -98 -50 -175t-134 -173l-33 -35h258q8 -39 9 -94q0 -59 -9 -100h-661z" />
<glyph unicode="&#xbe;" horiz-adv-x="2150" d="M190 641q2 49 18.5 98t39.5 80q55 -16 103 -27.5t95 -11.5q68 0 118 29t50 90q0 47 -43 68.5t-96 21.5q-16 0 -38.5 -1t-53.5 -11l-39 43l156 244h-254q-4 25 -7.5 47t-3.5 45q0 45 11 92h561l22 -43l-190 -275q45 -6 83 -27.5t65.5 -52t42 -69.5t14.5 -80 q0 -74 -30 -129t-83 -93t-125 -57.5t-156 -19.5q-39 0 -69.5 2t-60 6t-60.5 11.5t-70 19.5zM499 4l990 1448q70 12 143 12q63 0 141 -12l-991 -1448q-72 -12 -137 -12q-70 0 -146 12zM1290 203l323 668q51 -4 99.5 -20.5t91.5 -45.5l-211 -461h131v146q49 6 111 6 q55 0 104 -6v-146h88q8 -39 8 -92q0 -47 -8 -86h-88v-149q-47 -8 -108 -9q-66 0 -107 9v149h-412z" />
<glyph unicode="&#xbf;" horiz-adv-x="1009" d="M117 4q0 96 36.5 166t89 118t108 76.5t89.5 45.5v186q70 12 138 12t129 -12v-352q-47 -8 -98.5 -23.5t-94.5 -42t-70.5 -67.5t-27.5 -99q0 -88 63.5 -134t167.5 -46q43 0 77 3t62.5 10.5t57 16.5t63.5 21q29 -53 47.5 -110.5t22.5 -118.5q-53 -18 -98 -31.5t-88 -22 t-86 -11.5t-93 -3q-246 0 -370.5 112t-124.5 306zM414 907q0 74 12 152q76 12 149 12q74 0 152 -12q12 -78 12 -150q0 -76 -12 -151q-78 -12 -149 -13q-76 1 -152 13q-12 76 -12 149z" />
<glyph unicode="&#xc0;" horiz-adv-x="1302" d="M20 0l465 1473q43 6 82 9t86 3q41 0 80 -3t86 -9l461 -1473q-84 -12 -164 -12q-78 0 -151 12l-82 295h-488l-84 -295q-74 -12 -141 -12q-76 0 -150 12zM209 1812q35 6 84 10.5t102 4.5q55 0 109.5 -4t99.5 -11l201 -213q-74 -12 -149 -12q-35 0 -72 2t-74 10zM465 543 h348l-170 618z" />
<glyph unicode="&#xc1;" horiz-adv-x="1302" d="M20 0l465 1473q43 6 82 9t86 3q41 0 80 -3t86 -9l461 -1473q-84 -12 -164 -12q-78 0 -151 12l-82 295h-488l-84 -295q-74 -12 -141 -12q-76 0 -150 12zM465 543h348l-170 618zM467 1599l201 213q45 6 99 10.5t110 4.5q53 0 102 -4t84 -11l-301 -213q-37 -8 -74 -10 t-71 -2q-76 0 -150 12z" />
<glyph unicode="&#xc2;" horiz-adv-x="1302" d="M20 0l465 1473q43 6 82 9t86 3q41 0 80 -3t86 -9l461 -1473q-84 -12 -164 -12q-78 0 -151 12l-82 295h-488l-84 -295q-74 -12 -141 -12q-76 0 -150 12zM254 1599l217 213q31 4 76 8.5t102 4.5q55 0 100 -4t78 -9l217 -213q-29 -6 -68.5 -9t-78.5 -3q-35 0 -82 3t-72 9 l-96 103l-92 -103q-12 -4 -33 -6t-43.5 -3l-45 -2t-40.5 -1q-39 0 -75 3t-64 9zM465 543h348l-170 618z" />
<glyph unicode="&#xc3;" horiz-adv-x="1302" d="M20 0l465 1473q43 6 82 9t86 3q41 0 80 -3t86 -9l461 -1473q-84 -12 -164 -12q-78 0 -151 12l-82 295h-488l-84 -295q-74 -12 -141 -12q-76 0 -150 12zM260 1767q35 45 95.5 80t137.5 35q39 0 77 -13.5t75 -28.5t75 -28.5t79 -13.5q37 0 68.5 13.5t76.5 56.5 q68 -72 92 -156q-35 -45 -94.5 -77.5t-130.5 -32.5q-43 0 -84 13t-80 28.5t-77 29t-75 13.5q-41 0 -70.5 -14.5t-74.5 -55.5q-31 37 -55.5 72.5t-34.5 78.5zM465 543h348l-170 618z" />
<glyph unicode="&#xc4;" horiz-adv-x="1302" d="M20 0l465 1473q43 6 82 9t86 3q41 0 80 -3t86 -9l461 -1473q-84 -12 -164 -12q-78 0 -151 12l-82 295h-488l-84 -295q-74 -12 -141 -12q-76 0 -150 12zM280 1737q0 29 3.5 59.5t7.5 61.5q31 6 66.5 9t64.5 3t64.5 -3t68.5 -9q6 -31 8 -61t2 -60q0 -29 -2 -59.5t-8 -61.5 q-33 -6 -68 -8t-65 -2q-27 0 -63.5 2t-67.5 8q-4 31 -7.5 60.5t-3.5 60.5zM465 543h348l-170 618zM731 1737q0 59 12 121q31 6 67 9t64 3q29 0 65 -3t68 -9q4 -31 6.5 -61t2.5 -60q0 -29 -2.5 -59.5t-6.5 -61.5q-33 -6 -68.5 -8t-64.5 -2t-64.5 2t-66.5 8q-12 61 -12 121z " />
<glyph unicode="&#xc5;" horiz-adv-x="1302" d="M20 0l469 1470q-43 33 -69.5 81t-26.5 114q0 117 74 184.5t184 67.5q111 0 184.5 -67.5t73.5 -184.5q0 -63 -26.5 -112.5t-67.5 -82.5l465 -1470q-84 -12 -164 -12q-78 0 -151 12l-82 295h-488l-84 -295q-74 -12 -141 -12q-76 0 -150 12zM465 543h348l-170 643zM553 1665 q0 -59 25.5 -92t72.5 -33q98 0 99 125q0 61 -26 94t-73 33t-72.5 -33t-25.5 -94z" />
<glyph unicode="&#xc6;" horiz-adv-x="1959" d="M20 0l830 1473h1001q12 -61 13 -125q0 -68 -13 -129h-536v-320h426q12 -66 12 -127q0 -66 -12 -129h-426v-389h551q12 -61 12 -125q0 -68 -12 -129h-850v303h-510l-160 -303q-74 -12 -158 -12q-94 0 -168 12zM637 551h379v692h-12z" />
<glyph unicode="&#xc7;" horiz-adv-x="1265" d="M106 733q0 164 47.5 304.5t136.5 242.5t219 159.5t296 57.5q98 0 181 -12t179 -51q-4 -61 -24.5 -120t-44.5 -118q-72 25 -127.5 35t-130.5 10q-197 0 -302.5 -128t-105.5 -380q0 -500 424 -500q76 0 133 10.5t129 35.5q27 -57 44.5 -118t25.5 -122 q-106 -39 -191.5 -51.5t-183.5 -12.5q-6 0 -12 1t-13 1l-30 -73q10 2 19 3t22 1q61 0 104 -15.5t71.5 -42t42 -60.5t13.5 -73q0 -104 -84 -158.5t-239 -54.5q-35 0 -82.5 4.5t-100.5 18.5q4 37 12.5 76t32.5 73q37 -12 70 -17t59 -5q74 0 103.5 15.5t29.5 47.5q0 55 -112 56 q-29 0 -59.5 -4.5t-71.5 -18.5l-23 29l80 213q-133 25 -233.5 90t-168 161.5t-101.5 221.5t-34 268z" />
<glyph unicode="&#xc8;" horiz-adv-x="1087" d="M143 0v1473h836q12 -61 12 -125q0 -68 -12 -129h-537v-320h426q12 -66 13 -127q0 -66 -13 -129h-426v-389h551q12 -61 13 -125q0 -68 -13 -129h-850zM201 1812q35 6 84 10.5t102 4.5q55 0 109.5 -4t99.5 -11l201 -213q-74 -12 -149 -12q-35 0 -72 2t-74 10z" />
<glyph unicode="&#xc9;" horiz-adv-x="1087" d="M143 0v1473h836q12 -61 12 -125q0 -68 -12 -129h-537v-320h426q12 -66 13 -127q0 -66 -13 -129h-426v-389h551q12 -61 13 -125q0 -68 -13 -129h-850zM328 1599l201 213q45 6 99 10.5t110 4.5q53 0 102 -4t84 -11l-301 -213q-37 -8 -74 -10t-71 -2q-76 0 -150 12z" />
<glyph unicode="&#xca;" horiz-adv-x="1087" d="M143 0v1473h836q12 -61 12 -125q0 -68 -12 -129h-537v-320h426q12 -66 13 -127q0 -66 -13 -129h-426v-389h551q12 -61 13 -125q0 -68 -13 -129h-850zM148 1599l217 213q31 4 76 8.5t102 4.5q55 0 100 -4t78 -9l217 -213q-29 -6 -68.5 -9t-78.5 -3q-35 0 -82 3t-72 9 l-96 103l-92 -103q-12 -4 -33 -6t-43.5 -3l-45 -2t-40.5 -1q-39 0 -75 3t-64 9z" />
<glyph unicode="&#xcb;" horiz-adv-x="1087" d="M143 0v1473h836q12 -61 12 -125q0 -68 -12 -129h-537v-320h426q12 -66 13 -127q0 -66 -13 -129h-426v-389h551q12 -61 13 -125q0 -68 -13 -129h-850zM186 1737q0 29 3.5 59.5t7.5 61.5q31 6 66.5 9t64.5 3t64.5 -3t68.5 -9q6 -31 8 -61t2 -60q0 -29 -2 -59.5t-8 -61.5 q-33 -6 -68 -8t-65 -2q-27 0 -63.5 2t-67.5 8q-4 31 -7.5 60.5t-3.5 60.5zM637 1737q0 59 12 121q31 6 67 9t64 3q29 0 65 -3t68 -9q4 -31 6.5 -61t2.5 -60q0 -29 -2.5 -59.5t-6.5 -61.5q-33 -6 -68.5 -8t-64.5 -2t-64.5 2t-66.5 8q-12 61 -12 121z" />
<glyph unicode="&#xcc;" horiz-adv-x="587" d="M-104 1812q35 6 84 10.5t102 4.5q55 0 109.5 -4t99.5 -11l201 -213q-74 -12 -149 -12q-35 0 -72 2t-74 10zM143 0v1473q76 12 150 12t151 -12v-1473q-78 -12 -149 -12q-76 0 -152 12z" />
<glyph unicode="&#xcd;" horiz-adv-x="587" d="M127 1599l201 213q45 6 99 10.5t110 4.5q53 0 102 -4t84 -11l-301 -213q-37 -8 -74 -10t-71 -2q-76 0 -150 12zM143 0v1473q76 12 150 12t151 -12v-1473q-78 -12 -149 -12q-76 0 -152 12z" />
<glyph unicode="&#xce;" horiz-adv-x="587" d="M-100 1599l217 213q31 4 76 8.5t102 4.5q55 0 100 -4t78 -9l217 -213q-29 -6 -68.5 -9t-78.5 -3q-35 0 -82 3t-72 9l-96 103l-92 -103q-12 -4 -33 -6t-43.5 -3l-45 -2t-40.5 -1q-39 0 -75 3t-64 9zM143 0v1473q76 12 150 12t151 -12v-1473q-78 -12 -149 -12 q-76 0 -152 12z" />
<glyph unicode="&#xcf;" horiz-adv-x="587" d="M-74 1737q0 29 3.5 59.5t7.5 61.5q31 6 66.5 9t64.5 3t64.5 -3t68.5 -9q6 -31 8 -61t2 -60q0 -29 -2 -59.5t-8 -61.5q-33 -6 -68 -8t-65 -2q-27 0 -63.5 2t-67.5 8q-4 31 -7.5 60.5t-3.5 60.5zM143 0v1473q76 12 150 12t151 -12v-1473q-78 -12 -149 -12q-76 0 -152 12z M377 1737q0 59 12 121q31 6 67 9t64 3q29 0 65 -3t68 -9q4 -31 6.5 -61t2.5 -60q0 -29 -2.5 -59.5t-6.5 -61.5q-33 -6 -68.5 -8t-64.5 -2t-64.5 2t-66.5 8q-12 61 -12 121z" />
<glyph unicode="&#xd0;" horiz-adv-x="1435" d="M0 770q0 51 12 104h140v599q86 10 180 17t209 7q387 0 588.5 -192.5t201.5 -577.5q0 -387 -204.5 -569.5t-608.5 -182.5q-104 0 -192 7.5t-174 17.5v668h-140q-12 51 -12 102zM453 238q18 -2 46.5 -4.5t69.5 -2.5q94 0 175 21.5t140.5 79t94.5 154t35 247.5 q0 147 -35 245.5t-94.5 156t-136 81t-162.5 23.5q-29 0 -67 -1t-66 -5v-359h284q12 -53 13 -102q0 -53 -13 -104h-284v-430z" />
<glyph unicode="&#xd1;" horiz-adv-x="1370" d="M143 0v1473q63 12 121 12q61 0 127 -12l570 -938v938q74 12 141 12q63 0 123 -12v-1473q-66 -12 -119 -12q-57 0 -125 12l-573 936v-936q-66 -12 -134 -12t-131 12zM316 1767q35 45 95.5 80t137.5 35q39 0 77 -13.5t75 -28.5t75 -28.5t79 -13.5q37 0 68.5 13.5t76.5 56.5 q68 -72 92 -156q-35 -45 -94.5 -77.5t-130.5 -32.5q-43 0 -84 13t-80 28.5t-77 29t-75 13.5q-41 0 -70.5 -14.5t-74.5 -55.5q-31 37 -55.5 72.5t-34.5 78.5z" />
<glyph unicode="&#xd2;" horiz-adv-x="1486" d="M104 733q0 164 38 304.5t116 242.5t199 159.5t286 57.5q166 0 287 -57.5t199 -159.5t115.5 -242.5t37.5 -304.5t-37.5 -302t-115.5 -239.5t-199 -159t-287 -57.5t-286.5 57.5t-198.5 159t-116 239.5t-38 302zM299 1812q35 6 84 10.5t102 4.5q55 0 109.5 -4t99.5 -11 l201 -213q-74 -12 -149 -12q-35 0 -72 2t-74 10zM424 733q0 -508 319 -508q317 0 318 508q0 254 -77 381t-239 127q-322 0 -321 -508z" />
<glyph unicode="&#xd3;" horiz-adv-x="1486" d="M104 733q0 164 38 304.5t116 242.5t199 159.5t286 57.5q166 0 287 -57.5t199 -159.5t115.5 -242.5t37.5 -304.5t-37.5 -302t-115.5 -239.5t-199 -159t-287 -57.5t-286.5 57.5t-198.5 159t-116 239.5t-38 302zM424 733q0 -508 319 -508q317 0 318 508q0 254 -77 381 t-239 127q-322 0 -321 -508zM582 1599l201 213q45 6 99 10.5t110 4.5q53 0 102 -4t84 -11l-301 -213q-37 -8 -74 -10t-71 -2q-76 0 -150 12z" />
<glyph unicode="&#xd4;" horiz-adv-x="1486" d="M104 733q0 164 38 304.5t116 242.5t199 159.5t286 57.5q166 0 287 -57.5t199 -159.5t115.5 -242.5t37.5 -304.5t-37.5 -302t-115.5 -239.5t-199 -159t-287 -57.5t-286.5 57.5t-198.5 159t-116 239.5t-38 302zM346 1599l217 213q31 4 76 8.5t102 4.5q55 0 100 -4t78 -9 l217 -213q-29 -6 -68.5 -9t-78.5 -3q-35 0 -82 3t-72 9l-96 103l-92 -103q-12 -4 -33 -6t-43.5 -3l-45 -2t-40.5 -1q-39 0 -75 3t-64 9zM424 733q0 -508 319 -508q317 0 318 508q0 254 -77 381t-239 127q-322 0 -321 -508z" />
<glyph unicode="&#xd5;" horiz-adv-x="1486" d="M104 733q0 164 38 304.5t116 242.5t199 159.5t286 57.5q166 0 287 -57.5t199 -159.5t115.5 -242.5t37.5 -304.5t-37.5 -302t-115.5 -239.5t-199 -159t-287 -57.5t-286.5 57.5t-198.5 159t-116 239.5t-38 302zM379 1767q35 45 95.5 80t137.5 35q39 0 77 -13.5t75 -28.5 t75 -28.5t79 -13.5q37 0 68.5 13.5t76.5 56.5q68 -72 92 -156q-35 -45 -94.5 -77.5t-130.5 -32.5q-43 0 -84 13t-80 28.5t-77 29t-75 13.5q-41 0 -70.5 -14.5t-74.5 -55.5q-31 37 -55.5 72.5t-34.5 78.5zM424 733q0 -508 319 -508q317 0 318 508q0 254 -77 381t-239 127 q-322 0 -321 -508z" />
<glyph unicode="&#xd6;" horiz-adv-x="1486" d="M104 733q0 164 38 304.5t116 242.5t199 159.5t286 57.5q166 0 287 -57.5t199 -159.5t115.5 -242.5t37.5 -304.5t-37.5 -302t-115.5 -239.5t-199 -159t-287 -57.5t-286.5 57.5t-198.5 159t-116 239.5t-38 302zM374 1737q0 29 3.5 59.5t7.5 61.5q31 6 66.5 9t64.5 3 t64.5 -3t68.5 -9q6 -31 8 -61t2 -60q0 -29 -2 -59.5t-8 -61.5q-33 -6 -68 -8t-65 -2q-27 0 -63.5 2t-67.5 8q-4 31 -7.5 60.5t-3.5 60.5zM424 733q0 -508 319 -508q317 0 318 508q0 254 -77 381t-239 127q-322 0 -321 -508zM825 1737q0 59 12 121q31 6 67 9t64 3q29 0 65 -3 t68 -9q4 -31 6.5 -61t2.5 -60q0 -29 -2.5 -59.5t-6.5 -61.5q-33 -6 -68.5 -8t-64.5 -2t-64.5 2t-66.5 8q-12 61 -12 121z" />
<glyph unicode="&#xd7;" d="M211 481l229 228l-227 227q33 51 78 96t98 80l227 -227l226 225q51 -35 96 -78q23 -23 42 -46t38 -50l-227 -227l227 -228q-16 -27 -35.5 -49t-42.5 -45t-46.5 -43t-49.5 -37l-228 228l-229 -230q-53 33 -96 78q-23 23 -42.5 47.5t-37.5 50.5z" />
<glyph unicode="&#xd8;" horiz-adv-x="1486" d="M104 733q0 164 38 304.5t116 242.5t199 159.5t286 57.5q117 0 210.5 -28.5t164.5 -82.5l62 84q37 12 84 13q53 0 98 -10l-137 -189q80 -102 118.5 -243.5t38.5 -307.5q0 -164 -37.5 -302t-115.5 -239.5t-199 -159t-287 -57.5q-123 0 -219 31t-170 88l-65 -92 q-20 -6 -43 -8t-45 -2q-27 0 -50.5 2t-41.5 6l143 197q-76 102 -112 238t-36 298zM424 733q0 -78 6 -143.5t23 -118.5l497 686q-74 84 -205 84q-322 0 -321 -508zM522 324q80 -98 221 -99q317 0 318 508q0 164 -35 281z" />
<glyph unicode="&#xd9;" horiz-adv-x="1374" d="M135 645v828q39 6 76 8t76 2q35 0 71.5 -2t75.5 -8v-764q0 -125 9.5 -214t37 -147.5t77.5 -86.5t130 -28t129 28t77 86.5t37 147.5t9 214v764q41 6 78 8t72 2q37 0 74.5 -2t76.5 -8v-828q0 -150 -24.5 -273.5t-88 -211.5t-170 -136.5t-270.5 -48.5t-270.5 48.5 t-170 136.5t-88 212t-24.5 273zM274 1812q35 6 84 10.5t102 4.5q55 0 109.5 -4t99.5 -11l201 -213q-74 -12 -149 -12q-35 0 -72 2t-74 10z" />
<glyph unicode="&#xda;" horiz-adv-x="1374" d="M135 645v828q39 6 76 8t76 2q35 0 71.5 -2t75.5 -8v-764q0 -125 9.5 -214t37 -147.5t77.5 -86.5t130 -28t129 28t77 86.5t37 147.5t9 214v764q41 6 78 8t72 2q37 0 74.5 -2t76.5 -8v-828q0 -150 -24.5 -273.5t-88 -211.5t-170 -136.5t-270.5 -48.5t-270.5 48.5 t-170 136.5t-88 212t-24.5 273zM520 1599l201 213q45 6 99 10.5t110 4.5q53 0 102 -4t84 -11l-301 -213q-37 -8 -74 -10t-71 -2q-76 0 -150 12z" />
<glyph unicode="&#xdb;" horiz-adv-x="1374" d="M135 645v828q39 6 76 8t76 2q35 0 71.5 -2t75.5 -8v-764q0 -125 9.5 -214t37 -147.5t77.5 -86.5t130 -28t129 28t77 86.5t37 147.5t9 214v764q41 6 78 8t72 2q37 0 74.5 -2t76.5 -8v-828q0 -150 -24.5 -273.5t-88 -211.5t-170 -136.5t-270.5 -48.5t-270.5 48.5 t-170 136.5t-88 212t-24.5 273zM293 1599l217 213q31 4 76 8.5t102 4.5q55 0 100 -4t78 -9l217 -213q-29 -6 -68.5 -9t-78.5 -3q-35 0 -82 3t-72 9l-96 103l-92 -103q-12 -4 -33 -6t-43.5 -3l-45 -2t-40.5 -1q-39 0 -75 3t-64 9z" />
<glyph unicode="&#xdc;" horiz-adv-x="1374" d="M135 645v828q39 6 76 8t76 2q35 0 71.5 -2t75.5 -8v-764q0 -125 9.5 -214t37 -147.5t77.5 -86.5t130 -28t129 28t77 86.5t37 147.5t9 214v764q41 6 78 8t72 2q37 0 74.5 -2t76.5 -8v-828q0 -150 -24.5 -273.5t-88 -211.5t-170 -136.5t-270.5 -48.5t-270.5 48.5 t-170 136.5t-88 212t-24.5 273zM321 1737q0 29 3.5 59.5t7.5 61.5q31 6 66.5 9t64.5 3t64.5 -3t68.5 -9q6 -31 8 -61t2 -60q0 -29 -2 -59.5t-8 -61.5q-33 -6 -68 -8t-65 -2q-27 0 -63.5 2t-67.5 8q-4 31 -7.5 60.5t-3.5 60.5zM772 1737q0 59 12 121q31 6 67 9t64 3 q29 0 65 -3t68 -9q4 -31 6.5 -61t2.5 -60q0 -29 -2.5 -59.5t-6.5 -61.5q-33 -6 -68.5 -8t-64.5 -2t-64.5 2t-66.5 8q-12 61 -12 121z" />
<glyph unicode="&#xdd;" horiz-adv-x="1259" d="M20 1473q86 12 173 12q78 0 155 -12l291 -668l287 668q76 12 155 12q74 0 158 -12l-459 -947v-528q-41 -6 -77.5 -8t-73.5 -2q-35 0 -73 2t-77 8v528zM457 1599l201 213q45 6 99 10.5t110 4.5q53 0 102 -4t84 -11l-301 -213q-37 -8 -74 -10t-71 -2q-76 0 -150 12z" />
<glyph unicode="&#xde;" horiz-adv-x="1206" d="M143 0v1473q39 6 76 8t72 2q33 0 71.5 -2t79.5 -8v-224q23 2 43.5 2h42.5q102 0 208 -20.5t191 -75.5t138 -155.5t53 -260.5t-53 -260t-138 -155.5t-190.5 -76t-208.5 -20.5h-86v-227q-41 -6 -79.5 -8t-71.5 -2q-35 0 -72 2t-76 8zM442 481q37 -4 56.5 -5t42.5 -1 q51 0 100 12.5t87 43t60.5 81t22.5 127.5q0 76 -22.5 127.5t-60.5 82t-87 43t-100 12.5q-23 0 -42.5 -1.5t-56.5 -5.5v-516z" />
<glyph unicode="&#xdf;" horiz-adv-x="1236" d="M135 0v983q0 254 112.5 396.5t362.5 142.5q123 0 205 -34t132 -87t71.5 -118.5t21.5 -129.5q0 -84 -28.5 -143.5t-62.5 -104.5t-62.5 -84t-28.5 -84q0 -41 23.5 -65.5t58.5 -46t76 -45t75.5 -60.5t58.5 -92t24 -139q0 -51 -18.5 -106.5t-63.5 -101.5t-120 -76t-186 -30 q-76 0 -136 10.5t-122 34.5q4 55 19.5 111.5t40.5 110.5q47 -25 89 -33t77 -8q63 0 97 30.5t34 85.5q0 39 -23.5 65t-58.5 47.5t-75 43t-75 53t-58.5 75.5t-23.5 112q0 72 27 119t59.5 90t59 93t26.5 126q0 29 -7 55.5t-24.5 47t-46 32.5t-71.5 12q-90 0 -132 -71.5 t-42 -233.5v-983q-74 -12 -139 -12q-72 0 -146 12z" />
<glyph unicode="&#xe0;" horiz-adv-x="1069" d="M78 332q0 98 42 164.5t108.5 106.5t148.5 57.5t164 17.5q59 0 131 -6v24q0 49 -16.5 80t-45 48.5t-70.5 23.5t-94 6q-111 0 -235 -43q-29 53 -43 100t-14 113q90 31 180 45t168 14q213 0 332.5 -102t119.5 -328v-614q-72 -23 -174 -43.5t-231 -20.5q-104 0 -191.5 18.5 t-150 61.5t-96 110.5t-33.5 166.5zM143 1473q41 6 79 9t91 3q100 0 184 -12l230 -252q-68 -12 -133 -13q-41 0 -78 4.5t-64 8.5zM350 344q0 -53 22.5 -82t54.5 -42t67.5 -16t62.5 -3q31 0 61.5 5t53.5 9v270q-25 4 -53.5 7.5t-51.5 3.5q-100 0 -158.5 -36t-58.5 -116z" />
<glyph unicode="&#xe1;" horiz-adv-x="1069" d="M78 332q0 98 42 164.5t108.5 106.5t148.5 57.5t164 17.5q59 0 131 -6v24q0 49 -16.5 80t-45 48.5t-70.5 23.5t-94 6q-111 0 -235 -43q-29 53 -43 100t-14 113q90 31 180 45t168 14q213 0 332.5 -102t119.5 -328v-614q-72 -23 -174 -43.5t-231 -20.5q-104 0 -191.5 18.5 t-150 61.5t-96 110.5t-33.5 166.5zM291 1221l230 252q82 12 184 12q53 0 91 -3t79 -9l-309 -252q-27 -4 -64 -8.5t-78 -4.5q-66 0 -133 13zM350 344q0 -53 22.5 -82t54.5 -42t67.5 -16t62.5 -3q31 0 61.5 5t53.5 9v270q-25 4 -53.5 7.5t-51.5 3.5q-100 0 -158.5 -36 t-58.5 -116z" />
<glyph unicode="&#xe2;" horiz-adv-x="1069" d="M78 332q0 98 42 164.5t108.5 106.5t148.5 57.5t164 17.5q59 0 131 -6v24q0 49 -16.5 80t-45 48.5t-70.5 23.5t-94 6q-111 0 -235 -43q-29 53 -43 100t-14 113q90 31 180 45t168 14q213 0 332.5 -102t119.5 -328v-614q-72 -23 -174 -43.5t-231 -20.5q-104 0 -191.5 18.5 t-150 61.5t-96 110.5t-33.5 166.5zM150 1219l200 254q35 4 82 7t90 3q27 0 69 -2t83 -11l198 -251q-47 -12 -124 -13q-35 0 -77 3t-77 12l-84 131l-82 -131q-27 -8 -64.5 -11.5t-74.5 -3.5q-82 0 -139 13zM350 344q0 -53 22.5 -82t54.5 -42t67.5 -16t62.5 -3q31 0 61.5 5 t53.5 9v270q-25 4 -53.5 7.5t-51.5 3.5q-100 0 -158.5 -36t-58.5 -116z" />
<glyph unicode="&#xe3;" horiz-adv-x="1069" d="M78 332q0 98 42 164.5t108.5 106.5t148.5 57.5t164 17.5q59 0 131 -6v24q0 49 -16.5 80t-45 48.5t-70.5 23.5t-94 6q-111 0 -235 -43q-29 53 -43 100t-14 113q90 31 180 45t168 14q213 0 332.5 -102t119.5 -328v-614q-72 -23 -174 -43.5t-231 -20.5q-104 0 -191.5 18.5 t-150 61.5t-96 110.5t-33.5 166.5zM161 1386q35 45 91.5 77t132.5 32q39 0 74.5 -11t70.5 -24.5t71.5 -25t75.5 -11.5q35 0 66 10.5t74 53.5q33 -35 55 -78t33 -86q-35 -45 -92.5 -74.5t-133.5 -29.5q-39 0 -75.5 11t-72.5 24.5t-72 24.5t-72 11q-39 0 -68 -11t-72 -52 q-29 37 -53.5 76.5t-32.5 82.5zM350 344q0 -53 22.5 -82t54.5 -42t67.5 -16t62.5 -3q31 0 61.5 5t53.5 9v270q-25 4 -53.5 7.5t-51.5 3.5q-100 0 -158.5 -36t-58.5 -116z" />
<glyph unicode="&#xe4;" horiz-adv-x="1069" d="M78 332q0 98 42 164.5t108.5 106.5t148.5 57.5t164 17.5q59 0 131 -6v24q0 49 -16.5 80t-45 48.5t-70.5 23.5t-94 6q-111 0 -235 -43q-29 53 -43 100t-14 113q90 31 180 45t168 14q213 0 332.5 -102t119.5 -328v-614q-72 -23 -174 -43.5t-231 -20.5q-104 0 -191.5 18.5 t-150 61.5t-96 110.5t-33.5 166.5zM180 1335q0 29 3.5 59.5t7.5 61.5q31 6 66.5 9t64.5 3t64.5 -3t68.5 -9q6 -31 8 -60.5t2 -60.5q0 -29 -2 -59.5t-8 -61.5q-33 -6 -68 -8t-65 -2q-27 0 -63.5 2t-67.5 8q-4 31 -7.5 61t-3.5 60zM350 344q0 -53 22.5 -82t54.5 -42t67.5 -16 t62.5 -3q31 0 61.5 5t53.5 9v270q-25 4 -53.5 7.5t-51.5 3.5q-100 0 -158.5 -36t-58.5 -116zM631 1335q0 59 12 121q31 6 67 9t64 3q29 0 65 -3t68 -9q4 -31 6.5 -60.5t2.5 -60.5q0 -29 -2.5 -59.5t-6.5 -61.5q-33 -6 -68.5 -8t-64.5 -2t-64.5 2t-66.5 8q-12 61 -12 121z " />
<glyph unicode="&#xe5;" horiz-adv-x="1069" d="M78 332q0 98 42 164.5t108.5 106.5t148.5 57.5t164 17.5q59 0 131 -6v24q0 49 -16.5 80t-45 48.5t-70.5 23.5t-94 6q-111 0 -235 -43q-29 53 -43 100t-14 113q90 31 180 45t168 14q213 0 332.5 -102t119.5 -328v-614q-72 -23 -174 -43.5t-231 -20.5q-104 0 -191.5 18.5 t-150 61.5t-96 110.5t-33.5 166.5zM309 1423q0 111 69 172.5t171 61.5t171 -61.5t69 -172.5t-69 -172t-171 -61t-171 61t-69 172zM350 344q0 -53 22.5 -82t54.5 -42t67.5 -16t62.5 -3q31 0 61.5 5t53.5 9v270q-25 4 -53.5 7.5t-51.5 3.5q-100 0 -158.5 -36t-58.5 -116z M453 1423q0 -53 27.5 -82.5t68.5 -29.5t68.5 29.5t27.5 82.5t-27.5 83t-68.5 30t-68.5 -29.5t-27.5 -83.5z" />
<glyph unicode="&#xe6;" horiz-adv-x="1691" d="M78 332q0 98 42 163.5t108.5 104.5t148.5 55.5t164 16.5q63 0 135 -6v30q0 49 -16.5 80t-47 48.5t-72.5 23.5t-94 6q-51 0 -111.5 -10t-123.5 -33q-29 53 -43 100t-14 113q90 31 180 45t168 14q106 0 190 -30.5t144 -89.5q61 55 142 87.5t183 32.5q111 0 194 -38.5 t139 -106.5t84 -161t28 -199q0 -39 -3.5 -76t-7.5 -60h-661q0 -121 83 -178t210 -57q70 0 132 13t128 38q23 -41 39 -98.5t18 -122.5q-80 -31 -167 -46.5t-173 -15.5q-102 0 -192 22.5t-156 65.5q-70 -41 -157 -64.5t-199 -23.5q-88 0 -165 18.5t-134.5 61.5t-90 110.5 t-32.5 166.5zM350 344q0 -53 21.5 -82t51.5 -42t62.5 -16t55.5 -3q63 0 107 13t67 24q-20 43 -29.5 93t-13.5 107l-2 33q-25 4 -52.5 7t-50.5 3q-100 0 -158.5 -28.5t-58.5 -108.5zM936 643h395q-4 98 -46 158.5t-128 60.5q-102 0 -156.5 -57t-64.5 -162z" />
<glyph unicode="&#xe7;" horiz-adv-x="972" d="M84 528q0 117 31.5 217.5t96 176t161 118.5t223.5 43q45 0 83 -2t72.5 -8t69.5 -16t78 -27q0 -47 -12.5 -105.5t-38.5 -111.5q-61 20 -107.5 27.5t-105.5 7.5q-127 0 -191.5 -83t-64.5 -237q0 -166 69.5 -241.5t188.5 -75.5q31 0 56.5 1t50 5t50 12.5t60.5 20.5 q25 -41 41 -95.5t16 -127.5q-82 -31 -151.5 -41.5t-147.5 -10.5l-32 -84q6 2 13 3.5t19 1.5q109 0 169.5 -50.5t60.5 -128.5q0 -104 -88 -157.5t-230 -53.5q-29 0 -71.5 2.5t-92.5 16.5q4 33 10.5 73t26.5 70q37 -10 66 -14t61 -4q57 0 92 14t35 49t-32.5 48.5t-86.5 13.5 q-29 0 -62.5 -4t-61.5 -15l-15 15l80 217q-98 20 -171 68t-122 119t-72.5 161t-23.5 192z" />
<glyph unicode="&#xe8;" horiz-adv-x="1150" d="M88 522q0 117 33 219.5t97.5 178t159.5 119.5t222 44q111 0 197 -38.5t146.5 -106.5t91 -161t30.5 -199q0 -39 -3 -77t-7 -61h-680q8 -123 86 -178t205 -55q70 0 142.5 13t137.5 38q23 -41 39 -98.5t19 -122.5q-160 -61 -361 -62q-147 0 -252.5 41t-172 114t-98.5 173 t-32 219zM211 1473q41 6 79 9t91 3q100 0 184 -12l230 -252q-68 -12 -133 -13q-41 0 -78 4.5t-64 8.5zM377 643h414q-4 98 -54.5 158.5t-140.5 60.5q-102 0 -155.5 -57t-63.5 -162z" />
<glyph unicode="&#xe9;" horiz-adv-x="1150" d="M88 522q0 117 33 219.5t97.5 178t159.5 119.5t222 44q111 0 197 -38.5t146.5 -106.5t91 -161t30.5 -199q0 -39 -3 -77t-7 -61h-680q8 -123 86 -178t205 -55q70 0 142.5 13t137.5 38q23 -41 39 -98.5t19 -122.5q-160 -61 -361 -62q-147 0 -252.5 41t-172 114t-98.5 173 t-32 219zM377 643h414q-4 98 -54.5 158.5t-140.5 60.5q-102 0 -155.5 -57t-63.5 -162zM391 1221l230 252q82 12 184 12q53 0 91 -3t79 -9l-309 -252q-27 -4 -64 -8.5t-78 -4.5q-66 0 -133 13z" />
<glyph unicode="&#xea;" horiz-adv-x="1150" d="M88 522q0 117 33 219.5t97.5 178t159.5 119.5t222 44q111 0 197 -38.5t146.5 -106.5t91 -161t30.5 -199q0 -39 -3 -77t-7 -61h-680q8 -123 86 -178t205 -55q70 0 142.5 13t137.5 38q23 -41 39 -98.5t19 -122.5q-160 -61 -361 -62q-147 0 -252.5 41t-172 114t-98.5 173 t-32 219zM232 1219l200 254q35 4 82 7t90 3q27 0 69 -2t83 -11l198 -251q-47 -12 -124 -13q-35 0 -77 3t-77 12l-84 131l-82 -131q-27 -8 -64.5 -11.5t-74.5 -3.5q-82 0 -139 13zM377 643h414q-4 98 -54.5 158.5t-140.5 60.5q-102 0 -155.5 -57t-63.5 -162z" />
<glyph unicode="&#xeb;" horiz-adv-x="1150" d="M88 522q0 117 33 219.5t97.5 178t159.5 119.5t222 44q111 0 197 -38.5t146.5 -106.5t91 -161t30.5 -199q0 -39 -3 -77t-7 -61h-680q8 -123 86 -178t205 -55q70 0 142.5 13t137.5 38q23 -41 39 -98.5t19 -122.5q-160 -61 -361 -62q-147 0 -252.5 41t-172 114t-98.5 173 t-32 219zM209 1335q0 29 3.5 59.5t7.5 61.5q31 6 66.5 9t64.5 3t64.5 -3t68.5 -9q6 -31 8 -60.5t2 -60.5q0 -29 -2 -59.5t-8 -61.5q-33 -6 -68 -8t-65 -2q-27 0 -63.5 2t-67.5 8q-4 31 -7.5 61t-3.5 60zM377 643h414q-4 98 -54.5 158.5t-140.5 60.5q-102 0 -155.5 -57 t-63.5 -162zM660 1335q0 59 12 121q31 6 67 9t64 3q29 0 65 -3t68 -9q4 -31 6.5 -60.5t2.5 -60.5q0 -29 -2.5 -59.5t-6.5 -61.5q-33 -6 -68.5 -8t-64.5 -2t-64.5 2t-66.5 8q-12 61 -12 121z" />
<glyph unicode="&#xec;" horiz-adv-x="628" d="M-105 1473q41 6 79 9t91 3q100 0 184 -12l230 -252q-68 -12 -133 -13q-41 0 -78 4.5t-64 8.5zM51 950q0 55 12 109h422v-1059q-74 -12 -143 -12q-68 0 -141 12v838h-138q-6 27 -9 56.5t-3 55.5z" />
<glyph unicode="&#xed;" horiz-adv-x="628" d="M51 950q0 55 12 109h422v-1059q-74 -12 -143 -12q-68 0 -141 12v838h-138q-6 27 -9 56.5t-3 55.5zM94 1221l230 252q82 12 184 12q53 0 91 -3t79 -9l-309 -252q-27 -4 -64 -8.5t-78 -4.5q-66 0 -133 13z" />
<glyph unicode="&#xee;" horiz-adv-x="628" d="M-49 1219l200 254q35 4 82 7t90 3q27 0 69 -2t83 -11l198 -251q-47 -12 -124 -13q-35 0 -77 3t-77 12l-84 131l-82 -131q-27 -8 -64.5 -11.5t-74.5 -3.5q-82 0 -139 13zM51 950q0 55 12 109h422v-1059q-74 -12 -143 -12q-68 0 -141 12v838h-138q-6 27 -9 56.5t-3 55.5z " />
<glyph unicode="&#xef;" horiz-adv-x="628" d="M-54 1335q0 29 3.5 59.5t7.5 61.5q31 6 66.5 9t64.5 3t64.5 -3t68.5 -9q6 -31 8 -60.5t2 -60.5q0 -29 -2 -59.5t-8 -61.5q-33 -6 -68 -8t-65 -2q-27 0 -63.5 2t-67.5 8q-4 31 -7.5 61t-3.5 60zM51 950q0 55 12 109h422v-1059q-74 -12 -143 -12q-68 0 -141 12v838h-138 q-6 27 -9 56.5t-3 55.5zM397 1335q0 59 12 121q31 6 67 9t64 3q29 0 65 -3t68 -9q4 -31 6.5 -60.5t2.5 -60.5q0 -29 -2.5 -59.5t-6.5 -61.5q-33 -6 -68.5 -8t-64.5 -2t-64.5 2t-66.5 8q-12 61 -12 121z" />
<glyph unicode="&#xf0;" horiz-adv-x="1171" d="M84 483q0 109 29.5 203t88 163t143.5 108.5t196 39.5q53 0 104 -13t92 -44q-23 61 -60.5 116.5t-90.5 96.5l-185 -123q-27 23 -51 58.5t-35 74.5l113 74q-70 23 -158 27q-18 57 -18 108q0 35 7 68t17 65q117 0 214.5 -27.5t181.5 -76.5l164 110q31 -23 53 -56.5t39 -74.5 l-121 -80q70 -68 122 -151.5t88 -179t53 -198.5t17 -210q0 -133 -30.5 -240.5t-93 -184.5t-157.5 -119t-222 -42t-220.5 39t-156 107.5t-93 161t-30.5 200.5zM379 483q0 -147 47 -225t158 -78t159 78t48 225t-48.5 225t-158.5 78q-111 0 -158 -77.5t-47 -225.5z" />
<glyph unicode="&#xf1;" horiz-adv-x="1202" d="M143 0v1059q29 6 57.5 9t63.5 3t61.5 -3t55.5 -9q6 -10 11 -29.5t9.5 -41t7.5 -42t5 -35.5q20 31 49 62t66.5 55.5t85 39.5t104.5 15q180 0 271 -98t91 -309v-676q-74 -12 -145 -12q-72 0 -145 12v598q0 111 -34 170t-118 59q-35 0 -72 -10t-66.5 -39.5t-48 -83 t-18.5 -139.5v-555q-74 -12 -145 -12q-72 0 -146 12zM235 1386q35 45 91.5 77t132.5 32q39 0 74.5 -11t70.5 -24.5t71.5 -25t75.5 -11.5q35 0 66 10.5t74 53.5q33 -35 55 -78t33 -86q-35 -45 -92.5 -74.5t-133.5 -29.5q-39 0 -75.5 11t-72.5 24.5t-72 24.5t-72 11 q-39 0 -68 -11t-72 -52q-29 37 -53.5 76.5t-32.5 82.5z" />
<glyph unicode="&#xf2;" horiz-adv-x="1187" d="M84 526q0 117 31.5 219.5t94 177t158 117.5t224.5 43t225 -43t159.5 -117.5t94.5 -177t31 -219.5t-31 -217t-94.5 -175t-159.5 -117t-225 -42t-224.5 42t-158 117t-94 175.5t-31.5 216.5zM176 1473q41 6 79 9t91 3q100 0 184 -12l230 -252q-68 -12 -133 -13 q-41 0 -78 4.5t-64 8.5zM379 526q0 -160 50 -244.5t163 -84.5q115 0 165 85t50 244q0 160 -50 245t-165 85q-113 0 -163 -85t-50 -245z" />
<glyph unicode="&#xf3;" horiz-adv-x="1187" d="M84 526q0 117 31.5 219.5t94 177t158 117.5t224.5 43t225 -43t159.5 -117.5t94.5 -177t31 -219.5t-31 -217t-94.5 -175t-159.5 -117t-225 -42t-224.5 42t-158 117t-94 175.5t-31.5 216.5zM379 526q0 -160 50 -244.5t163 -84.5q115 0 165 85t50 244q0 160 -50 245t-165 85 q-113 0 -163 -85t-50 -245zM383 1221l230 252q82 12 184 12q53 0 91 -3t79 -9l-309 -252q-27 -4 -64 -8.5t-78 -4.5q-66 0 -133 13z" />
<glyph unicode="&#xf4;" horiz-adv-x="1187" d="M84 526q0 117 31.5 219.5t94 177t158 117.5t224.5 43t225 -43t159.5 -117.5t94.5 -177t31 -219.5t-31 -217t-94.5 -175t-159.5 -117t-225 -42t-224.5 42t-158 117t-94 175.5t-31.5 216.5zM232 1219l200 254q35 4 82 7t90 3q27 0 69 -2t83 -11l198 -251q-47 -12 -124 -13 q-35 0 -77 3t-77 12l-84 131l-82 -131q-27 -8 -64.5 -11.5t-74.5 -3.5q-82 0 -139 13zM379 526q0 -160 50 -244.5t163 -84.5q115 0 165 85t50 244q0 160 -50 245t-165 85q-113 0 -163 -85t-50 -245z" />
<glyph unicode="&#xf5;" horiz-adv-x="1187" d="M84 526q0 117 31.5 219.5t94 177t158 117.5t224.5 43t225 -43t159.5 -117.5t94.5 -177t31 -219.5t-31 -217t-94.5 -175t-159.5 -117t-225 -42t-224.5 42t-158 117t-94 175.5t-31.5 216.5zM221 1386q35 45 91.5 77t132.5 32q39 0 74.5 -11t70.5 -24.5t71.5 -25t75.5 -11.5 q35 0 66 10.5t74 53.5q33 -35 55 -78t33 -86q-35 -45 -92.5 -74.5t-133.5 -29.5q-39 0 -75.5 11t-72.5 24.5t-72 24.5t-72 11q-39 0 -68 -11t-72 -52q-29 37 -53.5 76.5t-32.5 82.5zM379 526q0 -160 50 -244.5t163 -84.5q115 0 165 85t50 244q0 160 -50 245t-165 85 q-113 0 -163 -85t-50 -245z" />
<glyph unicode="&#xf6;" horiz-adv-x="1187" d="M84 526q0 117 31.5 219.5t94 177t158 117.5t224.5 43t225 -43t159.5 -117.5t94.5 -177t31 -219.5t-31 -217t-94.5 -175t-159.5 -117t-225 -42t-224.5 42t-158 117t-94 175.5t-31.5 216.5zM223 1335q0 29 3.5 59.5t7.5 61.5q31 6 66.5 9t64.5 3t64.5 -3t68.5 -9 q6 -31 8 -60.5t2 -60.5q0 -29 -2 -59.5t-8 -61.5q-33 -6 -68 -8t-65 -2q-27 0 -63.5 2t-67.5 8q-4 31 -7.5 61t-3.5 60zM379 526q0 -160 50 -244.5t163 -84.5q115 0 165 85t50 244q0 160 -50 245t-165 85q-113 0 -163 -85t-50 -245zM674 1335q0 59 12 121q31 6 67 9t64 3 q29 0 65 -3t68 -9q4 -31 6.5 -60.5t2.5 -60.5q0 -29 -2.5 -59.5t-6.5 -61.5q-33 -6 -68.5 -8t-64.5 -2t-64.5 2t-66.5 8q-12 61 -12 121z" />
<glyph unicode="&#xf7;" d="M172 723q0 63 12 125h863q12 -61 12 -123q0 -63 -12 -125h-863q-12 61 -12 123zM444 313q0 70 49.5 120t118.5 50q70 0 120 -50t50 -120t-50 -119t-120 -49t-119 49t-49 119zM444 1145q0 70 49.5 120t118.5 50q70 0 120 -50.5t50 -119.5q0 -70 -50 -119t-120 -49t-119 49 t-49 119z" />
<glyph unicode="&#xf8;" horiz-adv-x="1187" d="M84 526q0 117 31.5 219.5t94 177t158 117.5t224.5 43q94 0 170 -23.5t135 -64.5l39 47q16 4 36.5 6.5t41.5 2.5q51 0 82 -7l-109 -137q59 -74 87 -171t28 -210q0 -117 -31 -217t-94.5 -175t-159.5 -117t-225 -42q-166 0 -281 72l-35 -45q-18 -4 -38.5 -6t-38.5 -2 q-25 0 -46.5 1t-35.5 5l98 127q-66 74 -98.5 176.5t-32.5 222.5zM379 526q0 -49 4 -92t14 -78l342 437q-53 63 -147 63q-113 0 -163 -85t-50 -245zM465 240q49 -43 127 -43q115 0 165 85t50 244q0 76 -12 136z" />
<glyph unicode="&#xf9;" horiz-adv-x="1171" d="M125 489v570q74 12 145 12q72 0 146 -12v-561q0 -84 13 -138.5t41 -86t69 -45t96 -13.5q76 0 127 14v830q74 12 143 12q72 0 146 -12v-1018q-66 -23 -173.5 -44.5t-224.5 -21.5q-104 0 -200.5 16.5t-169 70t-115.5 155.5t-43 272zM215 1473q41 6 79 9t91 3q100 0 184 -12 l230 -252q-68 -12 -133 -13q-41 0 -78 4.5t-64 8.5z" />
<glyph unicode="&#xfa;" horiz-adv-x="1171" d="M125 489v570q74 12 145 12q72 0 146 -12v-561q0 -84 13 -138.5t41 -86t69 -45t96 -13.5q76 0 127 14v830q74 12 143 12q72 0 146 -12v-1018q-66 -23 -173.5 -44.5t-224.5 -21.5q-104 0 -200.5 16.5t-169 70t-115.5 155.5t-43 272zM401 1221l230 252q82 12 184 12 q53 0 91 -3t79 -9l-309 -252q-27 -4 -64 -8.5t-78 -4.5q-66 0 -133 13z" />
<glyph unicode="&#xfb;" horiz-adv-x="1171" d="M125 489v570q74 12 145 12q72 0 146 -12v-561q0 -84 13 -138.5t41 -86t69 -45t96 -13.5q76 0 127 14v830q74 12 143 12q72 0 146 -12v-1018q-66 -23 -173.5 -44.5t-224.5 -21.5q-104 0 -200.5 16.5t-169 70t-115.5 155.5t-43 272zM226 1219l200 254q35 4 82 7t90 3 q27 0 69 -2t83 -11l198 -251q-47 -12 -124 -13q-35 0 -77 3t-77 12l-84 131l-82 -131q-27 -8 -64.5 -11.5t-74.5 -3.5q-82 0 -139 13z" />
<glyph unicode="&#xfc;" horiz-adv-x="1171" d="M125 489v570q74 12 145 12q72 0 146 -12v-561q0 -84 13 -138.5t41 -86t69 -45t96 -13.5q76 0 127 14v830q74 12 143 12q72 0 146 -12v-1018q-66 -23 -173.5 -44.5t-224.5 -21.5q-104 0 -200.5 16.5t-169 70t-115.5 155.5t-43 272zM233 1335q0 29 3.5 59.5t7.5 61.5 q31 6 66.5 9t64.5 3t64.5 -3t68.5 -9q6 -31 8 -60.5t2 -60.5q0 -29 -2 -59.5t-8 -61.5q-33 -6 -68 -8t-65 -2q-27 0 -63.5 2t-67.5 8q-4 31 -7.5 61t-3.5 60zM684 1335q0 59 12 121q31 6 67 9t64 3q29 0 65 -3t68 -9q4 -31 6.5 -60.5t2.5 -60.5q0 -29 -2.5 -59.5t-6.5 -61.5 q-33 -6 -68.5 -8t-64.5 -2t-64.5 2t-66.5 8q-12 61 -12 121z" />
<glyph unicode="&#xfd;" horiz-adv-x="1110" d="M20 1059q47 10 83 11t67 1q41 0 84 -2t78 -10l221 -924l250 924q68 12 139 12q31 0 65.5 -1t86.5 -11l-396 -1309q-25 -78 -58.5 -129t-76.5 -79.5t-96 -40t-115 -11.5q-57 0 -103 7t-91 20q-2 10 -2 17v15q0 49 11 93.5t28 85.5q18 -6 48.5 -11.5t61.5 -5.5q25 0 49.5 3 t48 18.5t44 48.5t36.5 92l35 127q-23 -2 -50.5 -3t-55.5 -1h-43.5t-36.5 4zM334 1221l230 252q82 12 184 12q53 0 91 -3t79 -9l-309 -252q-27 -4 -64 -8.5t-78 -4.5q-66 0 -133 13z" />
<glyph unicode="&#xfe;" horiz-adv-x="1210" d="M137 -485v1982q39 6 75 8t71 2t70.5 -2t74.5 -8v-557q41 57 108.5 100t170.5 43q88 0 164.5 -32.5t134 -99t89 -167t31.5 -237.5q0 -133 -38.5 -238.5t-112.5 -179.5t-180.5 -114t-241.5 -40q-35 0 -68.5 3.5t-56.5 7.5v-471q-39 -6 -75 -8.5t-70 -2.5q-35 0 -71 2t-75 9 zM428 225q55 -16 127 -16q127 0 194.5 82t67.5 248q0 63 -10 117.5t-34.5 93t-62.5 61.5t-94 23q-51 0 -86.5 -19.5t-58 -53.5t-33 -79t-10.5 -96v-361z" />
<glyph unicode="&#xff;" horiz-adv-x="1110" d="M20 1059q47 10 83 11t67 1q41 0 84 -2t78 -10l221 -924l250 924q68 12 139 12q31 0 65.5 -1t86.5 -11l-396 -1309q-25 -78 -58.5 -129t-76.5 -79.5t-96 -40t-115 -11.5q-57 0 -103 7t-91 20q-2 10 -2 17v15q0 49 11 93.5t28 85.5q18 -6 48.5 -11.5t61.5 -5.5q25 0 49.5 3 t48 18.5t44 48.5t36.5 92l35 127q-23 -2 -50.5 -3t-55.5 -1h-43.5t-36.5 4zM192 1335q0 29 3.5 59.5t7.5 61.5q31 6 66.5 9t64.5 3t64.5 -3t68.5 -9q6 -31 8 -60.5t2 -60.5q0 -29 -2 -59.5t-8 -61.5q-33 -6 -68 -8t-65 -2q-27 0 -63.5 2t-67.5 8q-4 31 -7.5 61t-3.5 60z M643 1335q0 59 12 121q31 6 67 9t64 3q29 0 65 -3t68 -9q4 -31 6.5 -60.5t2.5 -60.5q0 -29 -2.5 -59.5t-6.5 -61.5q-33 -6 -68.5 -8t-64.5 -2t-64.5 2t-66.5 8q-12 61 -12 121z" />
<glyph unicode="&#x152;" horiz-adv-x="1914" d="M98 733q0 164 41 304.5t124 242.5t207 159.5t290 57.5q53 0 121.5 -6t117.5 -18h807q12 -61 13 -125q0 -68 -13 -129h-536v-320h426q12 -66 12 -127q0 -66 -12 -129h-426v-389h551q12 -61 12 -125q0 -68 -12 -129h-811q-27 -6 -58.5 -11t-65.5 -8.5t-67 -4.5t-59 -1 q-166 0 -290 57.5t-207 159t-124 239.5t-41 302zM418 733q0 -256 90 -382t252 -126q74 0 122 7.5t89 23.5v958q-41 12 -89 19.5t-120 7.5q-162 0 -253 -127t-91 -381z" />
<glyph unicode="&#x153;" horiz-adv-x="1828" d="M84 526q0 117 33 219.5t97.5 177t160.5 117.5t225 43q117 0 204 -44t150 -128q59 84 148.5 128t195.5 44t188.5 -38.5t139.5 -106.5t87 -161t30 -199q0 -39 -3 -77t-7 -61h-639q8 -123 75.5 -178t194.5 -55q70 0 132.5 13t127.5 38q23 -41 39 -98.5t18 -122.5 q-80 -31 -159.5 -46.5t-180.5 -15.5q-137 0 -230 46.5t-157 125.5q-66 -86 -149.5 -129t-204.5 -43q-129 0 -225 42t-160.5 117t-97.5 175.5t-33 216.5zM379 526q0 -160 54 -244.5t167 -84.5q115 0 169 85t54 244q0 160 -54 245t-169 85q-113 0 -167 -85t-54 -245zM1096 643 h372q-4 98 -49 158.5t-125 60.5q-86 0 -137 -57t-61 -162z" />
<glyph unicode="&#x178;" horiz-adv-x="1259" d="M20 1473q86 12 173 12q78 0 155 -12l291 -668l287 668q76 12 155 12q74 0 158 -12l-459 -947v-528q-41 -6 -77.5 -8t-73.5 -2q-35 0 -73 2t-77 8v528zM260 1737q0 29 3.5 59.5t7.5 61.5q31 6 66.5 9t64.5 3t64.5 -3t68.5 -9q6 -31 8 -61t2 -60q0 -29 -2 -59.5t-8 -61.5 q-33 -6 -68 -8t-65 -2q-27 0 -63.5 2t-67.5 8q-4 31 -7.5 60.5t-3.5 60.5zM711 1737q0 59 12 121q31 6 67 9t64 3q29 0 65 -3t68 -9q4 -31 6.5 -61t2.5 -60q0 -29 -2.5 -59.5t-6.5 -61.5q-33 -6 -68.5 -8t-64.5 -2t-64.5 2t-66.5 8q-12 61 -12 121z" />
<glyph unicode="&#x2c6;" horiz-adv-x="1019" d="M150 1219l200 254q35 4 82 7t90 3q27 0 69 -2t83 -11l198 -251q-47 -12 -124 -13q-35 0 -77 3t-77 12l-84 131l-82 -131q-27 -8 -64.5 -11.5t-74.5 -3.5q-82 0 -139 13z" />
<glyph unicode="&#x2dc;" horiz-adv-x="1024" d="M141 1386q35 45 91.5 77t132.5 32q39 0 74.5 -11t70.5 -24.5t71.5 -25t75.5 -11.5q35 0 66 10.5t74 53.5q33 -35 55 -78t33 -86q-35 -45 -92.5 -74.5t-133.5 -29.5q-39 0 -75.5 11t-72.5 24.5t-72 24.5t-72 11q-39 0 -68 -11t-72 -52q-29 37 -53.5 76.5t-32.5 82.5z" />
<glyph unicode="&#x2000;" horiz-adv-x="958" />
<glyph unicode="&#x2001;" horiz-adv-x="1917" />
<glyph unicode="&#x2002;" horiz-adv-x="958" />
<glyph unicode="&#x2003;" horiz-adv-x="1917" />
<glyph unicode="&#x2004;" horiz-adv-x="639" />
<glyph unicode="&#x2005;" horiz-adv-x="479" />
<glyph unicode="&#x2006;" horiz-adv-x="319" />
<glyph unicode="&#x2007;" horiz-adv-x="319" />
<glyph unicode="&#x2008;" horiz-adv-x="239" />
<glyph unicode="&#x2009;" horiz-adv-x="383" />
<glyph unicode="&#x200a;" horiz-adv-x="106" />
<glyph unicode="&#x2010;" horiz-adv-x="759" d="M106 561q0 66 13 127h522q12 -61 12 -125q0 -66 -12 -127h-522q-12 61 -13 125z" />
<glyph unicode="&#x2011;" horiz-adv-x="759" d="M106 561q0 66 13 127h522q12 -61 12 -125q0 -66 -12 -127h-522q-12 61 -13 125z" />
<glyph unicode="&#x2012;" horiz-adv-x="759" d="M106 561q0 66 13 127h522q12 -61 12 -125q0 -66 -12 -127h-522q-12 61 -13 125z" />
<glyph unicode="&#x2013;" horiz-adv-x="1024" d="M-12 561q0 61 12 127h1024q12 -66 12 -125q0 -63 -12 -127h-1024q-12 63 -12 125z" />
<glyph unicode="&#x2014;" horiz-adv-x="2048" d="M-12 561q0 61 12 127h2048q12 -66 12 -125q0 -63 -12 -127h-2048q-12 63 -12 125z" />
<glyph unicode="&#x2018;" horiz-adv-x="622" d="M102 1470q35 8 74 11.5t72 3.5t67.5 -3t69.5 -12l135 -524q-35 -8 -66.5 -10t-64.5 -2t-67.5 2t-69.5 10z" />
<glyph unicode="&#x2019;" horiz-adv-x="622" d="M102 946l136 524q35 8 69.5 11.5t67.5 3.5t71.5 -3t73.5 -12l-149 -524q-35 -8 -70 -10t-68 -2t-64.5 2t-66.5 10z" />
<glyph unicode="&#x201a;" horiz-adv-x="622" d="M102 -229l136 524q35 8 69.5 11t67.5 3t71.5 -3t73.5 -11l-149 -524q-35 -8 -70 -10.5t-68 -2.5t-64.5 2t-66.5 11z" />
<glyph unicode="&#x201c;" horiz-adv-x="1056" d="M102 1470q35 8 74 11.5t72 3.5t67.5 -3t69.5 -12l135 -524q-35 -8 -66.5 -10t-64.5 -2t-67.5 2t-69.5 10zM536 1470q35 8 74 11.5t72 3.5t67.5 -3t69.5 -12l135 -524q-35 -8 -66.5 -10t-64.5 -2t-67.5 2t-69.5 10z" />
<glyph unicode="&#x201d;" horiz-adv-x="1056" d="M102 946l136 524q35 8 69.5 11.5t67.5 3.5t71.5 -3t73.5 -12l-149 -524q-35 -8 -70 -10t-68 -2t-64.5 2t-66.5 10zM536 946l136 524q35 8 69.5 11.5t67.5 3.5t71.5 -3t73.5 -12l-149 -524q-35 -8 -70 -10t-68 -2t-64.5 2t-66.5 10z" />
<glyph unicode="&#x201e;" horiz-adv-x="1056" d="M102 -229l136 524q35 8 69.5 11t67.5 3t71.5 -3t73.5 -11l-149 -524q-35 -8 -70 -10.5t-68 -2.5t-64.5 2t-66.5 11zM536 -229l136 524q35 8 69.5 11t67.5 3t71.5 -3t73.5 -11l-149 -524q-35 -8 -70 -10.5t-68 -2.5t-64.5 2t-66.5 11z" />
<glyph unicode="&#x2022;" horiz-adv-x="921" d="M154 752q0 63 24.5 118.5t65.5 97.5t97 66.5t120 24.5q63 0 118.5 -24.5t97.5 -66.5t66.5 -97.5t24.5 -118.5t-24.5 -120t-66.5 -97.5t-97.5 -65.5t-118.5 -25t-119.5 25t-97.5 65.5t-65.5 97.5t-24.5 120z" />
<glyph unicode="&#x2026;" horiz-adv-x="1697" d="M133 150q0 74 12 151q76 12 150 12t151 -12q12 -78 13 -149q0 -76 -13 -152q-78 -12 -149 -12q-76 0 -152 12q-12 76 -12 150zM686 150q0 74 12 151q76 12 150 12t151 -12q12 -78 13 -149q0 -76 -13 -152q-78 -12 -149 -12q-76 0 -152 12q-12 76 -12 150zM1239 150 q0 74 12 151q76 12 150 12t151 -12q12 -78 13 -149q0 -76 -13 -152q-78 -12 -149 -12q-76 0 -152 12q-12 76 -12 150z" />
<glyph unicode="&#x202f;" horiz-adv-x="383" />
<glyph unicode="&#x2039;" horiz-adv-x="763" d="M82 545l319 454q63 12 138 13q82 0 161 -13l-315 -454l315 -455q-80 -12 -161 -12q-74 0 -138 12z" />
<glyph unicode="&#x203a;" horiz-adv-x="763" d="M63 90l316 455l-316 454q80 12 162 13q72 0 137 -13l320 -454l-320 -455q-66 -12 -137 -12q-82 0 -162 12z" />
<glyph unicode="&#x205f;" horiz-adv-x="479" />
<glyph unicode="&#x20ac;" d="M57 541q0 53 11 88h161q-2 20 -2 41.5v44.5v39.5t2 40.5h-161q-10 31 -11 84q0 53 11 88h182q25 113 72 207t121.5 159.5t176 102.5t234.5 37q98 0 181 -12.5t179 -51.5q-4 -61 -24.5 -119.5t-44.5 -118.5q-72 25 -127 35.5t-131 10.5q-139 0 -212 -62.5t-102 -187.5h424 q4 -14 6.5 -36t2.5 -44q0 -27 -2.5 -51.5t-6.5 -40.5h-446v-80v-44.5t2 -41.5h444q4 -14 6.5 -36t2.5 -44q0 -27 -2.5 -51.5t-6.5 -40.5h-422q31 -117 106 -170.5t222 -53.5q76 0 133.5 10.5t128.5 35.5q27 -57 44.5 -118t25.5 -122q-106 -39 -191.5 -51.5t-183.5 -12.5 q-137 0 -240.5 34t-177 96.5t-121 151.5t-69.5 200h-184q-10 31 -11 84z" />
<glyph unicode="&#x2122;" horiz-adv-x="1638" d="M25 1346q0 55 8 102h602q4 -25 6 -49.5t2 -48.5q0 -25 -2 -49.5t-6 -47.5h-195v-622q-29 -6 -55.5 -10.5t-54.5 -4.5q-51 0 -101 15v622h-196q-8 41 -8 93zM717 631l45 815q35 4 62.5 7t52.5 3q20 0 44.5 -3t59.5 -7l156 -389l151 389q29 4 52.5 7t50.5 3q23 0 50 -3 t58 -7l45 -815q-33 -6 -57.5 -9.5t-48.5 -3.5q-20 0 -46 1.5t-59 11.5l-26 416l-115 -269q-18 -4 -33.5 -5t-42.5 -1q-16 0 -33.5 1t-46.5 5l-94 260l-20 -407q-31 -10 -55.5 -11.5t-45.5 -1.5q-23 0 -46 3.5t-58 9.5z" />
<glyph unicode="&#xe000;" horiz-adv-x="1075" d="M0 0v1075h1075v-1075h-1075z" />
</font>
</defs>
</svg>
